<svg width="68" height="64" viewBox="0 0 68 64" fill="none" xmlns="http://www.w3.org/2000/svg">
<rect width="64" height="64" rx="32" fill="white"/>
<path d="M32.0781 43.0625C32.0781 43.6875 32.0156 44.4375 31.8906 45.3125C31.7969 46.1875 31.5938 47.0312 31.2812 47.8438C30.9688 48.625 30.5469 49.2969 30.0156 49.8594C29.4844 50.3906 28.7812 50.6562 27.9062 50.6562C26.75 50.6562 25.875 50.2344 25.2812 49.3906C24.7188 48.5469 24.3125 47.5469 24.0625 46.3906C23.8125 45.2031 23.6562 44 23.5938 42.7812C23.5625 41.5625 23.5312 40.5938 23.5 39.875C21.25 40.25 19.0312 40.5781 16.8438 40.8594C16.7812 41.5781 16.6406 42.4688 16.4219 43.5312C16.2344 44.5938 15.9219 45.625 15.4844 46.625C15.0781 47.5938 14.5312 48.4375 13.8438 49.1562C13.1875 49.875 12.375 50.2344 11.4062 50.2344C10.6562 50.2344 10.0625 49.9688 9.625 49.4375C9.21875 48.875 8.90625 48.2188 8.6875 47.4688C8.46875 46.7188 8.32812 45.9531 8.26562 45.1719C8.23438 44.3594 8.21875 43.6875 8.21875 43.1562C8.21875 41.375 8.35938 39.625 8.64062 37.9062C8.92188 36.1562 9.25 34.4219 9.625 32.7031C9.8125 31.7969 10.0625 30.7344 10.375 29.5156C10.6875 28.2969 11.0625 27.0469 11.5 25.7656C11.9688 24.4531 12.5 23.1719 13.0938 21.9219C13.7188 20.6406 14.4219 19.5 15.2031 18.5C15.9844 17.5 16.875 16.6875 17.875 16.0625C18.875 15.4375 19.9844 15.125 21.2031 15.125C22.3906 15.125 23.4219 15.3906 24.2969 15.9219C25.1719 16.4531 25.9375 17.1562 26.5938 18.0312C27.25 18.9062 27.7969 19.9062 28.2344 21.0312C28.6719 22.125 29.0312 23.25 29.3125 24.4062C29.625 25.5312 29.875 26.6406 30.0625 27.7344C30.2812 28.8281 30.4688 29.7969 30.625 30.6406C31.0312 32.6719 31.375 34.7344 31.6562 36.8281C31.9375 38.8906 32.0781 40.9688 32.0781 43.0625ZM23.0312 31.6719C23.0312 31.2969 23 30.6875 22.9375 29.8438C22.9062 28.9688 22.8125 28.1094 22.6562 27.2656C22.5 26.3906 22.25 25.625 21.9062 24.9688C21.5938 24.2812 21.1562 23.9375 20.5938 23.9375C20.2812 23.9375 19.9844 24.1562 19.7031 24.5938C19.4219 25 19.1719 25.5312 18.9531 26.1875C18.7344 26.8125 18.5312 27.5156 18.3438 28.2969C18.1875 29.0781 18.0469 29.8281 17.9219 30.5469C17.7969 31.2656 17.7031 31.9219 17.6406 32.5156C17.5781 33.0781 17.5312 33.4844 17.5 33.7344C19.375 33.5781 21.2188 33.3438 23.0312 33.0312V31.6719Z" fill="black"/>
<path d="M54.9446 25.1406C54.9446 25.7344 54.8665 26.3594 54.7102 27.0156C54.5852 27.6719 54.3665 28.2812 54.054 28.8437C53.7415 29.4062 53.3352 29.875 52.8352 30.25C52.3352 30.625 51.7258 30.8125 51.0071 30.8125C49.9133 30.8125 49.1008 30.625 48.5696 30.25C48.0383 29.8437 47.6633 29.3437 47.4446 28.75C47.2258 28.1562 47.1008 27.5312 47.0696 26.875C47.0696 26.1875 47.054 25.5469 47.0227 24.9531C46.9915 24.3594 46.8821 23.875 46.6946 23.5C46.5383 23.0937 46.179 22.8906 45.6165 22.8906C44.9915 22.8906 44.4446 23.125 43.9758 23.5937C43.5071 24.0312 43.1008 24.6094 42.7571 25.3281C42.4133 26.0469 42.1165 26.8594 41.8665 27.7656C41.6477 28.6719 41.4602 29.5781 41.304 30.4844C41.179 31.3594 41.0852 32.2031 41.0227 33.0156C40.9602 33.7969 40.929 34.4375 40.929 34.9375C40.929 35.5937 40.9446 36.375 40.9758 37.2812C41.0383 38.1875 41.1946 39.0625 41.4446 39.9062C41.6946 40.7187 42.0696 41.4219 42.5696 42.0156C43.0696 42.5781 43.7883 42.8594 44.7258 42.8594C45.3508 42.8594 45.9602 42.7812 46.554 42.625C47.1477 42.4687 47.7415 42.2969 48.3352 42.1094C48.929 41.8906 49.5227 41.7031 50.1165 41.5469C50.7415 41.3906 51.3665 41.3125 51.9915 41.3125C52.7102 41.3125 53.304 41.6094 53.7727 42.2031C54.2415 42.7656 54.4758 43.4062 54.4758 44.125C54.4758 45.125 54.1633 46.0625 53.5383 46.9375C52.9133 47.7812 52.1321 48.5312 51.1946 49.1875C50.2883 49.8437 49.2883 50.3594 48.1946 50.7344C47.1321 51.1094 46.1633 51.2969 45.2883 51.2969C43.0383 51.2969 41.1321 50.7812 39.5696 49.75C38.0071 48.75 36.7415 47.4531 35.7727 45.8594C34.804 44.2344 34.1008 42.4375 33.6633 40.4687C33.2571 38.4687 33.054 36.4844 33.054 34.5156C33.054 33.2031 33.179 31.7656 33.429 30.2031C33.679 28.6406 34.054 27.0781 34.554 25.5156C35.054 23.9219 35.679 22.3906 36.429 20.9219C37.2102 19.4531 38.1165 18.1562 39.1477 17.0312C40.179 15.9062 41.3352 15 42.6165 14.3125C43.929 13.625 45.3665 13.2812 46.929 13.2812C48.4602 13.2812 49.7415 13.6719 50.7727 14.4531C51.804 15.2031 52.6321 16.1719 53.2571 17.3594C53.8821 18.5156 54.3196 19.7969 54.5696 21.2031C54.8196 22.5781 54.9446 23.8906 54.9446 25.1406Z" fill="black"/>
</svg>
