<svg width="130" height="188" viewBox="0 0 130 188" fill="none" xmlns="http://www.w3.org/2000/svg">
<path d="M0 47C4.41828 47 8 50.5817 8 55V188H0V47Z" fill="#35383B"/>
<path d="M17 59H25V110H17V59Z" fill="#35383B"/>
<path d="M17 127H25V180H17V127Z" fill="#35383B"/>
<path d="M105 59H113V188H105V59Z" fill="#35383B"/>
<path d="M8 123V114H105V123H8Z" fill="#35383B"/>
<path d="M8 188V180H37V188H8Z" fill="#35383B"/>
<path d="M87 188V180H113V188H87Z" fill="#35383B"/>
<path d="M122 55C122 50.5817 125.582 47 130 47V188H122V55Z" fill="#35383B"/>
<path d="M20.5 57.5C28.5 34.5 42.5 19.5 65.5 3.5" stroke="#35383B" stroke-width="7" stroke-linecap="round"/>
<path d="M109.5 58C101.5 35 88.5 19.5 65.5 3.5" stroke="#35383B" stroke-width="7" stroke-linecap="round"/>
<path d="M3.5 52C71.3561 69.298 95.5404 87.3887 108 178" stroke="#35383B" stroke-width="7" stroke-linecap="round"/>
<path d="M126.5 51.5C100.369 54.3366 85.9468 62.3247 67 77" stroke="#35383B" stroke-width="7" stroke-linecap="round"/>
</svg>
