<svg width="66" height="64" viewBox="0 0 66 64" fill="none" xmlns="http://www.w3.org/2000/svg">
<rect width="64" height="64" rx="32" fill="white"/>
<path d="M31.0469 23.1426C31.0469 25.3887 30.4935 27.4395 29.3867 29.2949C28.2799 31.1178 26.7988 32.6478 24.9434 33.8848C25.9199 34.0801 26.7663 34.4219 27.4824 34.9102C28.1986 35.3659 28.7845 35.9355 29.2402 36.6191C29.7285 37.3027 30.0866 38.084 30.3145 38.9629C30.5749 39.8092 30.7051 40.7044 30.7051 41.6484C30.7051 43.5039 30.2656 45.1315 29.3867 46.5312C28.5404 47.8984 27.4336 49.0378 26.0664 49.9492C24.6992 50.8281 23.1693 51.4954 21.4766 51.9512C19.8164 52.3743 18.1562 52.5859 16.4961 52.5859C15.5846 52.5859 14.6732 52.5208 13.7617 52.3906C12.8503 52.2604 11.9876 52.0326 11.1738 51.707C10.8809 51.6094 10.6367 51.2188 10.4414 50.5352C10.2461 49.819 10.0833 48.9564 9.95312 47.9473C9.85547 46.9382 9.77409 45.8477 9.70898 44.6758C9.64388 43.5039 9.59505 42.3809 9.5625 41.3066C9.52995 40.2324 9.51367 39.2884 9.51367 38.4746C9.51367 37.6608 9.51367 37.0911 9.51367 36.7656C9.51367 35.6263 9.51367 34.487 9.51367 33.3477C9.51367 32.1758 9.54622 31.0202 9.61133 29.8809C9.61133 29.5879 9.61133 29.1322 9.61133 28.5137C9.64388 27.8952 9.66016 27.2116 9.66016 26.4629C9.69271 25.6816 9.72526 24.8678 9.75781 24.0215C9.82292 23.1751 9.88802 22.3939 9.95312 21.6777C10.0508 20.929 10.1647 20.2943 10.2949 19.7734C10.4577 19.2526 10.6367 18.9271 10.832 18.7969C11.5807 18.3086 12.4108 17.8529 13.3223 17.4297C14.2337 16.974 15.1777 16.5833 16.1543 16.2578C17.1309 15.9323 18.1074 15.6719 19.084 15.4766C20.0605 15.2812 20.9883 15.1836 21.8672 15.1836C23.0716 15.1836 24.2272 15.3626 25.334 15.7207C26.4733 16.0462 27.4499 16.5508 28.2637 17.2344C29.11 17.918 29.7773 18.7643 30.2656 19.7734C30.7865 20.75 31.0469 21.873 31.0469 23.1426ZM22.9414 25.7305C22.9414 25.1771 22.7624 24.7702 22.4043 24.5098C22.0788 24.2493 21.6393 24.1191 21.0859 24.1191C20.6302 24.1191 20.1419 24.2168 19.6211 24.4121C19.1328 24.6074 18.7096 24.8678 18.3516 25.1934C18.2539 25.291 18.1562 25.5677 18.0586 26.0234C17.9935 26.4792 17.9284 27 17.8633 27.5859C17.8307 28.1393 17.7982 28.6764 17.7656 29.1973C17.7656 29.6855 17.7656 30.0111 17.7656 30.1738C17.7656 30.2389 17.7656 30.3529 17.7656 30.5156C17.7656 30.6458 17.7656 30.7923 17.7656 30.9551C17.7982 31.1178 17.8307 31.2643 17.8633 31.3945C17.8958 31.5247 17.9447 31.5898 18.0098 31.5898C18.5632 31.5898 19.1328 31.3945 19.7188 31.0039C20.3047 30.5807 20.8255 30.0762 21.2812 29.4902C21.7695 28.8717 22.1602 28.2207 22.4531 27.5371C22.7786 26.8535 22.9414 26.2513 22.9414 25.7305ZM22.7461 39.8418C22.7461 39.2884 22.5508 38.8978 22.1602 38.6699C21.7695 38.4421 21.3301 38.3281 20.8418 38.3281C20.3861 38.3281 19.8978 38.4421 19.377 38.6699C18.8887 38.8652 18.4818 39.1094 18.1562 39.4023C18.0586 39.4674 17.9772 39.6302 17.9121 39.8906C17.8796 40.151 17.847 40.444 17.8145 40.7695C17.8145 41.0625 17.7982 41.3555 17.7656 41.6484C17.7656 41.9089 17.7656 42.0879 17.7656 42.1855C17.7656 42.2507 17.7656 42.3809 17.7656 42.5762C17.7656 42.7715 17.7656 42.9831 17.7656 43.2109C17.7982 43.4062 17.8307 43.6016 17.8633 43.7969C17.9284 43.9596 17.9935 44.041 18.0586 44.041C18.5143 44.041 19.0189 43.9108 19.5723 43.6504C20.1257 43.39 20.6302 43.0645 21.0859 42.6738C21.5742 42.2832 21.9648 41.8438 22.2578 41.3555C22.5833 40.8346 22.7461 40.3301 22.7461 39.8418Z" fill="black"/>
<path d="M53.8665 26.1465C53.8665 26.765 53.7851 27.416 53.6223 28.0996C53.4921 28.7832 53.2642 29.418 52.9387 30.0039C52.6132 30.5898 52.19 31.0781 51.6692 31.4687C51.1484 31.8594 50.5136 32.0547 49.7649 32.0547C48.6256 32.0547 47.7792 31.8594 47.2258 31.4687C46.6724 31.0456 46.2818 30.5247 46.054 29.9062C45.8261 29.2878 45.6959 28.6367 45.6633 27.9531C45.6633 27.237 45.6471 26.5697 45.6145 25.9512C45.5819 25.3327 45.468 24.8281 45.2727 24.4375C45.1099 24.0143 44.7356 23.8027 44.1497 23.8027C43.4986 23.8027 42.929 24.0469 42.4407 24.5352C41.9524 24.9909 41.5292 25.5931 41.1711 26.3418C40.8131 27.0905 40.5038 27.9368 40.2434 28.8809C40.0155 29.8249 39.8202 30.7689 39.6575 31.7129C39.5273 32.6243 39.4296 33.5033 39.3645 34.3496C39.2994 35.1634 39.2668 35.8307 39.2668 36.3516C39.2668 37.0352 39.2831 37.849 39.3157 38.793C39.3808 39.737 39.5435 40.6484 39.804 41.5273C40.0644 42.3737 40.455 43.1061 40.9758 43.7246C41.4967 44.3105 42.2454 44.6035 43.2219 44.6035C43.873 44.6035 44.5077 44.5221 45.1262 44.3594C45.7447 44.1966 46.3632 44.0176 46.9817 43.8223C47.6002 43.5944 48.2187 43.3991 48.8372 43.2363C49.4882 43.0736 50.1392 42.9922 50.7903 42.9922C51.539 42.9922 52.1575 43.3014 52.6457 43.9199C53.134 44.5059 53.3782 45.1732 53.3782 45.9219C53.3782 46.9635 53.0527 47.9401 52.4016 48.8516C51.7506 49.7305 50.9368 50.5117 49.9602 51.1953C49.0162 51.8789 47.9745 52.416 46.8352 52.8066C45.7284 53.1973 44.7193 53.3926 43.8079 53.3926C41.4641 53.3926 39.4784 52.8555 37.8508 51.7812C36.2232 50.7396 34.9049 49.3887 33.8958 47.7285C32.8866 46.0358 32.1542 44.1641 31.6985 42.1133C31.2753 40.0299 31.0637 37.9629 31.0637 35.9121C31.0637 34.5449 31.1939 33.0475 31.4543 31.4199C31.7148 29.7923 32.1054 28.1647 32.6262 26.5371C33.1471 24.877 33.7981 23.2819 34.5793 21.752C35.3931 20.222 36.3372 18.8711 37.4114 17.6992C38.4856 16.5273 39.69 15.5833 41.0247 14.8672C42.3918 14.151 43.8892 13.793 45.5168 13.793C47.1119 13.793 48.4465 14.1999 49.5207 15.0137C50.595 15.7949 51.4576 16.804 52.1086 18.041C52.7597 19.2454 53.2154 20.5801 53.4758 22.0449C53.7362 23.4772 53.8665 24.8444 53.8665 26.1465Z" fill="black"/>
</svg>
