<?xml version="1.0" encoding="UTF-8" standalone="no"?>
<!DOCTYPE svg PUBLIC "-//W3C//DTD SVG 1.1//EN" "http://www.w3.org/Graphics/SVG/1.1/DTD/svg11.dtd">
<svg xmlns="http://www.w3.org/2000/svg" version="1.1" viewBox="0.00 0.00 1080.00 720.00">
<g stroke-width="2.00" fill="none" stroke-linecap="butt">
<path stroke="#b5aeff" vector-effect="non-scaling-stroke" d="
  M 239.43 366.71
  C 228.94 383.64 248.91 401.96 264.34 389.67
  C 271.36 384.08 271.52 375.98 268.23 367.87
  C 265.02 359.96 268.79 350.14 266.00 342.10
  C 261.25 328.42 241.06 331.63 240.36 346.39
  Q 239.93 355.42 239.83 364.50
  Q 239.81 366.10 239.43 366.71"
/>
<path stroke="#b5aeff" vector-effect="non-scaling-stroke" d="
  M 391.27 355.96
  Q 391.79 349.33 391.73 342.49
  C 391.70 339.16 387.41 340.08 385.46 340.22
  A 0.73 0.72 87.9 0 0 384.79 340.95
  L 384.74 384.97
  Q 384.74 385.57 385.34 385.58
  L 390.97 385.65
  A 0.72 0.71 0.0 0 0 391.69 384.94
  L 391.63 362.78
  A 1.65 1.65 0.0 0 1 392.01 361.70
  C 396.23 356.53 405.51 356.71 405.58 365.27
  Q 405.70 380.19 405.63 384.87
  Q 405.62 385.62 406.37 385.62
  L 411.54 385.60
  Q 412.15 385.59 412.17 384.98
  Q 412.43 370.50 412.01 363.01
  C 411.39 352.01 399.00 350.18 391.85 356.26
  A 0.36 0.35 72.0 0 1 391.27 355.96"
/>
<path stroke="#b5aeff" vector-effect="non-scaling-stroke" d="
  M 750.45 356.00
  L 750.65 341.40
  Q 750.67 340.13 749.40 340.13
  L 744.66 340.12
  A 0.72 0.72 0.0 0 0 743.94 340.84
  L 743.88 384.75
  Q 743.88 385.51 744.51 385.54
  L 749.61 385.75
  A 0.97 0.97 0.0 0 0 750.63 384.77
  Q 750.55 374.10 750.70 363.25
  C 750.78 357.54 764.71 355.23 764.90 365.26
  Q 765.08 374.87 764.80 384.55
  A 1.12 1.12 0.0 0 0 765.94 385.70
  L 770.60 385.61
  Q 771.26 385.60 771.26 384.93
  Q 771.32 367.52 770.99 362.26
  C 770.34 351.72 757.64 350.58 751.00 356.26
  A 0.33 0.33 0.0 0 1 750.45 356.00"
/>
<path stroke="#b5aeff" vector-effect="non-scaling-stroke" d="
  M 607.26 367.98
  Q 606.92 372.54 606.40 367.99
  L 603.49 342.89
  Q 603.41 342.23 602.74 342.20
  L 598.55 341.97
  A 0.72 0.72 0.0 0 0 597.80 342.73
  C 598.64 356.83 600.69 370.85 602.39 384.88
  Q 602.47 385.54 603.13 385.55
  L 608.53 385.68
  Q 609.22 385.70 609.34 385.01
  Q 611.18 374.52 612.74 364.00
  Q 613.26 360.45 614.30 356.99
  Q 614.63 355.89 614.85 357.02
  C 615.16 358.69 614.90 360.73 615.14 362.15
  Q 616.98 373.31 618.73 384.55
  Q 618.81 385.09 619.33 385.27
  Q 622.21 386.25 625.15 385.49
  Q 625.76 385.33 625.84 384.70
  L 630.83 342.88
  Q 630.93 342.07 630.11 342.08
  L 625.17 342.14
  A 0.65 0.64 -88.0 0 0 624.54 342.73
  L 621.88 370.25
  A 0.12 0.12 0.0 0 1 621.64 370.25
  Q 619.98 357.89 617.42 345.59
  C 617.00 343.59 617.05 342.41 614.98 342.02
  Q 611.23 341.32 610.84 344.46
  C 609.78 352.87 607.80 360.61 607.26 367.98"
/>
<path stroke="#b5aeff" vector-effect="non-scaling-stroke" d="
  M 299.68 362.25
  C 301.51 361.29 303.16 360.22 303.88 358.17
  C 306.41 350.98 302.93 345.18 295.94 343.24
  C 290.24 341.66 283.44 342.17 277.57 342.22
  A 0.53 0.52 90.0 0 0 277.05 342.75
  L 277.01 384.54
  Q 277.00 385.71 278.17 385.72
  C 289.63 385.81 306.06 388.36 305.83 371.56
  Q 305.79 368.88 303.41 366.13
  C 302.44 365.01 300.83 364.13 299.59 363.04
  Q 299.06 362.58 299.68 362.25"
/>
<path stroke="#b5aeff" vector-effect="non-scaling-stroke" d="
  M 714.81 353.45
  L 708.44 353.38
  Q 707.82 353.38 707.41 353.84
  C 706.50 354.87 706.23 357.10 707.65 357.91
  C 709.21 358.79 712.93 358.04 714.92 358.18
  Q 715.47 358.23 715.46 358.78
  Q 715.25 368.03 715.63 377.24
  C 716.06 387.56 726.87 387.24 734.42 385.04
  Q 734.86 384.92 734.94 384.47
  Q 735.35 382.13 734.00 380.28
  A 0.91 0.91 0.0 0 0 733.03 379.94
  C 727.14 381.49 722.23 382.50 722.03 374.45
  Q 721.83 366.65 721.91 358.77
  Q 721.92 358.21 722.48 358.21
  L 732.38 358.21
  Q 734.23 358.21 734.04 356.37
  L 733.83 354.29
  A 0.94 0.93 -1.7 0 0 732.93 353.45
  L 722.67 353.16
  Q 721.73 353.14 721.75 352.20
  C 721.83 348.28 722.37 345.22 717.09 345.61
  Q 715.64 345.72 715.58 347.43
  Q 715.45 351.16 715.37 352.92
  A 0.56 0.56 0.0 0 1 714.81 353.45"
/>
<path stroke="#b5aeff" vector-effect="non-scaling-stroke" d="
  M 319.24 371.63
  L 339.55 371.69
  A 1.46 1.46 0.0 0 0 341.02 370.26
  C 341.18 362.30 338.78 354.62 329.98 353.11
  Q 323.70 352.03 319.06 355.06
  C 309.39 361.38 309.02 380.02 320.24 384.81
  Q 331.04 389.43 339.93 381.43
  A 0.98 0.96 66.7 0 0 340.24 380.63
  Q 340.00 377.63 337.01 377.26
  A 1.16 1.16 0.0 0 0 336.19 377.46
  C 334.22 378.86 332.29 380.56 329.87 380.86
  Q 321.03 381.93 318.46 372.65
  A 0.80 0.80 0.0 0 1 319.24 371.63"
/>
<path stroke="#b5aeff" vector-effect="non-scaling-stroke" d="
  M 359.57 365.67
  C 356.47 364.89 355.11 361.14 358.40 359.34
  Q 364.95 355.75 369.07 361.37
  C 370.67 363.56 372.65 364.57 375.13 363.48
  Q 376.78 362.74 376.11 361.07
  Q 374.11 356.04 370.01 354.13
  C 363.35 351.04 348.46 353.28 350.22 363.70
  C 351.42 370.79 361.32 371.69 366.69 373.34
  C 370.08 374.39 371.62 378.18 367.78 379.98
  Q 359.49 383.87 355.07 375.87
  Q 354.74 375.28 354.08 375.28
  L 350.13 375.26
  A 1.40 1.40 0.0 0 0 348.78 377.07
  Q 350.78 383.59 357.25 385.56
  C 364.35 387.73 378.82 385.72 376.16 374.54
  C 374.67 368.28 365.73 367.21 359.57 365.67"
/>
<path stroke="#b5aeff" vector-effect="non-scaling-stroke" d="
  M 440.00 365.61
  C 434.31 366.15 427.01 364.96 422.63 369.78
  C 418.19 374.67 420.00 383.62 426.73 385.58
  Q 433.47 387.54 439.95 384.00
  Q 440.43 383.74 440.83 384.10
  Q 443.73 386.67 447.59 385.37
  Q 448.12 385.20 448.08 384.64
  C 447.93 381.93 446.99 379.33 447.01 376.79
  C 447.06 371.95 447.78 363.41 446.22 358.98
  C 444.10 352.98 434.67 351.94 429.18 353.32
  Q 422.76 354.93 421.02 361.06
  A 1.86 1.85 -76.1 0 0 422.42 363.38
  Q 424.39 363.80 426.20 363.04
  Q 426.71 362.83 427.00 362.35
  Q 431.37 355.21 438.26 359.27
  C 440.35 360.50 440.84 362.72 440.66 364.94
  Q 440.61 365.55 440.00 365.61"
/>
<path stroke="#b5aeff" vector-effect="non-scaling-stroke" d="
  M 467.47 356.76
  L 467.52 354.37
  A 0.88 0.88 0.0 0 0 466.67 353.47
  L 462.01 353.30
  Q 461.29 353.27 461.28 354.00
  L 461.20 384.90
  Q 461.20 385.61 461.90 385.61
  L 466.98 385.61
  A 0.80 0.80 0.0 0 0 467.78 384.80
  Q 467.70 376.79 467.77 368.76
  C 467.86 358.29 474.66 359.03 482.73 359.55
  A 0.81 0.81 0.0 0 0 483.59 358.82
  L 484.08 354.44
  Q 484.14 353.88 483.61 353.70
  Q 474.53 350.68 467.99 356.98
  A 0.31 0.30 -21.9 0 1 467.47 356.76"
/>
<path stroke="#b5aeff" vector-effect="non-scaling-stroke" d="
  M 512.61 384.22
  Q 515.64 386.55 519.43 385.45
  Q 519.95 385.30 519.87 384.76
  Q 518.48 376.42 518.62 367.99
  C 518.75 360.66 518.76 355.57 511.30 353.49
  C 504.81 351.68 493.14 353.32 492.86 362.19
  A 0.78 0.77 -76.1 0 0 493.30 362.92
  Q 495.75 364.12 498.21 362.95
  Q 498.62 362.75 498.85 362.36
  Q 502.74 355.70 509.41 358.86
  C 511.76 359.97 512.55 361.88 512.44 364.36
  Q 512.38 365.87 510.87 365.78
  Q 505.38 365.45 500.27 366.51
  C 489.54 368.75 488.85 383.94 500.48 385.98
  Q 506.22 386.98 511.62 384.13
  Q 512.14 383.86 512.61 384.22"
/>
<path stroke="#b5aeff" vector-effect="non-scaling-stroke" d="
  M 642.54 371.65
  L 662.56 371.67
  A 1.67 1.66 0.3 0 0 664.23 370.03
  Q 664.29 365.58 662.84 361.33
  C 658.98 350.02 643.68 350.31 637.81 359.69
  C 631.97 369.01 634.71 383.85 647.52 385.99
  Q 656.34 387.47 662.52 381.82
  C 664.30 380.19 662.29 377.70 660.61 377.22
  A 1.09 1.08 34.5 0 0 659.66 377.39
  C 657.45 378.99 654.98 380.81 652.22 380.96
  Q 644.46 381.40 641.58 372.99
  A 1.01 1.01 0.0 0 1 642.54 371.65"
/>
<path stroke="#b5aeff" vector-effect="non-scaling-stroke" d="
  M 691.92 364.70
  A 1.45 1.44 -80.7 0 1 690.39 365.81
  C 683.56 365.18 673.26 366.01 671.76 374.48
  C 669.60 386.65 683.50 388.28 691.22 384.01
  Q 691.68 383.76 692.08 384.10
  Q 695.10 386.65 699.04 385.42
  Q 699.50 385.28 699.42 384.79
  Q 697.67 374.43 698.20 363.74
  C 698.90 349.32 674.31 349.22 672.30 361.87
  A 0.95 0.94 -71.0 0 0 672.77 362.84
  Q 675.19 364.17 677.73 363.01
  A 1.49 1.44 -87.0 0 0 678.42 362.37
  Q 682.12 355.81 688.62 358.71
  C 691.04 359.80 692.53 362.09 691.92 364.70"
/>
<path stroke="#b5aeff" vector-effect="non-scaling-stroke" d="
  M 785.79 371.68
  L 806.34 371.65
  A 1.46 1.45 -88.8 0 0 807.79 370.25
  C 808.95 343.39 773.56 349.42 779.18 374.65
  C 783.28 393.03 809.86 385.44 806.50 378.98
  C 804.44 375.00 800.31 379.87 797.67 380.65
  C 791.80 382.40 785.92 378.29 785.24 372.29
  Q 785.18 371.68 785.79 371.68"
/>
<path stroke="#b5aeff" vector-effect="non-scaling-stroke" d="
  M 826.58 356.77
  L 826.46 354.28
  A 0.89 0.89 0.0 0 0 825.62 353.44
  L 821.65 353.24
  Q 820.32 353.18 820.32 354.51
  L 820.23 384.74
  Q 820.23 385.59 821.08 385.59
  L 825.93 385.60
  A 0.84 0.84 0.0 0 0 826.77 384.76
  Q 826.74 378.92 826.77 373.09
  Q 826.81 365.94 827.07 364.94
  C 828.77 358.57 835.86 358.95 841.20 359.49
  Q 842.24 359.60 842.57 358.61
  Q 843.32 356.39 842.75 354.18
  Q 842.63 353.70 842.16 353.56
  Q 833.36 350.96 827.03 356.96
  A 0.27 0.27 0.0 0 1 826.58 356.77"
/>
<path stroke="#b5aeff" vector-effect="non-scaling-stroke" d="
  M 545.18 361.51
  C 545.20 356.82 551.78 357.22 551.74 361.51
  Q 551.65 373.13 551.91 384.82
  A 0.72 0.71 0.9 0 0 552.60 385.52
  L 556.54 385.69
  A 0.78 0.78 0.0 0 0 557.35 384.96
  Q 558.08 373.98 557.68 363.12
  C 557.50 358.02 557.12 352.86 550.47 352.88
  Q 547.14 352.90 544.22 354.72
  A 0.91 0.90 47.0 0 1 543.22 354.68
  Q 538.75 351.45 533.57 353.98
  A 1.04 1.01 -51.5 0 1 532.95 354.06
  L 528.11 353.17
  A 1.77 1.76 -84.7 0 0 526.03 354.90
  L 526.00 384.74
  Q 526.00 385.46 526.72 385.51
  L 531.79 385.83
  A 0.63 0.63 0.0 0 0 532.46 385.20
  Q 532.41 372.98 532.59 360.75
  C 532.63 357.94 536.24 357.71 537.83 358.94
  Q 538.59 359.53 538.60 361.29
  Q 538.62 373.00 538.60 384.76
  Q 538.59 385.47 539.31 385.50
  L 544.57 385.71
  Q 545.20 385.74 545.20 385.10
  Q 545.12 373.25 545.18 361.51"
/>
<path stroke="#b5aeff" vector-effect="non-scaling-stroke" d="
  M 589.1688 365.5007
  A 1.27 1.27 0.0 0 0 587.9077 364.2219
  L 567.3282 364.0782
  A 1.27 1.27 0.0 0 0 566.0494 365.3393
  L 566.0312 367.9393
  A 1.27 1.27 0.0 0 0 567.2923 369.2181
  L 587.8718 369.3618
  A 1.27 1.27 0.0 0 0 589.1506 368.1007
  L 589.1688 365.5007"
/>
<path stroke="#b5aeff" vector-effect="non-scaling-stroke" d="
  M 260.49 370.81
  Q 258.92 368.30 258.92 367.50
  Q 258.87 358.00 258.86 348.50
  C 258.85 338.77 247.88 339.25 247.96 348.26
  Q 248.03 357.01 247.95 365.79
  C 247.92 370.08 244.55 372.99 244.67 377.31
  C 244.93 386.45 258.11 388.74 261.68 379.96
  Q 263.47 375.56 260.49 370.81"
/>
<path stroke="#b5aeff" vector-effect="non-scaling-stroke" d="
  M 251.36 370.40
  C 249.38 372.44 247.38 374.38 247.66 377.36
  C 248.03 381.29 251.74 383.00 255.29 382.12
  C 261.24 380.64 259.88 374.13 255.90 370.61
  A 1.11 1.11 0.0 0 1 255.53 369.76
  Q 255.58 366.70 255.43 358.75
  C 255.40 357.40 255.20 355.93 253.58 355.76
  Q 252.10 355.61 251.68 357.25
  Q 250.74 360.94 251.68 369.45
  Q 251.74 370.00 251.36 370.40"
/>
<path stroke="#b5aeff" vector-effect="non-scaling-stroke" d="
  M 283.22 348.38
  L 283.28 360.14
  A 0.58 0.58 0.0 0 0 283.86 360.72
  L 289.75 360.69
  A 8.51 6.26 -0.3 0 0 298.23 354.38
  L 298.23 353.98
  A 8.51 6.26 -0.3 0 0 289.69 347.77
  L 283.80 347.80
  A 0.58 0.58 0.0 0 0 283.22 348.38"
/>
<path stroke="#b5aeff" vector-effect="non-scaling-stroke" d="
  M 283.24 366.25
  L 283.28 380.01
  A 0.50 0.50 0.0 0 0 283.79 380.51
  L 290.47 380.48
  A 8.82 6.89 -0.2 0 0 299.26 373.56
  L 299.26 372.58
  A 8.82 6.89 -0.2 0 0 290.41 365.72
  L 283.73 365.75
  A 0.50 0.50 0.0 0 0 283.24 366.25"
/>
<path stroke="#b5aeff" vector-effect="non-scaling-stroke" d="
  M 319.23 366.23
  L 334.27 366.07
  A 0.17 0.17 0.0 0 0 334.44 365.90
  L 334.44 365.82
  A 7.73 7.66 89.4 0 0 326.70 358.17
  L 326.64 358.17
  A 7.73 7.66 89.4 0 0 319.06 365.98
  L 319.06 366.06
  A 0.17 0.17 0.0 0 0 319.23 366.23"
/>
<path stroke="#b5aeff" vector-effect="non-scaling-stroke" d="
  M 439.68 370.59
  C 435.79 370.44 424.35 370.33 426.93 377.33
  C 428.39 381.26 432.85 381.53 436.30 380.01
  Q 442.05 377.46 440.39 371.15
  Q 440.24 370.61 439.68 370.59"
/>
<path stroke="#b5aeff" vector-effect="non-scaling-stroke" d="
  M 507.81 380.08
  Q 513.87 377.65 512.22 371.22
  Q 512.10 370.75 511.61 370.72
  C 508.21 370.46 503.47 370.34 500.63 372.10
  C 498.22 373.58 497.72 376.67 499.49 378.78
  C 501.58 381.26 504.92 381.24 507.81 380.08"
/>
<path stroke="#b5aeff" vector-effect="non-scaling-stroke" d="
  M 642.39 366.26
  L 657.45 366.10
  A 0.17 0.17 0.0 0 0 657.62 365.93
  L 657.62 365.86
  A 7.78 7.68 89.4 0 0 649.86 358.16
  L 649.82 358.16
  A 7.78 7.68 89.4 0 0 642.22 366.02
  L 642.22 366.09
  A 0.17 0.17 0.0 0 0 642.39 366.26"
/>
<path stroke="#b5aeff" vector-effect="non-scaling-stroke" d="
  M 691.29 370.70
  C 688.20 370.36 677.95 370.22 677.98 375.26
  Q 678.00 381.29 684.53 380.66
  Q 693.28 379.83 691.91 371.28
  Q 691.82 370.76 691.29 370.70"
/>
<path stroke="#b5aeff" vector-effect="non-scaling-stroke" d="
  M 786.00 366.23
  L 801.05 366.09
  A 0.17 0.17 0.0 0 0 801.22 365.92
  L 801.22 365.87
  A 7.78 7.68 89.5 0 0 793.48 358.16
  L 793.44 358.16
  A 7.78 7.68 89.5 0 0 785.82 366.01
  L 785.82 366.06
  A 0.17 0.17 0.0 0 0 786.00 366.23"
/>
</g>
<path fill="#6c5eff" d="
  M 0.00 0.00
  L 1080.00 0.00
  L 1080.00 720.00
  L 0.00 720.00
  L 0.00 0.00
  Z
  M 239.43 366.71
  C 228.94 383.64 248.91 401.96 264.34 389.67
  C 271.36 384.08 271.52 375.98 268.23 367.87
  C 265.02 359.96 268.79 350.14 266.00 342.10
  C 261.25 328.42 241.06 331.63 240.36 346.39
  Q 239.93 355.42 239.83 364.50
  Q 239.81 366.10 239.43 366.71
  Z
  M 391.27 355.96
  Q 391.79 349.33 391.73 342.49
  C 391.70 339.16 387.41 340.08 385.46 340.22
  A 0.73 0.72 87.9 0 0 384.79 340.95
  L 384.74 384.97
  Q 384.74 385.57 385.34 385.58
  L 390.97 385.65
  A 0.72 0.71 0.0 0 0 391.69 384.94
  L 391.63 362.78
  A 1.65 1.65 0.0 0 1 392.01 361.70
  C 396.23 356.53 405.51 356.71 405.58 365.27
  Q 405.70 380.19 405.63 384.87
  Q 405.62 385.62 406.37 385.62
  L 411.54 385.60
  Q 412.15 385.59 412.17 384.98
  Q 412.43 370.50 412.01 363.01
  C 411.39 352.01 399.00 350.18 391.85 356.26
  A 0.36 0.35 72.0 0 1 391.27 355.96
  Z
  M 750.45 356.00
  L 750.65 341.40
  Q 750.67 340.13 749.40 340.13
  L 744.66 340.12
  A 0.72 0.72 0.0 0 0 743.94 340.84
  L 743.88 384.75
  Q 743.88 385.51 744.51 385.54
  L 749.61 385.75
  A 0.97 0.97 0.0 0 0 750.63 384.77
  Q 750.55 374.10 750.70 363.25
  C 750.78 357.54 764.71 355.23 764.90 365.26
  Q 765.08 374.87 764.80 384.55
  A 1.12 1.12 0.0 0 0 765.94 385.70
  L 770.60 385.61
  Q 771.26 385.60 771.26 384.93
  Q 771.32 367.52 770.99 362.26
  C 770.34 351.72 757.64 350.58 751.00 356.26
  A 0.33 0.33 0.0 0 1 750.45 356.00
  Z
  M 607.26 367.98
  Q 606.92 372.54 606.40 367.99
  L 603.49 342.89
  Q 603.41 342.23 602.74 342.20
  L 598.55 341.97
  A 0.72 0.72 0.0 0 0 597.80 342.73
  C 598.64 356.83 600.69 370.85 602.39 384.88
  Q 602.47 385.54 603.13 385.55
  L 608.53 385.68
  Q 609.22 385.70 609.34 385.01
  Q 611.18 374.52 612.74 364.00
  Q 613.26 360.45 614.30 356.99
  Q 614.63 355.89 614.85 357.02
  C 615.16 358.69 614.90 360.73 615.14 362.15
  Q 616.98 373.31 618.73 384.55
  Q 618.81 385.09 619.33 385.27
  Q 622.21 386.25 625.15 385.49
  Q 625.76 385.33 625.84 384.70
  L 630.83 342.88
  Q 630.93 342.07 630.11 342.08
  L 625.17 342.14
  A 0.65 0.64 -88.0 0 0 624.54 342.73
  L 621.88 370.25
  A 0.12 0.12 0.0 0 1 621.64 370.25
  Q 619.98 357.89 617.42 345.59
  C 617.00 343.59 617.05 342.41 614.98 342.02
  Q 611.23 341.32 610.84 344.46
  C 609.78 352.87 607.80 360.61 607.26 367.98
  Z
  M 299.68 362.25
  C 301.51 361.29 303.16 360.22 303.88 358.17
  C 306.41 350.98 302.93 345.18 295.94 343.24
  C 290.24 341.66 283.44 342.17 277.57 342.22
  A 0.53 0.52 90.0 0 0 277.05 342.75
  L 277.01 384.54
  Q 277.00 385.71 278.17 385.72
  C 289.63 385.81 306.06 388.36 305.83 371.56
  Q 305.79 368.88 303.41 366.13
  C 302.44 365.01 300.83 364.13 299.59 363.04
  Q 299.06 362.58 299.68 362.25
  Z
  M 714.81 353.45
  L 708.44 353.38
  Q 707.82 353.38 707.41 353.84
  C 706.50 354.87 706.23 357.10 707.65 357.91
  C 709.21 358.79 712.93 358.04 714.92 358.18
  Q 715.47 358.23 715.46 358.78
  Q 715.25 368.03 715.63 377.24
  C 716.06 387.56 726.87 387.24 734.42 385.04
  Q 734.86 384.92 734.94 384.47
  Q 735.35 382.13 734.00 380.28
  A 0.91 0.91 0.0 0 0 733.03 379.94
  C 727.14 381.49 722.23 382.50 722.03 374.45
  Q 721.83 366.65 721.91 358.77
  Q 721.92 358.21 722.48 358.21
  L 732.38 358.21
  Q 734.23 358.21 734.04 356.37
  L 733.83 354.29
  A 0.94 0.93 -1.7 0 0 732.93 353.45
  L 722.67 353.16
  Q 721.73 353.14 721.75 352.20
  C 721.83 348.28 722.37 345.22 717.09 345.61
  Q 715.64 345.72 715.58 347.43
  Q 715.45 351.16 715.37 352.92
  A 0.56 0.56 0.0 0 1 714.81 353.45
  Z
  M 319.24 371.63
  L 339.55 371.69
  A 1.46 1.46 0.0 0 0 341.02 370.26
  C 341.18 362.30 338.78 354.62 329.98 353.11
  Q 323.70 352.03 319.06 355.06
  C 309.39 361.38 309.02 380.02 320.24 384.81
  Q 331.04 389.43 339.93 381.43
  A 0.98 0.96 66.7 0 0 340.24 380.63
  Q 340.00 377.63 337.01 377.26
  A 1.16 1.16 0.0 0 0 336.19 377.46
  C 334.22 378.86 332.29 380.56 329.87 380.86
  Q 321.03 381.93 318.46 372.65
  A 0.80 0.80 0.0 0 1 319.24 371.63
  Z
  M 359.57 365.67
  C 356.47 364.89 355.11 361.14 358.40 359.34
  Q 364.95 355.75 369.07 361.37
  C 370.67 363.56 372.65 364.57 375.13 363.48
  Q 376.78 362.74 376.11 361.07
  Q 374.11 356.04 370.01 354.13
  C 363.35 351.04 348.46 353.28 350.22 363.70
  C 351.42 370.79 361.32 371.69 366.69 373.34
  C 370.08 374.39 371.62 378.18 367.78 379.98
  Q 359.49 383.87 355.07 375.87
  Q 354.74 375.28 354.08 375.28
  L 350.13 375.26
  A 1.40 1.40 0.0 0 0 348.78 377.07
  Q 350.78 383.59 357.25 385.56
  C 364.35 387.73 378.82 385.72 376.16 374.54
  C 374.67 368.28 365.73 367.21 359.57 365.67
  Z
  M 440.00 365.61
  C 434.31 366.15 427.01 364.96 422.63 369.78
  C 418.19 374.67 420.00 383.62 426.73 385.58
  Q 433.47 387.54 439.95 384.00
  Q 440.43 383.74 440.83 384.10
  Q 443.73 386.67 447.59 385.37
  Q 448.12 385.20 448.08 384.64
  C 447.93 381.93 446.99 379.33 447.01 376.79
  C 447.06 371.95 447.78 363.41 446.22 358.98
  C 444.10 352.98 434.67 351.94 429.18 353.32
  Q 422.76 354.93 421.02 361.06
  A 1.86 1.85 -76.1 0 0 422.42 363.38
  Q 424.39 363.80 426.20 363.04
  Q 426.71 362.83 427.00 362.35
  Q 431.37 355.21 438.26 359.27
  C 440.35 360.50 440.84 362.72 440.66 364.94
  Q 440.61 365.55 440.00 365.61
  Z
  M 467.47 356.76
  L 467.52 354.37
  A 0.88 0.88 0.0 0 0 466.67 353.47
  L 462.01 353.30
  Q 461.29 353.27 461.28 354.00
  L 461.20 384.90
  Q 461.20 385.61 461.90 385.61
  L 466.98 385.61
  A 0.80 0.80 0.0 0 0 467.78 384.80
  Q 467.70 376.79 467.77 368.76
  C 467.86 358.29 474.66 359.03 482.73 359.55
  A 0.81 0.81 0.0 0 0 483.59 358.82
  L 484.08 354.44
  Q 484.14 353.88 483.61 353.70
  Q 474.53 350.68 467.99 356.98
  A 0.31 0.30 -21.9 0 1 467.47 356.76
  Z
  M 512.61 384.22
  Q 515.64 386.55 519.43 385.45
  Q 519.95 385.30 519.87 384.76
  Q 518.48 376.42 518.62 367.99
  C 518.75 360.66 518.76 355.57 511.30 353.49
  C 504.81 351.68 493.14 353.32 492.86 362.19
  A 0.78 0.77 -76.1 0 0 493.30 362.92
  Q 495.75 364.12 498.21 362.95
  Q 498.62 362.75 498.85 362.36
  Q 502.74 355.70 509.41 358.86
  C 511.76 359.97 512.55 361.88 512.44 364.36
  Q 512.38 365.87 510.87 365.78
  Q 505.38 365.45 500.27 366.51
  C 489.54 368.75 488.85 383.94 500.48 385.98
  Q 506.22 386.98 511.62 384.13
  Q 512.14 383.86 512.61 384.22
  Z
  M 642.54 371.65
  L 662.56 371.67
  A 1.67 1.66 0.3 0 0 664.23 370.03
  Q 664.29 365.58 662.84 361.33
  C 658.98 350.02 643.68 350.31 637.81 359.69
  C 631.97 369.01 634.71 383.85 647.52 385.99
  Q 656.34 387.47 662.52 381.82
  C 664.30 380.19 662.29 377.70 660.61 377.22
  A 1.09 1.08 34.5 0 0 659.66 377.39
  C 657.45 378.99 654.98 380.81 652.22 380.96
  Q 644.46 381.40 641.58 372.99
  A 1.01 1.01 0.0 0 1 642.54 371.65
  Z
  M 691.92 364.70
  A 1.45 1.44 -80.7 0 1 690.39 365.81
  C 683.56 365.18 673.26 366.01 671.76 374.48
  C 669.60 386.65 683.50 388.28 691.22 384.01
  Q 691.68 383.76 692.08 384.10
  Q 695.10 386.65 699.04 385.42
  Q 699.50 385.28 699.42 384.79
  Q 697.67 374.43 698.20 363.74
  C 698.90 349.32 674.31 349.22 672.30 361.87
  A 0.95 0.94 -71.0 0 0 672.77 362.84
  Q 675.19 364.17 677.73 363.01
  A 1.49 1.44 -87.0 0 0 678.42 362.37
  Q 682.12 355.81 688.62 358.71
  C 691.04 359.80 692.53 362.09 691.92 364.70
  Z
  M 785.79 371.68
  L 806.34 371.65
  A 1.46 1.45 -88.8 0 0 807.79 370.25
  C 808.95 343.39 773.56 349.42 779.18 374.65
  C 783.28 393.03 809.86 385.44 806.50 378.98
  C 804.44 375.00 800.31 379.87 797.67 380.65
  C 791.80 382.40 785.92 378.29 785.24 372.29
  Q 785.18 371.68 785.79 371.68
  Z
  M 826.58 356.77
  L 826.46 354.28
  A 0.89 0.89 0.0 0 0 825.62 353.44
  L 821.65 353.24
  Q 820.32 353.18 820.32 354.51
  L 820.23 384.74
  Q 820.23 385.59 821.08 385.59
  L 825.93 385.60
  A 0.84 0.84 0.0 0 0 826.77 384.76
  Q 826.74 378.92 826.77 373.09
  Q 826.81 365.94 827.07 364.94
  C 828.77 358.57 835.86 358.95 841.20 359.49
  Q 842.24 359.60 842.57 358.61
  Q 843.32 356.39 842.75 354.18
  Q 842.63 353.70 842.16 353.56
  Q 833.36 350.96 827.03 356.96
  A 0.27 0.27 0.0 0 1 826.58 356.77
  Z
  M 545.18 361.51
  C 545.20 356.82 551.78 357.22 551.74 361.51
  Q 551.65 373.13 551.91 384.82
  A 0.72 0.71 0.9 0 0 552.60 385.52
  L 556.54 385.69
  A 0.78 0.78 0.0 0 0 557.35 384.96
  Q 558.08 373.98 557.68 363.12
  C 557.50 358.02 557.12 352.86 550.47 352.88
  Q 547.14 352.90 544.22 354.72
  A 0.91 0.90 47.0 0 1 543.22 354.68
  Q 538.75 351.45 533.57 353.98
  A 1.04 1.01 -51.5 0 1 532.95 354.06
  L 528.11 353.17
  A 1.77 1.76 -84.7 0 0 526.03 354.90
  L 526.00 384.74
  Q 526.00 385.46 526.72 385.51
  L 531.79 385.83
  A 0.63 0.63 0.0 0 0 532.46 385.20
  Q 532.41 372.98 532.59 360.75
  C 532.63 357.94 536.24 357.71 537.83 358.94
  Q 538.59 359.53 538.60 361.29
  Q 538.62 373.00 538.60 384.76
  Q 538.59 385.47 539.31 385.50
  L 544.57 385.71
  Q 545.20 385.74 545.20 385.10
  Q 545.12 373.25 545.18 361.51
  Z
  M 589.1688 365.5007
  A 1.27 1.27 0.0 0 0 587.9077 364.2219
  L 567.3282 364.0782
  A 1.27 1.27 0.0 0 0 566.0494 365.3393
  L 566.0312 367.9393
  A 1.27 1.27 0.0 0 0 567.2923 369.2181
  L 587.8718 369.3618
  A 1.27 1.27 0.0 0 0 589.1506 368.1007
  L 589.1688 365.5007
  Z"
/>
<path fill="#fefeff" d="
  M 239.43 366.71
  Q 239.81 366.10 239.83 364.50
  Q 239.93 355.42 240.36 346.39
  C 241.06 331.63 261.25 328.42 266.00 342.10
  C 268.79 350.14 265.02 359.96 268.23 367.87
  C 271.52 375.98 271.36 384.08 264.34 389.67
  C 248.91 401.96 228.94 383.64 239.43 366.71
  Z
  M 260.49 370.81
  Q 258.92 368.30 258.92 367.50
  Q 258.87 358.00 258.86 348.50
  C 258.85 338.77 247.88 339.25 247.96 348.26
  Q 248.03 357.01 247.95 365.79
  C 247.92 370.08 244.55 372.99 244.67 377.31
  C 244.93 386.45 258.11 388.74 261.68 379.96
  Q 263.47 375.56 260.49 370.81
  Z"
/>
<path fill="#fefeff" d="
  M 391.27 355.96
  A 0.36 0.35 72.0 0 0 391.85 356.26
  C 399.00 350.18 411.39 352.01 412.01 363.01
  Q 412.43 370.50 412.17 384.98
  Q 412.15 385.59 411.54 385.60
  L 406.37 385.62
  Q 405.62 385.62 405.63 384.87
  Q 405.70 380.19 405.58 365.27
  C 405.51 356.71 396.23 356.53 392.01 361.70
  A 1.65 1.65 0.0 0 0 391.63 362.78
  L 391.69 384.94
  A 0.72 0.71 -0.0 0 1 390.97 385.65
  L 385.34 385.58
  Q 384.74 385.57 384.74 384.97
  L 384.79 340.95
  A 0.73 0.72 87.9 0 1 385.46 340.22
  C 387.41 340.08 391.70 339.16 391.73 342.49
  Q 391.79 349.33 391.27 355.96
  Z"
/>
<path fill="#fefeff" d="
  M 750.45 356.00
  A 0.33 0.33 0.0 0 0 751.00 356.26
  C 757.64 350.58 770.34 351.72 770.99 362.26
  Q 771.32 367.52 771.26 384.93
  Q 771.26 385.60 770.60 385.61
  L 765.94 385.70
  A 1.12 1.12 0.0 0 1 764.80 384.55
  Q 765.08 374.87 764.90 365.26
  C 764.71 355.23 750.78 357.54 750.70 363.25
  Q 750.55 374.10 750.63 384.77
  A 0.97 0.97 0.0 0 1 749.61 385.75
  L 744.51 385.54
  Q 743.88 385.51 743.88 384.75
  L 743.94 340.84
  A 0.72 0.72 0.0 0 1 744.66 340.12
  L 749.40 340.13
  Q 750.67 340.13 750.65 341.40
  L 750.45 356.00
  Z"
/>
<path fill="#6c5eff" d="
  M 260.49 370.81
  Q 263.47 375.56 261.68 379.96
  C 258.11 388.74 244.93 386.45 244.67 377.31
  C 244.55 372.99 247.92 370.08 247.95 365.79
  Q 248.03 357.01 247.96 348.26
  C 247.88 339.25 258.85 338.77 258.86 348.50
  Q 258.87 358.00 258.92 367.50
  Q 258.92 368.30 260.49 370.81
  Z
  M 251.36 370.40
  C 249.38 372.44 247.38 374.38 247.66 377.36
  C 248.03 381.29 251.74 383.00 255.29 382.12
  C 261.24 380.64 259.88 374.13 255.90 370.61
  A 1.11 1.11 0.0 0 1 255.53 369.76
  Q 255.58 366.70 255.43 358.75
  C 255.40 357.40 255.20 355.93 253.58 355.76
  Q 252.10 355.61 251.68 357.25
  Q 250.74 360.94 251.68 369.45
  Q 251.74 370.00 251.36 370.40
  Z"
/>
<path fill="#fefeff" d="
  M 607.26 367.98
  C 607.80 360.61 609.78 352.87 610.84 344.46
  Q 611.23 341.32 614.98 342.02
  C 617.05 342.41 617.00 343.59 617.42 345.59
  Q 619.98 357.89 621.64 370.25
  A 0.12 0.12 0.0 0 0 621.88 370.25
  L 624.54 342.73
  A 0.65 0.64 -88.0 0 1 625.17 342.14
  L 630.11 342.08
  Q 630.93 342.07 630.83 342.88
  L 625.84 384.70
  Q 625.76 385.33 625.15 385.49
  Q 622.21 386.25 619.33 385.27
  Q 618.81 385.09 618.73 384.55
  Q 616.98 373.31 615.14 362.15
  C 614.90 360.73 615.16 358.69 614.85 357.02
  Q 614.63 355.89 614.30 356.99
  Q 613.26 360.45 612.74 364.00
  Q 611.18 374.52 609.34 385.01
  Q 609.22 385.70 608.53 385.68
  L 603.13 385.55
  Q 602.47 385.54 602.39 384.88
  C 600.69 370.85 598.64 356.83 597.80 342.73
  A 0.72 0.72 0.0 0 1 598.55 341.97
  L 602.74 342.20
  Q 603.41 342.23 603.49 342.89
  L 606.40 367.99
  Q 606.92 372.54 607.26 367.98
  Z"
/>
<path fill="#fefeff" d="
  M 299.59 363.04
  C 300.83 364.13 302.44 365.01 303.41 366.13
  Q 305.79 368.88 305.83 371.56
  C 306.06 388.36 289.63 385.81 278.17 385.72
  Q 277.00 385.71 277.01 384.54
  L 277.05 342.75
  A 0.53 0.52 90.0 0 1 277.57 342.22
  C 283.44 342.17 290.24 341.66 295.94 343.24
  C 302.93 345.18 306.41 350.98 303.88 358.17
  C 303.16 360.22 301.51 361.29 299.68 362.25
  Q 299.06 362.58 299.59 363.04
  Z
  M 283.22 348.38
  L 283.28 360.14
  A 0.58 0.58 0.0 0 0 283.86 360.72
  L 289.75 360.69
  A 8.51 6.26 -0.3 0 0 298.23 354.38
  L 298.23 353.98
  A 8.51 6.26 -0.3 0 0 289.69 347.77
  L 283.80 347.80
  A 0.58 0.58 0.0 0 0 283.22 348.38
  Z
  M 283.24 366.25
  L 283.28 380.01
  A 0.50 0.50 0.0 0 0 283.79 380.51
  L 290.47 380.48
  A 8.82 6.89 -0.2 0 0 299.26 373.56
  L 299.26 372.58
  A 8.82 6.89 -0.2 0 0 290.41 365.72
  L 283.73 365.75
  A 0.50 0.50 0.0 0 0 283.24 366.25
  Z"
/>
<path fill="#fefeff" d="
  M 715.37 352.92
  Q 715.45 351.16 715.58 347.43
  Q 715.64 345.72 717.09 345.61
  C 722.37 345.22 721.83 348.28 721.75 352.20
  Q 721.73 353.14 722.67 353.16
  L 732.93 353.45
  A 0.94 0.93 -1.7 0 1 733.83 354.29
  L 734.04 356.37
  Q 734.23 358.21 732.38 358.21
  L 722.48 358.21
  Q 721.92 358.21 721.91 358.77
  Q 721.83 366.65 722.03 374.45
  C 722.23 382.50 727.14 381.49 733.03 379.94
  A 0.91 0.91 0.0 0 1 734.00 380.28
  Q 735.35 382.13 734.94 384.47
  Q 734.86 384.92 734.42 385.04
  C 726.87 387.24 716.06 387.56 715.63 377.24
  Q 715.25 368.03 715.46 358.78
  Q 715.47 358.23 714.92 358.18
  C 712.93 358.04 709.21 358.79 707.65 357.91
  C 706.23 357.10 706.50 354.87 707.41 353.84
  Q 707.82 353.38 708.44 353.38
  L 714.81 353.45
  A 0.56 0.56 0.0 0 0 715.37 352.92
  Z"
/>
<path fill="#6c5eff" d="
  M 283.22 348.38
  A 0.58 0.58 0.0 0 1 283.80 347.80
  L 289.69 347.77
  A 8.51 6.26 -0.3 0 1 298.23 353.98
  L 298.23 354.38
  A 8.51 6.26 -0.3 0 1 289.75 360.69
  L 283.86 360.72
  A 0.58 0.58 0.0 0 1 283.28 360.14
  L 283.22 348.38
  Z"
/>
<path fill="#fefeff" d="
  M 319.24 371.63
  A 0.80 0.80 0.0 0 0 318.46 372.65
  Q 321.03 381.93 329.87 380.86
  C 332.29 380.56 334.22 378.86 336.19 377.46
  A 1.16 1.16 0.0 0 1 337.01 377.26
  Q 340.00 377.63 340.24 380.63
  A 0.98 0.96 66.7 0 1 339.93 381.43
  Q 331.04 389.43 320.24 384.81
  C 309.02 380.02 309.39 361.38 319.06 355.06
  Q 323.70 352.03 329.98 353.11
  C 338.78 354.62 341.18 362.30 341.02 370.26
  A 1.46 1.46 0.0 0 1 339.55 371.69
  L 319.24 371.63
  Z
  M 319.23 366.23
  L 334.27 366.07
  A 0.17 0.17 0.0 0 0 334.44 365.90
  L 334.44 365.82
  A 7.73 7.66 89.4 0 0 326.70 358.17
  L 326.64 358.17
  A 7.73 7.66 89.4 0 0 319.06 365.98
  L 319.06 366.06
  A 0.17 0.17 0.0 0 0 319.23 366.23
  Z"
/>
<path fill="#fefeff" d="
  M 359.57 365.67
  C 365.73 367.21 374.67 368.28 376.16 374.54
  C 378.82 385.72 364.35 387.73 357.25 385.56
  Q 350.78 383.59 348.78 377.07
  A 1.40 1.40 0.0 0 1 350.13 375.26
  L 354.08 375.28
  Q 354.74 375.28 355.07 375.87
  Q 359.49 383.87 367.78 379.98
  C 371.62 378.18 370.08 374.39 366.69 373.34
  C 361.32 371.69 351.42 370.79 350.22 363.70
  C 348.46 353.28 363.35 351.04 370.01 354.13
  Q 374.11 356.04 376.11 361.07
  Q 376.78 362.74 375.13 363.48
  C 372.65 364.57 370.67 363.56 369.07 361.37
  Q 364.95 355.75 358.40 359.34
  C 355.11 361.14 356.47 364.89 359.57 365.67
  Z"
/>
<path fill="#fefeff" d="
  M 440.66 364.94
  C 440.84 362.72 440.35 360.50 438.26 359.27
  Q 431.37 355.21 427.00 362.35
  Q 426.71 362.83 426.20 363.04
  Q 424.39 363.80 422.42 363.38
  A 1.86 1.85 -76.1 0 1 421.02 361.06
  Q 422.76 354.93 429.18 353.32
  C 434.67 351.94 444.10 352.98 446.22 358.98
  C 447.78 363.41 447.06 371.95 447.01 376.79
  C 446.99 379.33 447.93 381.93 448.08 384.64
  Q 448.12 385.20 447.59 385.37
  Q 443.73 386.67 440.83 384.10
  Q 440.43 383.74 439.95 384.00
  Q 433.47 387.54 426.73 385.58
  C 420.00 383.62 418.19 374.67 422.63 369.78
  C 427.01 364.96 434.31 366.15 440.00 365.61
  Q 440.61 365.55 440.66 364.94
  Z
  M 439.68 370.59
  C 435.79 370.44 424.35 370.33 426.93 377.33
  C 428.39 381.26 432.85 381.53 436.30 380.01
  Q 442.05 377.46 440.39 371.15
  Q 440.24 370.61 439.68 370.59
  Z"
/>
<path fill="#fefeff" d="
  M 467.47 356.76
  A 0.31 0.30 -21.9 0 0 467.99 356.98
  Q 474.53 350.68 483.61 353.70
  Q 484.14 353.88 484.08 354.44
  L 483.59 358.82
  A 0.81 0.81 0.0 0 1 482.73 359.55
  C 474.66 359.03 467.86 358.29 467.77 368.76
  Q 467.70 376.79 467.78 384.80
  A 0.80 0.80 0.0 0 1 466.98 385.61
  L 461.90 385.61
  Q 461.20 385.61 461.20 384.90
  L 461.28 354.00
  Q 461.29 353.27 462.01 353.30
  L 466.67 353.47
  A 0.88 0.88 0.0 0 1 467.52 354.37
  L 467.47 356.76
  Z"
/>
<path fill="#fefeff" d="
  M 511.62 384.13
  Q 506.22 386.98 500.48 385.98
  C 488.85 383.94 489.54 368.75 500.27 366.51
  Q 505.38 365.45 510.87 365.78
  Q 512.38 365.87 512.44 364.36
  C 512.55 361.88 511.76 359.97 509.41 358.86
  Q 502.74 355.70 498.85 362.36
  Q 498.62 362.75 498.21 362.95
  Q 495.75 364.12 493.30 362.92
  A 0.78 0.77 -76.1 0 1 492.86 362.19
  C 493.14 353.32 504.81 351.68 511.30 353.49
  C 518.76 355.57 518.75 360.66 518.62 367.99
  Q 518.48 376.42 519.87 384.76
  Q 519.95 385.30 519.43 385.45
  Q 515.64 386.55 512.61 384.22
  Q 512.14 383.86 511.62 384.13
  Z
  M 507.81 380.08
  Q 513.87 377.65 512.22 371.22
  Q 512.10 370.75 511.61 370.72
  C 508.21 370.46 503.47 370.34 500.63 372.10
  C 498.22 373.58 497.72 376.67 499.49 378.78
  C 501.58 381.26 504.92 381.24 507.81 380.08
  Z"
/>
<path fill="#fefeff" d="
  M 642.54 371.65
  A 1.01 1.01 0.0 0 0 641.58 372.99
  Q 644.46 381.40 652.22 380.96
  C 654.98 380.81 657.45 378.99 659.66 377.39
  A 1.09 1.08 34.5 0 1 660.61 377.22
  C 662.29 377.70 664.30 380.19 662.52 381.82
  Q 656.34 387.47 647.52 385.99
  C 634.71 383.85 631.97 369.01 637.81 359.69
  C 643.68 350.31 658.98 350.02 662.84 361.33
  Q 664.29 365.58 664.23 370.03
  A 1.67 1.66 0.3 0 1 662.56 371.67
  L 642.54 371.65
  Z
  M 642.39 366.26
  L 657.45 366.10
  A 0.17 0.17 0.0 0 0 657.62 365.93
  L 657.62 365.86
  A 7.78 7.68 89.4 0 0 649.86 358.16
  L 649.82 358.16
  A 7.78 7.68 89.4 0 0 642.22 366.02
  L 642.22 366.09
  A 0.17 0.17 0.0 0 0 642.39 366.26
  Z"
/>
<path fill="#fefeff" d="
  M 691.92 364.70
  C 692.53 362.09 691.04 359.80 688.62 358.71
  Q 682.12 355.81 678.42 362.37
  A 1.49 1.44 -87.0 0 1 677.73 363.01
  Q 675.19 364.17 672.77 362.84
  A 0.95 0.94 -71.0 0 1 672.30 361.87
  C 674.31 349.22 698.90 349.32 698.20 363.74
  Q 697.67 374.43 699.42 384.79
  Q 699.50 385.28 699.04 385.42
  Q 695.10 386.65 692.08 384.10
  Q 691.68 383.76 691.22 384.01
  C 683.50 388.28 669.60 386.65 671.76 374.48
  C 673.26 366.01 683.56 365.18 690.39 365.81
  A 1.45 1.44 -80.7 0 0 691.92 364.70
  Z
  M 691.29 370.70
  C 688.20 370.36 677.95 370.22 677.98 375.26
  Q 678.00 381.29 684.53 380.66
  Q 693.28 379.83 691.91 371.28
  Q 691.82 370.76 691.29 370.70
  Z"
/>
<path fill="#fefeff" d="
  M 785.24 372.29
  C 785.92 378.29 791.80 382.40 797.67 380.65
  C 800.31 379.87 804.44 375.00 806.50 378.98
  C 809.86 385.44 783.28 393.03 779.18 374.65
  C 773.56 349.42 808.95 343.39 807.79 370.25
  A 1.46 1.45 -88.8 0 1 806.34 371.65
  L 785.79 371.68
  Q 785.18 371.68 785.24 372.29
  Z
  M 786.00 366.23
  L 801.05 366.09
  A 0.17 0.17 0.0 0 0 801.22 365.92
  L 801.22 365.87
  A 7.78 7.68 89.5 0 0 793.48 358.16
  L 793.44 358.16
  A 7.78 7.68 89.5 0 0 785.82 366.01
  L 785.82 366.06
  A 0.17 0.17 0.0 0 0 786.00 366.23
  Z"
/>
<path fill="#fefeff" d="
  M 826.58 356.77
  A 0.27 0.27 0.0 0 0 827.03 356.96
  Q 833.36 350.96 842.16 353.56
  Q 842.63 353.70 842.75 354.18
  Q 843.32 356.39 842.57 358.61
  Q 842.24 359.60 841.20 359.49
  C 835.86 358.95 828.77 358.57 827.07 364.94
  Q 826.81 365.94 826.77 373.09
  Q 826.74 378.92 826.77 384.76
  A 0.84 0.84 0.0 0 1 825.93 385.60
  L 821.08 385.59
  Q 820.23 385.59 820.23 384.74
  L 820.32 354.51
  Q 820.32 353.18 821.65 353.24
  L 825.62 353.44
  A 0.89 0.89 0.0 0 1 826.46 354.28
  L 826.58 356.77
  Z"
/>
<path fill="#fefeff" d="
  M 551.74 361.51
  C 551.78 357.22 545.20 356.82 545.18 361.51
  Q 545.12 373.25 545.20 385.10
  Q 545.20 385.74 544.57 385.71
  L 539.31 385.50
  Q 538.59 385.47 538.60 384.76
  Q 538.62 373.00 538.60 361.29
  Q 538.59 359.53 537.83 358.94
  C 536.24 357.71 532.63 357.94 532.59 360.75
  Q 532.41 372.98 532.46 385.20
  A 0.63 0.63 0.0 0 1 531.79 385.83
  L 526.72 385.51
  Q 526.00 385.46 526.00 384.74
  L 526.03 354.90
  A 1.77 1.76 -84.7 0 1 528.11 353.17
  L 532.95 354.06
  A 1.04 1.01 -51.5 0 0 533.57 353.98
  Q 538.75 351.45 543.22 354.68
  A 0.91 0.90 47.0 0 0 544.22 354.72
  Q 547.14 352.90 550.47 352.88
  C 557.12 352.86 557.50 358.02 557.68 363.12
  Q 558.08 373.98 557.35 384.96
  A 0.78 0.78 0.0 0 1 556.54 385.69
  L 552.60 385.52
  A 0.72 0.71 0.9 0 1 551.91 384.82
  Q 551.65 373.13 551.74 361.51
  Z"
/>
<path fill="#fefeff" d="
  M 251.68 369.45
  Q 250.74 360.94 251.68 357.25
  Q 252.10 355.61 253.58 355.76
  C 255.20 355.93 255.40 357.40 255.43 358.75
  Q 255.58 366.70 255.53 369.76
  A 1.11 1.11 0.0 0 0 255.90 370.61
  C 259.88 374.13 261.24 380.64 255.29 382.12
  C 251.74 383.00 248.03 381.29 247.66 377.36
  C 247.38 374.38 249.38 372.44 251.36 370.40
  Q 251.74 370.00 251.68 369.45
  Z"
/>
<path fill="#6c5eff" d="
  M 319.23 366.23
  A 0.17 0.17 0.0 0 1 319.06 366.06
  L 319.06 365.98
  A 7.73 7.66 89.4 0 1 326.64 358.17
  L 326.70 358.17
  A 7.73 7.66 89.4 0 1 334.44 365.82
  L 334.44 365.90
  A 0.17 0.17 0.0 0 1 334.27 366.07
  L 319.23 366.23
  Z"
/>
<path fill="#6c5eff" d="
  M 642.39 366.26
  A 0.17 0.17 0.0 0 1 642.22 366.09
  L 642.22 366.02
  A 7.78 7.68 89.4 0 1 649.82 358.16
  L 649.86 358.16
  A 7.78 7.68 89.4 0 1 657.62 365.86
  L 657.62 365.93
  A 0.17 0.17 0.0 0 1 657.45 366.10
  L 642.39 366.26
  Z"
/>
<path fill="#6c5eff" d="
  M 786.00 366.23
  A 0.17 0.17 0.0 0 1 785.82 366.06
  L 785.82 366.01
  A 7.78 7.68 89.5 0 1 793.44 358.16
  L 793.48 358.16
  A 7.78 7.68 89.5 0 1 801.22 365.87
  L 801.22 365.92
  A 0.17 0.17 0.0 0 1 801.05 366.09
  L 786.00 366.23
  Z"
/>
<rect fill="#fefeff" x="-11.56" y="-2.57" transform="translate(577.60,366.72) rotate(0.4)" width="23.12" height="5.14" rx="1.27"/>
<path fill="#6c5eff" d="
  M 283.24 366.25
  A 0.50 0.50 0.0 0 1 283.73 365.75
  L 290.41 365.72
  A 8.82 6.89 -0.2 0 1 299.26 372.58
  L 299.26 373.56
  A 8.82 6.89 -0.2 0 1 290.47 380.48
  L 283.79 380.51
  A 0.50 0.50 0.0 0 1 283.28 380.01
  L 283.24 366.25
  Z"
/>
<path fill="#6c5eff" d="
  M 426.93 377.33
  C 424.35 370.33 435.79 370.44 439.68 370.59
  Q 440.24 370.61 440.39 371.15
  Q 442.05 377.46 436.30 380.01
  C 432.85 381.53 428.39 381.26 426.93 377.33
  Z"
/>
<path fill="#6c5eff" d="
  M 677.98 375.26
  C 677.95 370.22 688.20 370.36 691.29 370.70
  Q 691.82 370.76 691.91 371.28
  Q 693.28 379.83 684.53 380.66
  Q 678.00 381.29 677.98 375.26
  Z"
/>
<path fill="#6c5eff" d="
  M 507.81 380.08
  C 504.92 381.24 501.58 381.26 499.49 378.78
  C 497.72 376.67 498.22 373.58 500.63 372.10
  C 503.47 370.34 508.21 370.46 511.61 370.72
  Q 512.10 370.75 512.22 371.22
  Q 513.87 377.65 507.81 380.08
  Z"
/>
</svg>
