<svg width="64" height="64" viewBox="0 0 64 64" fill="none" xmlns="http://www.w3.org/2000/svg">
<circle cx="32" cy="32" r="32" fill="#E0EDFA"/>
<g filter="url(#filter0_d_132_2)">
<path d="M35.7825 6.27427L35.9359 6.35553L36.2144 6.70064L36.3331 6.77824L36.8772 6.99827C37.2905 7.19973 37.6474 7.43346 37.9481 7.69944L38.8574 8.7238C38.8728 8.74092 38.8832 8.76184 38.8878 8.78437C38.8923 8.80691 38.8907 8.83024 38.8831 8.85195C38.8756 8.87366 38.8624 8.89295 38.8449 8.90783C38.8273 8.9227 38.8061 8.93261 38.7835 8.93653C38.7098 8.9487 38.698 8.99405 38.7479 9.07256C38.7625 9.09569 38.7795 9.11669 38.799 9.13556C39.0656 9.39667 39.0035 9.66235 39.1487 9.94537C39.2035 10.0525 39.2561 10.1614 39.3066 10.2722C39.3133 10.2862 39.3246 10.2932 39.3404 10.2932C39.3672 10.2926 39.3824 10.2783 39.3861 10.2503C39.3879 10.2339 39.3967 10.2278 39.4125 10.232C39.4813 10.2515 39.5206 10.306 39.5303 10.3955C39.5912 10.9591 39.6021 11.4956 39.5632 12.0051C39.5285 12.4658 39.5081 12.8097 39.502 13.0367C39.4828 13.7854 39.3231 14.6655 39.4418 15.3256C39.5486 15.9254 39.66 16.5152 39.6746 17.1269C39.6883 17.7094 39.6691 18.2964 39.7284 18.8616C39.7783 19.3436 39.8352 19.8244 39.8992 20.3041C39.9034 20.3333 39.8955 20.3369 39.8754 20.315C39.6679 20.0874 39.5093 19.8317 39.3998 19.5481C39.376 19.4872 39.3596 19.4894 39.3505 19.5545L39.3249 19.7325C39.2829 19.2371 39.2442 18.7386 39.2089 18.2371C39.2016 18.1318 39.1682 17.9747 39.1085 17.766C38.9743 17.2912 39.1624 16.8932 39.135 16.4294C39.1186 16.1433 39.0887 16.1418 39.0455 16.4248C39.0175 16.6086 38.9874 16.8308 38.9551 17.0913C38.8985 17.5505 38.9834 17.9677 39.0464 18.4197C39.1341 19.0396 39.0254 19.5855 39.313 20.1744C39.5641 20.6875 39.8818 21.2216 40.0261 21.7374C40.1186 22.0667 40.1822 22.4024 40.2169 22.7445C40.3246 23.8066 40.3861 24.8513 40.4013 25.8787C40.4025 25.9767 40.4107 25.977 40.4259 25.8796C40.4899 25.4724 40.509 25.0908 40.4762 24.6499C40.4214 23.9079 40.3846 23.1644 40.3657 22.4194C40.3986 22.4347 40.4275 22.4788 40.4524 22.5518C40.454 22.5575 40.4576 22.5625 40.4626 22.5658C40.4675 22.569 40.4735 22.5704 40.4794 22.5696C40.4853 22.5688 40.4907 22.566 40.4946 22.5615C40.4986 22.5571 40.5008 22.5514 40.5008 22.5454C40.5233 22.2965 40.5209 22.0472 40.4935 21.7977C40.4935 21.7965 40.4941 21.7956 40.4953 21.795C40.5684 21.77 40.5687 21.7712 40.4962 21.7986C40.495 21.7992 40.4947 21.8001 40.4953 21.8013C40.7491 22.3674 40.8943 22.9614 40.9308 23.5835C40.9327 23.6127 40.9433 23.6386 40.9628 23.6611C40.9841 23.6854 40.9926 23.7143 40.9883 23.7478C40.981 23.8075 40.9774 23.8391 40.9774 23.8428C40.9993 24.3827 41.03 24.9216 41.0696 25.4597C41.1122 26.0476 41.0964 26.7707 41.0221 27.6289C40.9844 28.069 40.9199 28.4278 40.8286 28.7053C40.7129 29.0583 40.5568 29.3916 40.3602 29.705C40.2001 29.9607 39.9692 30.2382 39.6673 30.5377C39.355 30.8469 39.0817 31.0861 38.8474 31.2553C38.3684 31.5998 37.9789 31.9318 37.6788 32.2513C37.5339 32.4053 37.4405 32.5511 37.3985 32.6887C37.3443 32.8627 37.3352 33.0459 37.3711 33.2383C37.376 33.2644 37.365 33.2775 37.3382 33.2775H37.2962C37.2609 33.2775 37.2427 33.2952 37.2415 33.3305C37.2403 33.3694 37.2527 33.4084 37.2789 33.4473L37.0726 33.2857C37.061 33.2758 37.0462 33.2705 37.0309 33.2708C37.0156 33.271 37.001 33.277 36.9898 33.2873C36.9787 33.2977 36.9717 33.3119 36.9703 33.3271C36.9689 33.3423 36.9731 33.3575 36.9822 33.3697C37.2104 33.7103 37.3729 33.8217 37.8075 33.8755C38.6712 33.9833 39.0747 34.6433 39.89 34.5438C40.1828 34.5079 40.3876 34.518 40.5045 34.574C41.0151 34.8186 41.5267 35.0636 42.0392 35.3089C42.1956 35.3844 42.4427 35.4249 42.7805 35.4303C43.2297 35.4386 43.4817 35.8996 43.8916 35.8777C44.1692 35.8631 44.4437 35.8807 44.7151 35.9306C45.1479 36.0101 45.5405 35.9571 45.9687 36.0913C46.2827 36.1899 46.5989 36.2803 46.9172 36.3625C47.2085 36.4374 47.9653 36.5122 48.3187 36.7615C48.6327 36.9824 48.8957 37.207 49.2572 37.3576C50.2864 37.7843 51.2901 38.2654 52.2682 38.8011C52.3924 38.8692 52.4669 38.9283 52.4919 38.9782C52.6392 39.274 52.8279 39.5315 53.058 39.7506C53.0649 39.7572 53.0733 39.7621 53.0824 39.7651C53.0915 39.7681 53.1012 39.769 53.1107 39.7678C53.1203 39.7665 53.1294 39.7632 53.1375 39.758C53.1456 39.7528 53.1524 39.7459 53.1575 39.7378C53.1611 39.7311 53.1651 39.7232 53.1693 39.714C53.2077 39.872 53.1566 40.0646 53.3172 40.1322C53.3452 40.1438 53.3684 40.1617 53.3866 40.1861C53.5242 40.3687 53.6188 40.5729 53.6706 40.7987C53.7911 41.3203 53.928 41.851 54.0814 42.3909L54.0924 42.5507L54.0631 48.8484L53.9801 50.133C53.8425 50.4294 53.5689 50.5831 53.1593 50.594C52.6742 50.6074 52.2004 50.6157 51.7378 50.6187C51.5132 50.6278 51.3029 50.6111 51.1069 50.5685C50.8245 50.507 50.6373 50.4744 50.5454 50.4708C50.1428 50.4534 49.6772 50.4872 49.3439 50.4872C39.2415 50.4878 29.1388 50.4875 19.0357 50.4863C17.8178 50.4863 16.5478 50.4224 15.3025 50.3895C15.2733 50.3889 15.2465 50.381 15.2222 50.3658C15.1997 50.3524 15.1702 50.346 15.1336 50.3466C14.8719 50.3527 14.6105 50.3612 14.3494 50.3722C14.1777 50.3786 14.0244 50.2964 13.8527 50.2645C13.8326 50.2608 13.8223 50.2486 13.8217 50.2279C13.8211 50.2145 13.8199 50.2021 13.818 50.1905C13.8138 50.1607 13.7982 50.1382 13.7715 50.1229C13.6303 50.0438 13.4702 50.011 13.2912 50.0243L13.0338 49.8116C13.0113 49.7934 13 49.7696 13 49.7404L13.0082 39.0667C13.259 38.9712 13.4757 38.8315 13.6583 38.6477C13.9148 38.3884 14.5539 38.456 14.9027 38.3948C15.8235 38.2341 16.7253 38.0022 17.6078 37.6991C17.9365 37.5859 18.151 37.2134 18.4395 37.008C18.5534 36.927 18.7159 36.8582 18.9271 36.8016C19.4529 36.6619 19.8848 36.3871 20.4024 36.1972C21.0041 35.9754 21.4031 35.6467 21.8924 35.1829C22.3313 34.766 22.6307 34.3095 22.7908 33.8134C22.9582 33.2937 23.1597 32.7565 23.3952 32.202C23.3987 32.1939 23.4003 32.185 23.3999 32.1759C23.3995 32.1669 23.3971 32.1579 23.3928 32.1495C23.3885 32.1411 23.3825 32.1335 23.375 32.1271C23.3676 32.1208 23.3589 32.1158 23.3496 32.1126C23.3362 32.1083 23.3133 32.1378 23.2811 32.2011C23.2969 32.1159 23.2896 32.0599 23.2592 32.0331C23.1167 31.9059 22.9804 31.7687 22.8502 31.6214L22.3279 30.8618C22.135 30.3858 21.9165 29.919 21.6724 29.4613C21.5951 29.3164 21.4795 29.2075 21.3255 29.1344C21.3126 29.1284 21.3011 29.1196 21.2918 29.1086C21.2825 29.0976 21.2756 29.0846 21.2716 29.0705C21.2083 28.8417 21.0981 28.6554 20.9411 28.5118C20.8218 28.3529 20.7494 28.2336 20.7238 28.1539C20.5102 27.4901 20.386 26.5772 20.0619 25.8395C19.8075 25.2588 19.5549 24.6775 19.3041 24.0957C19.0156 23.4246 18.8403 22.7819 18.6714 22.0917C18.5473 21.4855 18.3619 20.9158 18.2716 20.2904C18.1979 19.7821 18.0914 19.2815 17.952 18.7885C17.8844 18.5481 17.8324 18.311 17.7959 18.0773C17.7594 17.8375 17.7168 17.5983 17.6681 17.3597C17.6032 17.0438 17.6389 16.8119 17.6608 16.5015C17.6662 16.4218 17.662 16.3073 17.648 16.1582C17.6182 15.8393 17.6769 15.5398 17.8242 15.2598C17.994 14.9357 18.3811 14.7312 18.6641 14.4756L18.8513 14.3679C18.8921 14.3459 18.9243 14.3173 18.9481 14.282L19.1946 13.8146L19.232 13.6503C19.2551 13.6149 19.2658 13.5882 19.264 13.5699C19.3893 13.4214 19.3912 13.2385 19.2694 13.0212C19.2658 12.821 19.2204 12.6335 19.1334 12.4588C19.106 12.3949 19.0144 12.254 18.8586 12.0361C18.7229 11.8462 18.522 11.4436 18.256 10.8282C18.2792 10.813 18.3081 10.8121 18.3428 10.8255C18.5132 11.4141 18.8129 11.9052 19.2421 12.299C19.2311 12.3283 19.232 12.3471 19.2448 12.3556C19.2941 12.4427 19.3206 12.541 19.3242 12.6505C19.3247 12.6689 19.3315 12.6866 19.3434 12.7007C19.3553 12.7148 19.3718 12.7244 19.39 12.7281C19.4776 12.7464 19.5126 12.8094 19.4949 12.9171C19.4915 12.9362 19.4948 12.9558 19.5043 12.9727C19.5138 12.9896 19.5289 13.0026 19.547 13.0095C19.565 13.0165 19.585 13.0169 19.6033 13.0107C19.6217 13.0045 19.6373 12.992 19.6474 12.9756C19.7661 12.7884 19.9204 12.6551 20.0062 12.4506C20.12 12.1767 20.2381 11.9043 20.3605 11.6335C20.4435 11.4509 20.3979 11.3112 20.3513 11.1322L20.3102 10.7031L20.0272 8.93561C20.0254 8.92677 20.0271 8.91767 20.032 8.91019C20.0368 8.9027 20.0444 8.89742 20.0532 8.89542C20.062 8.89342 20.0713 8.89487 20.0792 8.89947C20.0872 8.90406 20.093 8.91145 20.0957 8.92009C20.2153 9.29716 20.239 9.71439 20.3175 10.0905C20.3522 10.2561 20.3888 10.4636 20.4271 10.7132C20.4423 10.813 20.4971 10.8845 20.5914 10.9277C20.6213 10.9411 20.6441 10.9335 20.6599 10.9049C20.9466 10.379 21.2701 9.88207 21.6304 9.41402C21.6937 9.38419 21.7439 9.33946 21.7811 9.27981C21.7993 9.25546 21.8261 9.23507 21.8614 9.21864C21.9223 9.27707 21.9229 9.34433 21.8632 9.42041C21.8109 9.48614 21.782 9.52327 21.7765 9.53179C21.7448 9.58048 21.7114 9.62735 21.6761 9.67239C21.6541 9.69978 21.6417 9.72534 21.6386 9.74908C21.6344 9.78377 21.6389 9.8139 21.6523 9.83947C21.6718 9.87659 21.6943 9.87872 21.7199 9.84586C22.0084 9.48066 22.3736 9.43684 22.6803 9.12095L23.8343 8.40974C23.8605 8.3933 23.8791 8.37048 23.89 8.34126C24.0252 7.9779 24.3109 7.92494 24.7208 7.76974C24.8602 7.71679 25.0669 7.60753 25.3408 7.44198C25.7753 7.17721 26.2866 7.07952 26.755 6.87684C26.7921 6.88841 26.8417 6.89084 26.9038 6.88415C26.8307 6.98366 26.7577 7.09504 26.639 7.14617C26.3767 7.25999 26.1128 7.37168 25.8475 7.48124C25.6612 7.55701 25.4412 7.52962 25.2559 7.66474C25.1061 7.7743 25.0106 7.83852 24.9692 7.85738C24.6947 7.97911 24.4196 8.09202 24.1438 8.1961C24.0617 8.23931 24.0032 8.29288 23.9686 8.35678C23.8949 8.44869 23.9086 8.52812 24.0096 8.59507C24.0241 8.60451 24.0406 8.61047 24.0578 8.61248C24.075 8.61449 24.0924 8.61249 24.1086 8.60664C24.1248 8.60079 24.1394 8.59125 24.1512 8.57879C24.1631 8.56632 24.1718 8.55126 24.1767 8.53482C24.2132 8.4143 24.2893 8.3577 24.405 8.365C24.4378 8.36683 24.4689 8.36105 24.4981 8.34766C24.9856 8.12489 25.401 7.84551 25.9205 7.65744C26.318 7.51441 26.6816 7.30533 27.0115 7.03022C27.2769 6.95171 27.4927 6.82298 27.6588 6.64403C27.6613 6.63368 27.6807 6.62121 27.7173 6.6066C28.3697 6.3747 29.0435 6.21554 29.7386 6.12911C29.9875 6.09868 30.1966 6.04877 30.3658 5.97938C30.6415 5.86617 30.8853 5.71827 31.1647 5.64432C31.5408 5.5445 31.9209 5.46689 32.305 5.41151C32.3482 5.40542 32.3588 5.42124 32.3369 5.45898C32.3132 5.50037 32.2779 5.52776 32.231 5.54115C31.6248 5.71462 31.1583 5.826 30.6032 6.25693C30.5837 6.27214 30.5782 6.29101 30.5868 6.31353C30.6014 6.35309 30.6242 6.36405 30.6552 6.3464C31.2907 5.99399 32.0968 5.82144 32.8026 5.6781L33.3576 5.6288L34.6166 5.77213L35.243 5.94651C35.4341 6.06885 35.5722 6.05181 35.6574 5.89539L36.9794 5.03992C37.0044 5.0241 37.0318 5.01345 37.0616 5.00797C37.0774 5.00553 37.0908 5.0031 37.1018 5.00067C37.1081 4.99924 37.1148 5.00012 37.1205 5.00315C37.1263 5.00619 37.1308 5.01117 37.1332 5.01722C37.1356 5.02326 37.1358 5.02997 37.1337 5.03614C37.1317 5.0423 37.1275 5.04753 37.1219 5.05088C36.8242 5.228 36.5567 5.3759 36.2911 5.6151C36.106 5.78126 35.9149 5.93982 35.7177 6.09077C35.6708 6.12668 35.6535 6.15893 35.6657 6.18754C35.6797 6.21858 35.7186 6.24749 35.7825 6.27427ZM33.6918 5.78765L33.2216 5.83604C33.2203 5.83616 33.219 5.83653 33.2178 5.83715C33.2167 5.83776 33.2156 5.8386 33.2148 5.83962C33.2139 5.84064 33.2133 5.84181 33.2129 5.84308C33.2125 5.84435 33.2124 5.84568 33.2125 5.847L33.2134 5.84974C33.2184 5.89977 33.247 5.94537 33.2929 5.97652C33.3388 6.00767 33.3982 6.02183 33.4581 6.0159L33.4964 6.01134C33.5261 6.00835 33.5551 6.00049 33.5816 5.98823C33.6081 5.97597 33.6316 5.95953 33.6509 5.93986C33.6701 5.92019 33.6847 5.89767 33.6937 5.87359C33.7028 5.84951 33.7062 5.82434 33.7037 5.79952V5.79679C33.7036 5.79538 33.7032 5.794 33.7025 5.79276C33.7018 5.79152 33.7009 5.79043 33.6998 5.78956C33.6987 5.7887 33.6974 5.78809 33.696 5.78776C33.6946 5.78743 33.6932 5.78739 33.6918 5.78765ZM34.435 6.00494C34.3924 6.04207 34.3951 6.07524 34.4432 6.10446C34.5838 6.19211 34.7375 6.22102 34.9042 6.19119C34.9155 6.18885 34.9256 6.18286 34.9331 6.17416C34.9406 6.16546 34.9449 6.15454 34.9456 6.14308C34.9462 6.13163 34.943 6.12029 34.9365 6.11083C34.9301 6.10137 34.9206 6.09432 34.9097 6.09077C34.7655 6.04786 34.581 5.87804 34.435 6.00494ZM38.8374 13.5681C38.9378 13.3508 38.9731 13.132 38.9433 12.9116C38.9413 12.8991 38.9351 12.8876 38.9257 12.879C38.9163 12.8705 38.9042 12.8654 38.8915 12.8647C38.8788 12.8639 38.8663 12.8676 38.8559 12.8749C38.8456 12.8823 38.8381 12.893 38.8346 12.9053C38.7351 13.3042 38.4932 14.0109 38.6584 14.3934C38.6612 14.3994 38.666 14.4043 38.6719 14.4072C38.6778 14.4102 38.6845 14.411 38.691 14.4096C38.6974 14.4083 38.7033 14.4047 38.7075 14.3996C38.7117 14.3945 38.714 14.3882 38.7141 14.3815C38.7105 14.0249 38.7515 13.7537 38.8374 13.5681ZM17.9812 15.4616L17.8854 15.7163C17.8391 15.933 17.907 16.104 18.089 16.2294C18.0984 16.236 18.1064 16.2445 18.1124 16.2544C18.1183 16.2643 18.1222 16.2754 18.1236 16.2869L18.1647 16.6549C18.1666 16.6662 18.1723 16.6765 18.1809 16.684C18.1896 16.6916 18.2005 16.6959 18.212 16.6962C18.2234 16.6965 18.2346 16.6928 18.2437 16.6858C18.2527 16.6788 18.259 16.6688 18.2615 16.6576L18.3291 16.2805C18.3352 16.2434 18.3251 16.2115 18.2989 16.1847C18.221 16.1025 18.1678 16.0337 18.1392 15.9784C18.1112 15.923 18.1173 15.8776 18.1574 15.8423C18.1629 15.8371 18.1699 15.8337 18.1773 15.8326C18.1848 15.8314 18.1924 15.8325 18.1993 15.8358C18.2061 15.839 18.2117 15.8443 18.2155 15.8508C18.2193 15.8574 18.221 15.8649 18.2204 15.8724C18.2168 15.9467 18.2484 16.0033 18.3154 16.0423C18.3452 16.0599 18.3698 16.0541 18.3893 16.0249L18.5418 15.7976C18.5493 15.7862 18.5535 15.773 18.554 15.7594C18.5546 15.7458 18.5514 15.7323 18.5448 15.7203C18.5382 15.7084 18.5285 15.6985 18.5167 15.6917C18.5049 15.6849 18.4915 15.6814 18.4779 15.6816C18.3848 15.6841 18.3154 15.7215 18.2697 15.7939C18.2423 15.8371 18.2226 15.8338 18.2104 15.7839L18.1885 15.6926L18.2752 15.5228L18.6431 14.9029C18.6477 14.8954 18.6501 14.8869 18.6501 14.8782C18.6501 14.8694 18.6477 14.8609 18.6432 14.8534C18.6387 14.846 18.6322 14.8399 18.6244 14.8359C18.6167 14.8319 18.608 14.8301 18.5993 14.8307C18.2944 14.849 18.1154 15.2279 17.9812 15.4616Z" fill="#231F20"/>
</g>
<defs>
<filter id="filter0_d_132_2" x="10" y="5" width="47.0923" height="52.6211" filterUnits="userSpaceOnUse" color-interpolation-filters="sRGB">
<feFlood flood-opacity="0" result="BackgroundImageFix"/>
<feColorMatrix in="SourceAlpha" type="matrix" values="0 0 0 0 0 0 0 0 0 0 0 0 0 0 0 0 0 0 127 0" result="hardAlpha"/>
<feOffset dy="4"/>
<feGaussianBlur stdDeviation="1.5"/>
<feComposite in2="hardAlpha" operator="out"/>
<feColorMatrix type="matrix" values="0 0 0 0 0 0 0 0 0 0 0 0 0 0 0 0 0 0 0.25 0"/>
<feBlend mode="normal" in2="BackgroundImageFix" result="effect1_dropShadow_132_2"/>
<feBlend mode="normal" in="SourceGraphic" in2="effect1_dropShadow_132_2" result="shape"/>
</filter>
</defs>
</svg>
