<?xml version="1.0" encoding="UTF-8" standalone="no"?>
<!DOCTYPE svg PUBLIC "-//W3C//DTD SVG 1.1//EN" "http://www.w3.org/Graphics/SVG/1.1/DTD/svg11.dtd">
<svg xmlns="http://www.w3.org/2000/svg" version="1.1" viewBox="0.00 0.00 701.00 799.00">
<g stroke-width="2.00" fill="none" stroke-linecap="butt">
<path stroke="#1c191a" stroke-opacity="0.620" vector-effect="non-scaling-stroke" d="
  M 394.92 167.61
  L 396.60 168.50"
/>
<path stroke="#181516" stroke-opacity="0.725" vector-effect="non-scaling-stroke" d="
  M 396.60 168.50
  L 399.65 172.28"
/>
<path stroke="#1c191a" stroke-opacity="0.620" vector-effect="non-scaling-stroke" d="
  M 399.65 172.28
  L 400.95 173.13"
/>
<path stroke="#181516" stroke-opacity="0.725" vector-effect="non-scaling-stroke" d="
  M 400.95 173.13
  L 406.91 175.54"
/>
<path stroke="#1c191a" stroke-opacity="0.620" vector-effect="non-scaling-stroke" d="
  M 406.91 175.54
  Q 413.70 178.85 418.64 183.22"
/>
<path stroke="#181516" stroke-opacity="0.725" vector-effect="non-scaling-stroke" d="
  M 418.64 183.22
  L 428.60 194.44
  A 1.41 1.41 0.0 0 1 427.79 196.77
  Q 426.58 196.97 427.40 198.26
  Q 427.64 198.64 427.96 198.95
  C 430.88 201.81 430.20 204.72 431.79 207.82
  Q 432.69 209.58 433.52 211.40
  Q 433.63 211.63 433.89 211.63
  Q 434.33 211.62 434.39 211.16
  Q 434.42 210.89 434.68 210.96
  Q 435.81 211.28 435.97 212.75
  Q 436.97 222.01 436.33 230.38
  Q 435.76 237.95 435.66 241.68
  C 435.45 249.88 433.70 259.52 435.00 266.75
  C 436.17 273.32 437.39 279.78 437.55 286.48
  C 437.70 292.86 437.49 299.29 438.14 305.48
  Q 438.96 313.40 440.01 321.28
  Q 440.08 321.76 439.75 321.40
  Q 436.34 317.66 434.54 313.00
  Q 434.15 312.00 434.00 313.07
  L 433.72 315.02"
/>
<path stroke="#532e2e" stroke-opacity="0.996" vector-effect="non-scaling-stroke" d="
  M 433.72 315.02
  Q 433.03 306.88 432.45 298.64
  Q 432.33 296.91 431.35 293.48
  C 429.88 288.28 431.94 283.92 431.64 278.84
  Q 431.37 274.14 430.66 278.79
  Q 430.20 281.81 429.67 286.09
  C 429.05 291.12 429.98 295.69 430.67 300.64
  C 431.63 307.43 430.44 313.41 433.59 319.86
  C 436.34 325.48 439.82 331.33 441.40 336.98
  Q 442.92 342.39 443.49 348.01
  Q 445.26 365.46 445.51 382.34
  Q 445.53 383.95 445.78 382.35
  C 446.48 377.89 446.69 373.71 446.33 368.88
  Q 445.43 356.69 445.12 344.45"
/>
<path stroke="#181516" stroke-opacity="0.725" vector-effect="non-scaling-stroke" d="
  M 445.12 344.45
  Q 445.66 344.70 446.07 345.90
  A 0.27 0.27 0.0 0 0 446.60 345.83
  Q 446.97 341.74 446.52 337.64
  Q 446.52 337.62 446.54 337.61
  Q 447.74 337.20 446.55 337.65
  Q 446.53 337.66 446.54 337.68
  Q 450.71 346.98 451.31 357.20
  Q 451.34 357.68 451.66 358.05
  Q 452.01 358.45 451.94 359.00
  Q 451.82 359.98 451.82 360.04
  Q 452.18 368.91 452.83 377.75
  Q 453.53 387.41 452.31 401.51
  Q 451.69 408.74 450.19 413.30
  Q 448.29 419.10 445.06 424.25
  Q 442.43 428.45 437.47 433.37
  Q 432.34 438.45 428.49 441.23
  Q 420.62 446.89 415.69 452.14
  Q 413.31 454.67 412.62 456.93
  Q 411.73 459.79 412.32 462.95
  Q 412.40 463.38 411.96 463.38
  L 411.50 463.38
  Q 410.92 463.38 410.90 463.96
  Q 410.88 464.60 411.31 465.24"
/>
<path stroke="#532e2e" stroke-opacity="0.996" vector-effect="non-scaling-stroke" d="
  M 411.31 465.24
  L 409.05 463.47
  A 0.68 0.68 0.0 0 0 408.06 464.39
  C 410.56 468.12 412.34 469.34 417.10 469.93
  C 426.56 471.11 430.98 478.34 439.91 477.25
  Q 444.72 476.66 446.64 477.58
  Q 455.03 481.60 463.45 485.63
  Q 466.02 486.87 471.57 486.96
  C 476.49 487.05 479.25 492.10 483.74 491.86
  Q 488.30 491.62 492.76 492.44
  C 497.50 493.31 501.80 492.73 506.49 494.20
  Q 511.65 495.82 516.88 497.17
  C 520.07 497.99 528.36 498.81 532.23 501.54
  C 535.67 503.96 538.55 506.42 542.51 508.07
  Q 559.42 515.08 575.49 523.88
  Q 577.53 525.00 577.94 525.82
  Q 580.36 530.68 584.14 534.28
  A 0.71 0.71 0.0 0 0 585.23 534.14
  Q 585.29 534.03 585.36 533.88"
/>
<path stroke="#181516" stroke-opacity="0.725" vector-effect="non-scaling-stroke" d="
  M 585.36 533.88
  C 585.78 535.61 585.22 537.72 586.98 538.46
  Q 587.44 538.65 587.74 539.05
  Q 590.00 542.05 590.85 545.76
  Q 592.83 554.33 595.35 563.20"
/>
<path stroke="#1c191a" stroke-opacity="0.620" vector-effect="non-scaling-stroke" d="
  M 595.35 563.20
  L 595.47 564.95"
/>
<path stroke="#181516" stroke-opacity="0.725" vector-effect="non-scaling-stroke" d="
  M 595.15 633.93
  L 594.24 648.00"
/>
<path stroke="#181516" stroke-opacity="0.725" vector-effect="non-scaling-stroke" d="
  M 569.68 653.32
  Q 565.99 653.47 562.77 652.77
  Q 558.13 651.76 556.62 651.70
  C 552.21 651.51 547.11 651.88 543.46 651.88
  Q 377.48 651.89 211.49 651.87
  C 198.15 651.87 184.24 651.17 170.60 650.81
  Q 170.12 650.80 169.72 650.55
  Q 169.35 650.33 168.75 650.34
  Q 164.45 650.44 160.16 650.62
  C 158.28 650.69 156.60 649.79 154.72 649.44
  Q 154.39 649.38 154.38 649.04
  Q 154.37 648.82 154.34 648.63
  Q 154.27 648.14 153.83 647.89
  Q 151.51 646.59 148.57 646.81"
/>
<path stroke="#532e2e" stroke-opacity="0.996" vector-effect="non-scaling-stroke" d="
  M 145.47 526.79
  Q 149.59 525.22 152.59 522.20
  C 155.40 519.36 162.40 520.10 166.22 519.43
  Q 181.35 516.79 195.85 511.81
  C 199.45 510.57 201.80 506.49 204.96 504.24
  Q 206.83 502.91 210.30 501.98
  C 216.06 500.45 220.79 497.44 226.46 495.36
  C 233.05 492.93 237.42 489.33 242.78 484.25
  Q 249.99 477.40 252.62 469.25
  Q 255.37 460.71 259.24 451.60
  A 0.79 0.71 21.0 0 0 258.74 450.62
  Q 258.52 450.55 257.99 451.59"
/>
<path stroke="#181516" stroke-opacity="0.725" vector-effect="non-scaling-stroke" d="
  M 257.99 451.59
  Q 258.25 450.19 257.75 449.75
  Q 255.41 447.66 253.27 445.24"
/>
<path stroke="#1c191a" stroke-opacity="0.620" vector-effect="non-scaling-stroke" d="
  M 253.27 445.24
  L 247.55 436.92"
/>
<path stroke="#181516" stroke-opacity="0.725" vector-effect="non-scaling-stroke" d="
  M 247.55 436.92
  Q 244.38 429.10 240.37 421.58
  Q 239.10 419.20 236.57 418.00
  A 1.12 1.08 -86.1 0 1 235.98 417.30
  Q 234.94 413.54 232.36 411.18"
/>
<path stroke="#1c191a" stroke-opacity="0.620" vector-effect="non-scaling-stroke" d="
  M 232.36 411.18
  Q 230.40 408.57 229.98 407.26
  C 227.64 399.99 226.28 389.99 222.73 381.91
  Q 218.55 372.37 214.43 362.81
  C 211.27 355.46 209.35 348.42 207.50 340.86"
/>
<path stroke="#1c191a" stroke-opacity="0.620" vector-effect="non-scaling-stroke" d="
  M 207.42 257.44
  L 209.47 256.26"
/>
<path stroke="#1c191a" stroke-opacity="0.620" vector-effect="non-scaling-stroke" d="
  M 210.53 255.32
  L 213.23 250.20"
/>
<path stroke="#1c191a" stroke-opacity="0.620" vector-effect="non-scaling-stroke" d="
  M 213.64 248.40
  Q 214.02 247.82 213.99 247.52"
/>
<path stroke="#181516" stroke-opacity="0.725" vector-effect="non-scaling-stroke" d="
  M 213.99 247.52
  Q 216.05 245.08 214.05 241.51"
/>
<path stroke="#1c191a" stroke-opacity="0.620" vector-effect="non-scaling-stroke" d="
  M 214.05 241.51
  Q 213.99 238.22 212.56 235.35"
/>
<path stroke="#181516" stroke-opacity="0.725" vector-effect="non-scaling-stroke" d="
  M 202.95 217.49
  Q 203.33 217.24 203.90 217.46"
/>
<path stroke="#1c191a" stroke-opacity="0.620" vector-effect="non-scaling-stroke" d="
  M 213.75 233.60
  Q 213.57 234.08 213.78 234.22"
/>
<path stroke="#181516" stroke-opacity="0.725" vector-effect="non-scaling-stroke" d="
  M 213.78 234.22
  Q 214.59 235.65 214.65 237.45
  A 0.90 0.89 4.9 0 0 215.37 238.30
  Q 216.81 238.60 216.52 240.37
  A 0.91 0.91 0.0 0 0 218.19 241.01
  C 219.49 238.96 221.18 237.50 222.12 235.26
  Q 223.99 230.76 226.00 226.31
  C 226.91 224.31 226.41 222.78 225.90 220.82"
/>
<path stroke="#1c191a" stroke-opacity="0.620" vector-effect="non-scaling-stroke" d="
  M 225.90 220.82
  L 225.45 216.12"
/>
<path stroke="#1c191a" stroke-opacity="0.620" vector-effect="non-scaling-stroke" d="
  M 239.91 202.00
  Q 240.95 201.51 241.56 200.53"
/>
<path stroke="#181516" stroke-opacity="0.725" vector-effect="non-scaling-stroke" d="
  M 242.44 199.86
  Q 243.44 200.82 242.46 202.07
  Q 241.60 203.15 241.51 203.29
  Q 240.99 204.09 240.41 204.83
  Q 240.05 205.28 240.00 205.67
  Q 239.93 206.24 240.15 206.66
  Q 240.47 207.27 240.89 206.73
  C 244.05 202.73 248.05 202.25 251.41 198.79"
/>
<path stroke="#181516" stroke-opacity="0.725" vector-effect="non-scaling-stroke" d="
  M 296.04 174.21
  Q 296.65 174.40 297.67 174.29"
/>
<path stroke="#1c191a" stroke-opacity="0.620" vector-effect="non-scaling-stroke" d="
  M 297.67 174.29
  C 296.87 175.38 296.07 176.60 294.77 177.16
  Q 290.46 179.03 286.10 180.83
  C 284.06 181.66 281.65 181.36 279.62 182.84
  Q 277.16 184.64 276.48 184.95
  Q 271.97 186.95 267.44 188.66"
/>
<path stroke="#181516" stroke-opacity="0.725" vector-effect="non-scaling-stroke" d="
  M 267.44 188.66
  Q 266.09 189.37 265.52 190.42"
/>
<path stroke="#1c191a" stroke-opacity="0.620" vector-effect="non-scaling-stroke" d="
  M 265.52 190.42
  Q 264.31 191.93 265.97 193.03
  A 1.22 1.21 25.1 0 0 267.80 192.37
  Q 268.40 190.39 270.30 190.51
  Q 270.84 190.54 271.32 190.32
  C 276.66 187.88 281.21 184.82 286.90 182.76
  Q 293.43 180.41 298.85 175.89"
/>
<path stroke="#181516" stroke-opacity="0.725" vector-effect="non-scaling-stroke" d="
  M 298.85 175.89
  Q 303.21 174.60 305.94 171.66"
/>
<path stroke="#1c191a" stroke-opacity="0.620" vector-effect="non-scaling-stroke" d="
  M 305.94 171.66
  Q 305.98 171.49 306.58 171.25"
/>
<path stroke="#1c191a" stroke-opacity="0.620" vector-effect="non-scaling-stroke" d="
  M 362.28 161.08
  L 368.36 160.54"
/>
<path stroke="#1c191a" stroke-opacity="0.620" vector-effect="non-scaling-stroke" d="
  M 382.15 162.11
  L 389.01 164.02"
/>
<path stroke="#1c191a" stroke-opacity="0.620" vector-effect="non-scaling-stroke" d="
  M 389.01 164.02
  Q 392.15 166.03 393.55 163.46"
/>
<path stroke="#1c191a" stroke-opacity="0.620" vector-effect="non-scaling-stroke" d="
  M 222.65 223.84
  L 221.50 226.00"
/>
<path stroke="#6a3231" stroke-opacity="0.616" vector-effect="non-scaling-stroke" d="
  M 435.33 475.48
  Q 428.77 473.14 423.38 469.75"
/>
<path stroke="#181516" stroke-opacity="0.725" vector-effect="non-scaling-stroke" d="
  M 218.44 231.65
  L 218.23 232.87
  Q 218.14 233.41 218.68 233.39
  Q 222.04 233.31 222.84 229.75
  Q 223.47 226.95 224.99 223.55
  Q 225.29 222.89 224.61 223.13
  L 222.65 223.84"
/>
<path stroke="#5a2b2a" stroke-opacity="0.722" vector-effect="non-scaling-stroke" d="
  M 423.38 469.75
  C 419.23 468.73 414.19 468.60 411.31 465.24"
/>
<path stroke="#5a2b2a" stroke-opacity="0.722" vector-effect="non-scaling-stroke" d="
  M 445.12 344.45
  C 443.48 333.29 439.71 326.40 433.72 315.02"
/>
<path stroke="#6a3231" stroke-opacity="0.616" vector-effect="non-scaling-stroke" d="
  M 256.32 455.29
  L 253.40 463.01"
/>
<path stroke="#6a3231" stroke-opacity="0.616" vector-effect="non-scaling-stroke" d="
  M 454.76 479.68
  L 457.86 480.96"
/>
<path stroke="#6a3231" stroke-opacity="0.616" vector-effect="non-scaling-stroke" d="
  M 459.96 482.04
  Q 465.74 485.35 472.75 485.25"
/>
<path stroke="#6a3231" stroke-opacity="0.616" vector-effect="non-scaling-stroke" d="
  M 475.19 485.88
  L 481.05 489.35"
/>
<path stroke="#6a3231" stroke-opacity="0.616" vector-effect="non-scaling-stroke" d="
  M 481.05 489.35
  L 488.04 490.30"
/>
<path stroke="#6a3231" stroke-opacity="0.616" vector-effect="non-scaling-stroke" d="
  M 506.23 492.35
  Q 507.31 493.24 509.05 493.25"
/>
<path stroke="#6a3231" stroke-opacity="0.616" vector-effect="non-scaling-stroke" d="
  M 521.87 496.68
  L 525.65 497.24"
/>
<path stroke="#6a3231" stroke-opacity="0.616" vector-effect="non-scaling-stroke" d="
  M 533.02 499.97
  Q 538.91 504.69 542.00 505.95
  Q 559.33 513.05 575.99 521.90"
/>
<path stroke="#5a2b2a" stroke-opacity="0.722" vector-effect="non-scaling-stroke" d="
  M 575.99 521.90
  C 579.24 524.41 580.68 527.55 583.30 530.63
  Q 584.59 532.15 585.36 533.88"
/>
<path stroke="#6a3231" stroke-opacity="0.616" vector-effect="non-scaling-stroke" d="
  M 199.14 508.41
  L 204.82 502.92"
/>
<path stroke="#6a3231" stroke-opacity="0.616" vector-effect="non-scaling-stroke" d="
  M 207.38 501.59
  L 211.60 500.26"
/>
<path stroke="#6a3231" stroke-opacity="0.616" vector-effect="non-scaling-stroke" d="
  M 215.48 498.97
  L 217.45 498.03"
/>
<path stroke="#6a3231" stroke-opacity="0.616" vector-effect="non-scaling-stroke" d="
  M 217.45 498.03
  Q 219.23 497.67 220.71 496.44"
/>
<path stroke="#6a3231" stroke-opacity="0.616" vector-effect="non-scaling-stroke" d="
  M 223.93 495.07
  L 230.42 492.49"
/>
<path stroke="#6a3231" stroke-opacity="0.616" vector-effect="non-scaling-stroke" d="
  M 231.10 492.07
  Q 233.06 491.50 234.63 489.96"
/>
<path stroke="#6a3231" stroke-opacity="0.616" vector-effect="non-scaling-stroke" d="
  M 236.14 488.89
  L 240.17 485.70"
/>
<path stroke="#5a2b2a" stroke-opacity="0.722" vector-effect="non-scaling-stroke" d="
  M 257.99 451.59
  L 256.32 455.29"
/>
<path stroke="#181516" stroke-opacity="0.725" vector-effect="non-scaling-stroke" d="
  M 251.22 195.50
  Q 250.36 195.94 249.88 195.35"
/>
<path stroke="#1c191a" stroke-opacity="0.620" vector-effect="non-scaling-stroke" d="
  M 249.88 195.35
  L 250.43 194.15"
/>
<path stroke="#181516" stroke-opacity="0.725" vector-effect="non-scaling-stroke" d="
  M 372.02 162.28
  L 366.87 162.81
  A 0.11 0.11 0.0 0 0 366.77 162.93
  L 366.78 162.96
  A 2.49 2.08 -5.8 0 0 369.46 164.78
  L 369.88 164.73
  A 2.49 2.08 -5.8 0 0 372.15 162.41
  L 372.15 162.38
  A 0.11 0.11 0.0 0 0 372.02 162.28"
/>
<path stroke="#181516" stroke-opacity="0.725" vector-effect="non-scaling-stroke" d="
  M 380.16 164.66
  Q 379.46 165.27 380.25 165.75
  Q 382.56 167.19 385.30 166.70
  A 0.57 0.57 0.0 0 0 385.36 165.60
  C 383.78 165.13 381.76 163.27 380.16 164.66"
/>
<path stroke="#532e2e" stroke-opacity="0.996" vector-effect="non-scaling-stroke" d="
  M 428.38 247.50
  Q 430.03 243.93 429.54 240.31
  A 0.61 0.61 0.0 0 0 428.35 240.24
  C 427.26 244.61 424.61 252.35 426.42 256.54
  A 0.32 0.32 0.0 0 0 427.03 256.41
  Q 426.97 250.55 428.38 247.50"
/>
<path stroke="#1c191a" stroke-opacity="0.620" vector-effect="non-scaling-stroke" d="
  M 199.94 268.24
  L 198.89 271.03"
/>
<path stroke="#181516" stroke-opacity="0.725" vector-effect="non-scaling-stroke" d="
  M 198.89 271.03
  Q 198.13 274.59 201.12 276.65
  A 0.91 0.90 -76.2 0 1 201.50 277.28
  L 201.95 281.31
  A 0.54 0.54 0.0 0 0 203.01 281.34
  L 203.75 277.21
  Q 203.85 276.60 203.42 276.16
  Q 202.14 274.81 201.67 273.90
  Q 201.21 272.99 201.87 272.41
  A 0.41 0.41 0.0 0 1 202.56 272.74
  Q 202.50 273.96 203.60 274.60
  Q 204.09 274.89 204.41 274.41
  L 206.08 271.92
  A 0.82 0.82 0.0 0 0 205.38 270.65
  Q 203.85 270.69 203.10 271.88
  Q 202.65 272.59 202.45 271.77
  L 202.21 270.77"
/>
<path stroke="#1c191a" stroke-opacity="0.620" vector-effect="non-scaling-stroke" d="
  M 202.21 270.77
  L 203.16 268.91"
/>
</g>
<path fill="#231f20" d="
  M 394.92 167.61
  L 396.60 168.50
  L 399.65 172.28
  L 400.95 173.13
  L 406.91 175.54
  Q 413.70 178.85 418.64 183.22
  L 428.60 194.44
  A 1.41 1.41 0.0 0 1 427.79 196.77
  Q 426.58 196.97 427.40 198.26
  Q 427.64 198.64 427.96 198.95
  C 430.88 201.81 430.20 204.72 431.79 207.82
  Q 432.69 209.58 433.52 211.40
  Q 433.63 211.63 433.89 211.63
  Q 434.33 211.62 434.39 211.16
  Q 434.42 210.89 434.68 210.96
  Q 435.81 211.28 435.97 212.75
  Q 436.97 222.01 436.33 230.38
  Q 435.76 237.95 435.66 241.68
  C 435.45 249.88 433.70 259.52 435.00 266.75
  C 436.17 273.32 437.39 279.78 437.55 286.48
  C 437.70 292.86 437.49 299.29 438.14 305.48
  Q 438.96 313.40 440.01 321.28
  Q 440.08 321.76 439.75 321.40
  Q 436.34 317.66 434.54 313.00
  Q 434.15 312.00 434.00 313.07
  L 433.72 315.02
  Q 433.03 306.88 432.45 298.64
  Q 432.33 296.91 431.35 293.48
  C 429.88 288.28 431.94 283.92 431.64 278.84
  Q 431.37 274.14 430.66 278.79
  Q 430.20 281.81 429.67 286.09
  C 429.05 291.12 429.98 295.69 430.67 300.64
  C 431.63 307.43 430.44 313.41 433.59 319.86
  C 436.34 325.48 439.82 331.33 441.40 336.98
  Q 442.92 342.39 443.49 348.01
  Q 445.26 365.46 445.51 382.34
  Q 445.53 383.95 445.78 382.35
  C 446.48 377.89 446.69 373.71 446.33 368.88
  Q 445.43 356.69 445.12 344.45
  Q 445.66 344.70 446.07 345.90
  A 0.27 0.27 0.0 0 0 446.60 345.83
  Q 446.97 341.74 446.52 337.64
  Q 446.52 337.62 446.54 337.61
  Q 447.74 337.20 446.55 337.65
  Q 446.53 337.66 446.54 337.68
  Q 450.71 346.98 451.31 357.20
  Q 451.34 357.68 451.66 358.05
  Q 452.01 358.45 451.94 359.00
  Q 451.82 359.98 451.82 360.04
  Q 452.18 368.91 452.83 377.75
  Q 453.53 387.41 452.31 401.51
  Q 451.69 408.74 450.19 413.30
  Q 448.29 419.10 445.06 424.25
  Q 442.43 428.45 437.47 433.37
  Q 432.34 438.45 428.49 441.23
  Q 420.62 446.89 415.69 452.14
  Q 413.31 454.67 412.62 456.93
  Q 411.73 459.79 412.32 462.95
  Q 412.40 463.38 411.96 463.38
  L 411.50 463.38
  Q 410.92 463.38 410.90 463.96
  Q 410.88 464.60 411.31 465.24
  L 409.05 463.47
  A 0.68 0.68 0.0 0 0 408.06 464.39
  C 410.56 468.12 412.34 469.34 417.10 469.93
  C 426.56 471.11 430.98 478.34 439.91 477.25
  Q 444.72 476.66 446.64 477.58
  Q 455.03 481.60 463.45 485.63
  Q 466.02 486.87 471.57 486.96
  C 476.49 487.05 479.25 492.10 483.74 491.86
  Q 488.30 491.62 492.76 492.44
  C 497.50 493.31 501.80 492.73 506.49 494.20
  Q 511.65 495.82 516.88 497.17
  C 520.07 497.99 528.36 498.81 532.23 501.54
  C 535.67 503.96 538.55 506.42 542.51 508.07
  Q 559.42 515.08 575.49 523.88
  Q 577.53 525.00 577.94 525.82
  Q 580.36 530.68 584.14 534.28
  A 0.71 0.71 0.0 0 0 585.23 534.14
  Q 585.29 534.03 585.36 533.88
  C 585.78 535.61 585.22 537.72 586.98 538.46
  Q 587.44 538.65 587.74 539.05
  Q 590.00 542.05 590.85 545.76
  Q 592.83 554.33 595.35 563.20
  L 595.47 564.95
  L 595.15 633.93
  L 594.24 648.00
  Q 591.98 652.87 585.25 653.05
  Q 577.28 653.27 569.68 653.32
  Q 565.99 653.47 562.77 652.77
  Q 558.13 651.76 556.62 651.70
  C 552.21 651.51 547.11 651.88 543.46 651.88
  Q 377.48 651.89 211.49 651.87
  C 198.15 651.87 184.24 651.17 170.60 650.81
  Q 170.12 650.80 169.72 650.55
  Q 169.35 650.33 168.75 650.34
  Q 164.45 650.44 160.16 650.62
  C 158.28 650.69 156.60 649.79 154.72 649.44
  Q 154.39 649.38 154.38 649.04
  Q 154.37 648.82 154.34 648.63
  Q 154.27 648.14 153.83 647.89
  Q 151.51 646.59 148.57 646.81
  L 145.75 644.48
  Q 145.38 644.18 145.38 643.70
  L 145.47 526.79
  Q 149.59 525.22 152.59 522.20
  C 155.40 519.36 162.40 520.10 166.22 519.43
  Q 181.35 516.79 195.85 511.81
  C 199.45 510.57 201.80 506.49 204.96 504.24
  Q 206.83 502.91 210.30 501.98
  C 216.06 500.45 220.79 497.44 226.46 495.36
  C 233.05 492.93 237.42 489.33 242.78 484.25
  Q 249.99 477.40 252.62 469.25
  Q 255.37 460.71 259.24 451.60
  A 0.79 0.71 21.0 0 0 258.74 450.62
  Q 258.52 450.55 257.99 451.59
  Q 258.25 450.19 257.75 449.75
  Q 255.41 447.66 253.27 445.24
  L 247.55 436.92
  Q 244.38 429.10 240.37 421.58
  Q 239.10 419.20 236.57 418.00
  A 1.12 1.08 -86.1 0 1 235.98 417.30
  Q 234.94 413.54 232.36 411.18
  Q 230.40 408.57 229.98 407.26
  C 227.64 399.99 226.28 389.99 222.73 381.91
  Q 218.55 372.37 214.43 362.81
  C 211.27 355.46 209.35 348.42 207.50 340.86
  C 206.14 334.22 204.11 327.98 203.12 321.13
  Q 201.91 312.78 199.62 304.68
  Q 198.51 300.73 197.91 296.89
  Q 197.31 292.95 196.51 289.03
  C 195.80 285.57 196.19 283.03 196.43 279.63
  Q 196.52 278.32 196.29 275.87
  Q 195.80 270.63 198.22 266.03
  C 200.08 262.48 204.32 260.24 207.42 257.44
  L 209.47 256.26
  Q 210.14 255.90 210.53 255.32
  L 213.23 250.20
  L 213.64 248.40
  Q 214.02 247.82 213.99 247.52
  Q 216.05 245.08 214.05 241.51
  Q 213.99 238.22 212.56 235.35
  Q 212.11 234.30 209.55 230.72
  Q 207.32 227.60 202.95 217.49
  Q 203.33 217.24 203.90 217.46
  Q 206.70 227.13 213.75 233.60
  Q 213.57 234.08 213.78 234.22
  Q 214.59 235.65 214.65 237.45
  A 0.90 0.89 4.9 0 0 215.37 238.30
  Q 216.81 238.60 216.52 240.37
  A 0.91 0.91 0.0 0 0 218.19 241.01
  C 219.49 238.96 221.18 237.50 222.12 235.26
  Q 223.99 230.76 226.00 226.31
  C 226.91 224.31 226.41 222.78 225.90 220.82
  L 225.45 216.12
  L 222.35 196.76
  A 0.39 0.38 31.9 0 1 223.10 196.59
  C 224.41 200.72 224.67 205.29 225.53 209.41
  Q 226.10 212.13 226.73 216.23
  Q 226.98 217.87 228.53 218.58
  Q 229.02 218.80 229.28 218.33
  Q 233.99 209.69 239.91 202.00
  Q 240.95 201.51 241.56 200.53
  Q 241.86 200.13 242.44 199.86
  Q 243.44 200.82 242.46 202.07
  Q 241.60 203.15 241.51 203.29
  Q 240.99 204.09 240.41 204.83
  Q 240.05 205.28 240.00 205.67
  Q 239.93 206.24 240.15 206.66
  Q 240.47 207.27 240.89 206.73
  C 244.05 202.73 248.05 202.25 251.41 198.79
  L 264.05 191.00
  Q 264.48 190.73 264.66 190.25
  C 266.14 186.27 269.27 185.69 273.76 183.99
  Q 276.05 183.12 280.55 180.40
  C 285.31 177.50 290.91 176.43 296.04 174.21
  Q 296.65 174.40 297.67 174.29
  C 296.87 175.38 296.07 176.60 294.77 177.16
  Q 290.46 179.03 286.10 180.83
  C 284.06 181.66 281.65 181.36 279.62 182.84
  Q 277.16 184.64 276.48 184.95
  Q 271.97 186.95 267.44 188.66
  Q 266.09 189.37 265.52 190.42
  Q 264.31 191.93 265.97 193.03
  A 1.22 1.21 25.1 0 0 267.80 192.37
  Q 268.40 190.39 270.30 190.51
  Q 270.84 190.54 271.32 190.32
  C 276.66 187.88 281.21 184.82 286.90 182.76
  Q 293.43 180.41 298.85 175.89
  Q 303.21 174.60 305.94 171.66
  Q 305.98 171.49 306.58 171.25
  Q 317.30 167.44 328.72 166.02
  Q 332.81 165.52 335.59 164.38
  C 338.61 163.14 341.28 161.52 344.34 160.71
  Q 350.52 159.07 356.83 158.16
  Q 357.54 158.06 357.18 158.68
  Q 356.79 159.36 356.02 159.58
  C 349.38 161.48 344.27 162.70 338.19 167.42
  Q 337.87 167.67 338.01 168.04
  Q 338.25 168.69 338.76 168.40
  C 345.72 164.54 354.55 162.65 362.28 161.08
  L 368.36 160.54
  L 382.15 162.11
  L 389.01 164.02
  Q 392.15 166.03 393.55 163.46
  L 408.03 154.09
  Q 408.44 153.83 408.93 153.74
  Q 409.19 153.70 409.37 153.66
  A 0.30 0.30 0.0 0 1 409.59 154.21
  C 406.33 156.15 403.40 157.77 400.49 160.39
  Q 397.45 163.12 394.21 165.60
  Q 393.44 166.19 393.64 166.66
  Q 393.87 167.17 394.92 167.61
  Z
  M 372.02 162.28
  L 366.87 162.81
  A 0.11 0.11 0.0 0 0 366.77 162.93
  L 366.78 162.96
  A 2.49 2.08 -5.8 0 0 369.46 164.78
  L 369.88 164.73
  A 2.49 2.08 -5.8 0 0 372.15 162.41
  L 372.15 162.38
  A 0.11 0.11 0.0 0 0 372.02 162.28
  Z
  M 380.16 164.66
  Q 379.46 165.27 380.25 165.75
  Q 382.56 167.19 385.30 166.70
  A 0.57 0.57 0.0 0 0 385.36 165.60
  C 383.78 165.13 381.76 163.27 380.16 164.66
  Z
  M 428.38 247.50
  Q 430.03 243.93 429.54 240.31
  A 0.61 0.61 0.0 0 0 428.35 240.24
  C 427.26 244.61 424.61 252.35 426.42 256.54
  A 0.32 0.32 0.0 0 0 427.03 256.41
  Q 426.97 250.55 428.38 247.50
  Z
  M 199.94 268.24
  L 198.89 271.03
  Q 198.13 274.59 201.12 276.65
  A 0.91 0.90 -76.2 0 1 201.50 277.28
  L 201.95 281.31
  A 0.54 0.54 0.0 0 0 203.01 281.34
  L 203.75 277.21
  Q 203.85 276.60 203.42 276.16
  Q 202.14 274.81 201.67 273.90
  Q 201.21 272.99 201.87 272.41
  A 0.41 0.41 0.0 0 1 202.56 272.74
  Q 202.50 273.96 203.60 274.60
  Q 204.09 274.89 204.41 274.41
  L 206.08 271.92
  A 0.82 0.82 0.0 0 0 205.38 270.65
  Q 203.85 270.69 203.10 271.88
  Q 202.65 272.59 202.45 271.77
  L 202.21 270.77
  L 203.16 268.91
  L 207.19 262.12
  A 0.52 0.52 0.0 0 0 206.71 261.33
  C 203.37 261.53 201.41 265.68 199.94 268.24
  Z"
/>
<path fill="#000000" fill-opacity="0.235" d="
  M 368.36 160.54
  L 362.28 161.08
  L 362.69 159.40
  Q 362.83 158.84 363.40 158.87
  Q 364.48 158.93 364.85 159.97
  Q 365.01 160.43 365.50 160.45
  L 368.36 160.54
  Z"
/>
<path fill="#000000" fill-opacity="0.235" d="
  M 382.15 162.11
  Q 384.95 161.57 387.16 162.87
  Q 387.58 163.12 388.06 163.11
  Q 389.12 163.11 389.01 164.02
  L 382.15 162.11
  Z"
/>
<path fill="#000000" fill-opacity="0.447" d="
  M 372.02 162.28
  A 0.11 0.11 0.0 0 1 372.15 162.38
  L 372.15 162.41
  A 2.49 2.08 -5.8 0 1 369.88 164.73
  L 369.46 164.78
  A 2.49 2.08 -5.8 0 1 366.78 162.96
  L 366.77 162.93
  A 0.11 0.11 0.0 0 1 366.87 162.81
  L 372.02 162.28
  Z"
/>
<path fill="#000000" fill-opacity="0.235" d="
  M 393.55 163.46
  Q 392.15 166.03 389.01 164.02
  L 393.55 163.46
  Z"
/>
<path fill="#000000" fill-opacity="0.447" d="
  M 380.16 164.66
  C 381.76 163.27 383.78 165.13 385.36 165.60
  A 0.57 0.57 0.0 0 1 385.30 166.70
  Q 382.56 167.19 380.25 165.75
  Q 379.46 165.27 380.16 164.66
  Z"
/>
<path fill="#000000" fill-opacity="0.235" d="
  M 435.33 475.48
  Q 428.77 473.14 423.38 469.75
  Q 420.95 465.32 420.31 461.11
  Q 419.99 459.00 421.12 457.12
  C 424.02 452.34 428.86 449.43 432.08 446.63
  Q 434.49 444.54 438.33 441.34
  Q 449.33 432.19 454.99 418.46
  Q 457.33 412.79 458.16 405.23
  Q 459.44 393.51 459.15 381.75
  Q 458.79 367.04 458.37 361.77
  Q 457.43 349.91 453.42 338.65
  Q 453.41 338.61 450.06 330.75
  Q 446.75 322.97 445.61 314.00
  Q 443.68 298.84 444.17 284.94
  C 444.27 282.35 443.72 279.81 443.42 277.25
  Q 443.15 274.90 442.43 271.56
  Q 440.48 262.47 441.77 251.49
  Q 443.16 239.65 443.17 217.29
  C 443.18 214.95 442.38 212.61 442.02 210.24
  Q 441.57 207.22 440.53 205.18
  Q 438.92 202.00 437.08 198.94
  Q 436.83 198.52 436.88 197.94
  Q 436.92 197.47 436.62 197.10
  Q 433.60 193.26 430.57 189.41
  Q 428.96 187.38 422.79 183.58
  Q 422.13 183.18 422.45 183.88
  L 423.61 186.39
  A 0.33 0.32 7.3 0 1 423.11 186.77
  L 418.64 183.22
  Q 413.70 178.85 406.91 175.54
  L 405.46 173.67
  Q 404.98 173.05 405.77 173.10
  Q 408.01 173.25 409.76 174.66
  A 1.04 1.03 -25.5 0 0 410.40 174.88
  L 411.00 174.88
  A 0.33 0.33 0.0 0 0 411.19 174.28
  Q 409.83 173.33 407.46 171.16
  Q 404.54 168.49 399.82 167.26
  Q 399.38 167.14 399.19 167.56
  Q 398.35 169.46 396.60 168.50
  L 394.92 167.61
  Q 397.54 166.87 399.59 164.64
  A 2.02 2.01 31.4 0 1 401.76 164.12
  Q 404.17 165.00 406.35 165.80
  C 409.14 166.82 410.58 168.77 412.63 170.75
  C 414.63 172.68 417.69 174.47 419.77 177.10
  A 1.26 1.25 -14.3 0 0 420.55 177.56
  C 422.08 177.82 422.43 178.87 423.45 179.52
  Q 430.00 183.66 435.25 189.31
  Q 436.56 190.71 437.98 193.08
  C 439.09 194.94 440.27 196.41 441.13 198.40
  Q 445.12 207.72 445.93 211.36
  Q 447.87 220.05 446.59 231.10
  Q 445.48 240.73 445.40 241.72
  Q 444.97 247.04 444.53 252.36
  Q 444.08 257.69 444.44 262.99
  Q 444.54 264.62 445.93 273.46
  Q 447.22 281.67 447.21 289.99
  Q 447.20 295.99 447.61 299.98
  Q 448.12 304.98 448.57 309.97
  Q 449.18 316.66 449.94 320.01
  Q 451.18 325.52 453.24 329.63
  Q 455.09 333.34 456.09 336.42
  Q 457.86 341.84 457.91 341.99
  Q 460.39 349.01 460.90 356.51
  Q 460.90 356.62 461.07 356.70
  Q 461.22 356.77 461.23 356.93
  Q 463.60 379.79 462.01 402.74
  Q 460.87 419.22 451.39 432.48
  C 450.03 434.38 447.67 435.65 446.00 437.75
  Q 444.02 440.22 440.01 443.74
  Q 434.12 448.90 428.34 454.21
  C 424.87 457.39 422.82 460.83 425.87 464.97
  C 426.62 465.98 427.95 466.56 428.73 467.81
  A 0.82 0.79 85.4 0 0 429.08 468.12
  L 440.00 473.18
  A 0.46 0.46 0.0 0 1 439.75 474.06
  L 432.44 473.14
  A 0.09 0.09 0.0 0 0 432.34 473.25
  Q 432.42 473.78 433.15 473.85
  Q 433.57 473.90 433.95 474.06
  Q 435.15 474.57 435.33 475.48
  Z"
/>
<path fill="#000000" fill-opacity="0.447" d="
  M 406.91 175.54
  L 400.95 173.13
  Q 402.15 173.29 402.75 172.83
  A 0.40 0.40 0.0 0 0 402.47 172.12
  Q 401.25 172.24 400.72 171.28
  A 0.56 0.55 43.1 0 0 399.73 171.31
  Q 399.53 171.73 399.65 172.28
  L 396.60 168.50
  Q 398.35 169.46 399.19 167.56
  Q 399.38 167.14 399.82 167.26
  Q 404.54 168.49 407.46 171.16
  Q 409.83 173.33 411.19 174.28
  A 0.33 0.33 0.0 0 1 411.00 174.88
  L 410.40 174.88
  A 1.04 1.03 -25.5 0 1 409.76 174.66
  Q 408.01 173.25 405.77 173.10
  Q 404.98 173.05 405.46 173.67
  L 406.91 175.54
  Z"
/>
<path fill="#000000" fill-opacity="0.235" d="
  M 306.58 171.25
  Q 305.98 171.49 305.94 171.66
  Q 301.99 171.24 298.47 172.88
  Q 298.03 173.08 297.55 173.07
  L 296.46 173.04
  Q 301.76 170.02 306.58 171.25
  Z"
/>
<path fill="#000000" fill-opacity="0.235" d="
  M 400.95 173.13
  L 399.65 172.28
  Q 399.53 171.73 399.73 171.31
  A 0.56 0.55 43.1 0 1 400.72 171.28
  Q 401.25 172.24 402.47 172.12
  A 0.40 0.40 0.0 0 1 402.75 172.83
  Q 402.15 173.29 400.95 173.13
  Z"
/>
<path fill="#000000" fill-opacity="0.447" d="
  M 305.94 171.66
  Q 303.21 174.60 298.85 175.89
  Q 297.41 176.33 297.65 175.51
  Q 298.05 174.20 297.67 174.29
  Q 296.65 174.40 296.04 174.21
  Q 295.90 173.51 296.46 173.04
  L 297.55 173.07
  Q 298.03 173.08 298.47 172.88
  Q 301.99 171.24 305.94 171.66
  Z"
/>
<path fill="#000000" fill-opacity="0.235" d="
  M 297.67 174.29
  Q 298.05 174.20 297.65 175.51
  Q 297.41 176.33 298.85 175.89
  Q 293.43 180.41 286.90 182.76
  C 281.21 184.82 276.66 187.88 271.32 190.32
  Q 270.84 190.54 270.30 190.51
  Q 268.40 190.39 267.80 192.37
  A 1.22 1.21 25.1 0 1 265.97 193.03
  Q 264.31 191.93 265.52 190.42
  Q 266.66 190.55 267.44 188.66
  Q 271.97 186.95 276.48 184.95
  Q 277.16 184.64 279.62 182.84
  C 281.65 181.36 284.06 181.66 286.10 180.83
  Q 290.46 179.03 294.77 177.16
  C 296.07 176.60 296.87 175.38 297.67 174.29
  Z"
/>
<path fill="#000000" fill-opacity="0.447" d="
  M 418.64 183.22
  L 423.11 186.77
  A 0.33 0.32 7.3 0 0 423.61 186.39
  L 422.45 183.88
  Q 422.13 183.18 422.79 183.58
  Q 428.96 187.38 430.57 189.41
  Q 433.60 193.26 436.62 197.10
  Q 436.92 197.47 436.88 197.94
  Q 436.83 198.52 437.08 198.94
  Q 438.92 202.00 440.53 205.18
  Q 441.57 207.22 442.02 210.24
  C 442.38 212.61 443.18 214.95 443.17 217.29
  Q 443.16 239.65 441.77 251.49
  Q 440.48 262.47 442.43 271.56
  Q 443.15 274.90 443.42 277.25
  C 443.72 279.81 444.27 282.35 444.17 284.94
  Q 443.68 298.84 445.61 314.00
  Q 446.75 322.97 450.06 330.75
  Q 453.41 338.61 453.42 338.65
  Q 457.43 349.91 458.37 361.77
  Q 458.79 367.04 459.15 381.75
  Q 459.44 393.51 458.16 405.23
  Q 457.33 412.79 454.99 418.46
  Q 449.33 432.19 438.33 441.34
  Q 434.49 444.54 432.08 446.63
  C 428.86 449.43 424.02 452.34 421.12 457.12
  Q 419.99 459.00 420.31 461.11
  Q 420.95 465.32 423.38 469.75
  C 419.23 468.73 414.19 468.60 411.31 465.24
  Q 410.88 464.60 410.90 463.96
  Q 410.92 463.38 411.50 463.38
  L 411.96 463.38
  Q 412.40 463.38 412.32 462.95
  Q 411.73 459.79 412.62 456.93
  Q 413.31 454.67 415.69 452.14
  Q 420.62 446.89 428.49 441.23
  Q 432.34 438.45 437.47 433.37
  Q 442.43 428.45 445.06 424.25
  Q 448.29 419.10 450.19 413.30
  Q 451.69 408.74 452.31 401.51
  Q 453.53 387.41 452.83 377.75
  Q 452.18 368.91 451.82 360.04
  Q 451.82 359.98 451.94 359.00
  Q 452.01 358.45 451.66 358.05
  Q 451.34 357.68 451.31 357.20
  Q 450.71 346.98 446.54 337.68
  Q 446.53 337.66 446.55 337.65
  Q 447.74 337.20 446.54 337.61
  Q 446.52 337.62 446.52 337.64
  Q 446.97 341.74 446.60 345.83
  A 0.27 0.27 0.0 0 1 446.07 345.90
  Q 445.66 344.70 445.12 344.45
  C 443.48 333.29 439.71 326.40 433.72 315.02
  L 434.00 313.07
  Q 434.15 312.00 434.54 313.00
  Q 436.34 317.66 439.75 321.40
  Q 440.08 321.76 440.01 321.28
  Q 438.96 313.40 438.14 305.48
  C 437.49 299.29 437.70 292.86 437.55 286.48
  C 437.39 279.78 436.17 273.32 435.00 266.75
  C 433.70 259.52 435.45 249.88 435.66 241.68
  Q 435.76 237.95 436.33 230.38
  Q 436.97 222.01 435.97 212.75
  Q 435.81 211.28 434.68 210.96
  Q 434.42 210.89 434.39 211.16
  Q 434.33 211.62 433.89 211.63
  Q 433.63 211.63 433.52 211.40
  Q 432.69 209.58 431.79 207.82
  C 430.20 204.72 430.88 201.81 427.96 198.95
  Q 427.64 198.64 427.40 198.26
  Q 426.58 196.97 427.79 196.77
  A 1.41 1.41 0.0 0 0 428.60 194.44
  L 418.64 183.22
  Z"
/>
<path fill="#000000" fill-opacity="0.447" d="
  M 267.44 188.66
  Q 266.66 190.55 265.52 190.42
  Q 266.09 189.37 267.44 188.66
  Z"
/>
<path fill="#231f20" d="
  M 251.22 195.50
  Q 250.36 195.94 249.88 195.35
  L 250.43 194.15
  Q 252.81 191.42 256.14 190.56
  Q 256.95 190.35 256.50 191.05
  Q 254.63 193.95 251.22 195.50
  Z"
/>
<path fill="#000000" fill-opacity="0.235" d="
  M 250.43 194.15
  L 249.88 195.35
  Q 247.56 197.33 244.96 196.68
  Q 245.48 196.42 244.65 196.37
  A 0.21 0.21 0.0 0 1 244.53 195.99
  L 245.04 195.59
  Q 245.30 195.38 245.64 195.30
  L 250.43 194.15
  Z"
/>
<path fill="#000000" fill-opacity="0.447" d="
  M 249.88 195.35
  Q 250.36 195.94 251.22 195.50
  Q 249.27 198.93 251.41 198.79
  C 248.05 202.25 244.05 202.73 240.89 206.73
  Q 240.47 207.27 240.15 206.66
  Q 239.93 206.24 240.00 205.67
  Q 240.05 205.28 240.41 204.83
  Q 240.99 204.09 241.51 203.29
  Q 241.60 203.15 242.46 202.07
  Q 243.44 200.82 242.44 199.86
  Q 243.31 197.59 244.96 196.68
  Q 247.56 197.33 249.88 195.35
  Z"
/>
<path fill="#000000" fill-opacity="0.235" d="
  M 241.56 200.53
  Q 240.95 201.51 239.91 202.00
  Q 240.16 200.48 241.34 199.72
  Q 241.90 199.36 241.71 200.00
  L 241.56 200.53
  Z"
/>
<path fill="#000000" fill-opacity="0.447" d="
  M 203.90 217.46
  Q 203.33 217.24 202.95 217.49
  Q 202.73 213.68 200.31 209.65
  Q 200.00 209.12 200.31 208.46
  Q 200.63 207.77 200.98 208.44
  L 203.97 214.25
  Q 204.22 214.73 204.16 215.26
  L 203.90 217.46
  Z"
/>
<path fill="#000000" fill-opacity="0.235" d="
  M 225.45 216.12
  L 225.90 220.82
  Q 225.38 221.75 224.31 221.71
  A 0.65 0.62 -21.2 0 1 223.90 221.54
  L 223.02 220.67
  A 0.48 0.48 0.0 0 0 222.21 221.08
  L 222.65 223.84
  L 221.50 226.00
  L 221.21 220.61
  Q 221.18 220.08 221.71 219.97
  L 224.23 219.45
  A 0.47 0.46 -87.6 0 0 224.57 219.13
  L 225.45 216.12
  Z"
/>
<path fill="#000000" fill-opacity="0.447" d="
  M 225.90 220.82
  C 226.41 222.78 226.91 224.31 226.00 226.31
  Q 223.99 230.76 222.12 235.26
  C 221.18 237.50 219.49 238.96 218.19 241.01
  A 0.91 0.91 0.0 0 1 216.52 240.37
  Q 216.81 238.60 215.37 238.30
  A 0.90 0.89 4.9 0 1 214.65 237.45
  Q 214.59 235.65 213.78 234.22
  Q 214.87 234.70 214.97 235.70
  A 0.96 0.96 0.0 0 0 216.80 236.01
  Q 217.53 234.37 217.34 232.11
  Q 217.77 232.29 218.44 231.65
  L 218.23 232.87
  Q 218.14 233.41 218.68 233.39
  Q 222.04 233.31 222.84 229.75
  Q 223.47 226.95 224.99 223.55
  Q 225.29 222.89 224.61 223.13
  L 222.65 223.84
  L 222.21 221.08
  A 0.48 0.48 0.0 0 1 223.02 220.67
  L 223.90 221.54
  A 0.65 0.62 -21.2 0 0 224.31 221.71
  Q 225.38 221.75 225.90 220.82
  Z"
/>
<path fill="#231f20" d="
  M 218.44 231.65
  L 221.50 226.00
  L 222.65 223.84
  L 224.61 223.13
  Q 225.29 222.89 224.99 223.55
  Q 223.47 226.95 222.84 229.75
  Q 222.04 233.31 218.68 233.39
  Q 218.14 233.41 218.23 232.87
  L 218.44 231.65
  Z"
/>
<path fill="#231f20" d="
  M 217.44 226.13
  L 216.83 227.53
  A 0.37 0.37 0.0 0 1 216.12 227.41
  Q 216.02 226.33 216.95 225.72
  Q 217.89 225.11 217.44 226.13
  Z"
/>
<path fill="#000000" fill-opacity="0.235" d="
  M 217.34 232.11
  Q 217.53 234.37 216.80 236.01
  A 0.96 0.96 0.0 0 1 214.97 235.70
  Q 214.87 234.70 213.78 234.22
  Q 213.57 234.08 213.75 233.60
  Q 214.52 234.03 215.11 234.79
  Q 215.45 235.23 215.90 234.89
  Q 216.86 234.15 217.34 232.11
  Z"
/>
<path fill="#000000" fill-opacity="0.235" d="
  M 212.56 235.35
  Q 213.99 238.22 214.05 241.51
  Q 212.59 245.43 213.99 247.52
  Q 214.02 247.82 213.64 248.40
  Q 212.42 247.07 212.66 245.13
  Q 212.66 245.10 212.63 245.12
  Q 212.62 245.12 212.61 245.13
  Q 212.60 245.13 212.60 245.15
  Q 212.60 246.92 213.24 248.59
  A 0.10 0.10 0.0 0 1 213.08 248.70
  Q 211.08 246.85 211.62 244.91
  Q 213.13 239.50 212.56 235.35
  Z"
/>
<path fill="#833e3d" fill-opacity="0.992" d="
  M 428.38 247.50
  Q 426.97 250.55 427.03 256.41
  A 0.32 0.32 0.0 0 1 426.42 256.54
  C 424.61 252.35 427.26 244.61 428.35 240.24
  A 0.61 0.61 0.0 0 1 429.54 240.31
  Q 430.03 243.93 428.38 247.50
  Z"
/>
<path fill="#000000" fill-opacity="0.447" d="
  M 214.05 241.51
  Q 216.05 245.08 213.99 247.52
  Q 212.59 245.43 214.05 241.51
  Z"
/>
<path fill="#000000" fill-opacity="0.235" d="
  M 213.23 250.20
  L 210.53 255.32
  Q 210.21 254.72 210.60 253.94
  A 0.29 0.29 0.0 0 0 210.14 253.60
  L 209.83 253.91
  A 1.13 1.13 0.0 0 1 208.87 254.23
  Q 206.10 253.82 205.13 250.95
  A 0.45 0.45 0.0 0 1 205.58 250.36
  Q 207.87 250.50 209.96 250.52
  Q 210.70 250.53 211.34 251.24
  Q 211.49 251.41 211.58 251.21
  Q 211.96 250.33 213.23 250.20
  Z"
/>
<path fill="#000000" fill-opacity="0.235" d="
  M 209.47 256.26
  L 207.42 257.44
  Q 207.67 255.70 209.47 256.26
  Z"
/>
<path fill="#000000" fill-opacity="0.235" d="
  M 199.94 268.24
  L 200.13 269.68
  Q 200.20 270.20 200.68 269.99
  L 203.16 268.91
  L 202.21 270.77
  Q 200.62 271.50 200.68 273.61
  Q 200.69 274.14 200.22 273.91
  Q 198.57 273.09 198.89 271.03
  L 199.94 268.24
  Z"
/>
<path fill="#000000" fill-opacity="0.447" d="
  M 198.89 271.03
  Q 198.57 273.09 200.22 273.91
  Q 200.69 274.14 200.68 273.61
  Q 200.62 271.50 202.21 270.77
  L 202.45 271.77
  Q 202.65 272.59 203.10 271.88
  Q 203.85 270.69 205.38 270.65
  A 0.82 0.82 0.0 0 1 206.08 271.92
  L 204.41 274.41
  Q 204.09 274.89 203.60 274.60
  Q 202.50 273.96 202.56 272.74
  A 0.41 0.41 0.0 0 0 201.87 272.41
  Q 201.21 272.99 201.67 273.90
  Q 202.14 274.81 203.42 276.16
  Q 203.85 276.60 203.75 277.21
  L 203.01 281.34
  A 0.54 0.54 0.0 0 1 201.95 281.31
  L 201.50 277.28
  A 0.91 0.90 -76.2 0 0 201.12 276.65
  Q 198.13 274.59 198.89 271.03
  Z"
/>
<path fill="#833e3d" fill-opacity="0.992" d="
  M 433.72 315.02
  C 439.71 326.40 443.48 333.29 445.12 344.45
  Q 445.43 356.69 446.33 368.88
  C 446.69 373.71 446.48 377.89 445.78 382.35
  Q 445.53 383.95 445.51 382.34
  Q 445.26 365.46 443.49 348.01
  Q 442.92 342.39 441.40 336.98
  C 439.82 331.33 436.34 325.48 433.59 319.86
  C 430.44 313.41 431.63 307.43 430.67 300.64
  C 429.98 295.69 429.05 291.12 429.67 286.09
  Q 430.20 281.81 430.66 278.79
  Q 431.37 274.14 431.64 278.84
  C 431.94 283.92 429.88 288.28 431.35 293.48
  Q 432.33 296.91 432.45 298.64
  Q 433.03 306.88 433.72 315.02
  Z"
/>
<path fill="#000000" fill-opacity="0.235" d="
  M 207.50 340.86
  C 209.35 348.42 211.27 355.46 214.43 362.81
  Q 218.55 372.37 222.73 381.91
  C 226.28 389.99 227.64 399.99 229.98 407.26
  Q 230.40 408.57 232.36 411.18
  Q 235.70 416.27 235.67 418.24
  Q 235.66 419.37 235.14 419.29
  A 0.80 0.79 -16.6 0 0 234.43 420.60
  Q 236.56 423.02 238.19 425.50
  Q 240.71 429.35 243.45 433.16
  A 0.22 0.22 0.0 0 0 243.85 432.99
  Q 243.73 432.32 244.26 431.83
  A 0.42 0.42 0.0 0 1 244.94 432.28
  Q 244.49 433.57 245.46 434.24
  Q 245.87 434.52 246.04 434.98
  Q 246.46 436.14 247.55 436.92
  L 253.27 445.24
  L 254.06 446.78
  A 0.39 0.39 0.0 0 1 253.55 447.31
  L 251.99 446.62
  A 0.57 0.56 -72.9 0 1 251.67 446.00
  Q 251.77 445.42 251.08 445.69
  Q 250.64 445.86 250.87 446.28
  L 254.17 452.38
  Q 254.43 452.86 254.97 452.92
  Q 255.41 452.97 255.84 453.11
  Q 256.35 453.26 256.35 453.80
  L 256.32 455.29
  L 253.40 463.01
  Q 252.83 462.43 253.29 461.73
  Q 253.82 460.93 253.86 460.73
  Q 254.06 459.73 253.12 459.14
  Q 252.69 458.86 252.69 458.36
  Q 252.66 456.25 252.11 455.25
  Q 249.45 450.48 246.97 445.61
  Q 244.48 440.73 241.53 436.20
  C 238.83 432.04 236.29 427.80 233.54 423.68
  Q 232.14 421.58 230.97 418.84
  Q 227.69 411.16 226.15 403.70
  Q 225.69 401.45 224.40 398.30
  Q 223.31 395.63 222.86 392.74
  C 222.68 391.60 221.18 390.30 220.70 388.94
  Q 219.51 385.53 216.28 378.35
  Q 213.88 372.99 208.79 357.10
  C 208.00 354.64 207.76 351.63 206.78 348.94
  A 0.81 0.81 0.0 0 1 206.89 348.18
  Q 207.99 346.62 207.89 344.74
  Q 207.87 344.35 207.48 344.37
  Q 207.34 344.37 207.21 344.37
  Q 207.08 344.37 207.05 344.49
  L 206.75 345.75
  A 0.30 0.30 0.0 0 1 206.16 345.70
  Q 206.01 343.16 207.50 340.86
  Z"
/>
<path fill="#000000" fill-opacity="0.447" d="
  M 232.36 411.18
  Q 234.94 413.54 235.98 417.30
  A 1.12 1.08 -86.1 0 0 236.57 418.00
  Q 239.10 419.20 240.37 421.58
  Q 244.38 429.10 247.55 436.92
  Q 246.46 436.14 246.04 434.98
  Q 245.87 434.52 245.46 434.24
  Q 244.49 433.57 244.94 432.28
  A 0.42 0.42 0.0 0 0 244.26 431.83
  Q 243.73 432.32 243.85 432.99
  A 0.22 0.22 0.0 0 1 243.45 433.16
  Q 240.71 429.35 238.19 425.50
  Q 236.56 423.02 234.43 420.60
  A 0.80 0.79 -16.6 0 1 235.14 419.29
  Q 235.66 419.37 235.67 418.24
  Q 235.70 416.27 232.36 411.18
  Z
  M 242.89 428.23
  Q 242.94 427.74 242.64 427.32
  A 0.34 0.33 25.0 0 0 242.03 427.54
  Q 242.19 429.35 243.13 430.88
  Q 243.56 431.58 243.83 430.81
  Q 244.24 429.61 243.20 428.92
  Q 242.83 428.67 242.89 428.23
  Z"
/>
<path fill="#000000" fill-opacity="0.235" d="
  M 243.20 428.92
  Q 244.24 429.61 243.83 430.81
  Q 243.56 431.58 243.13 430.88
  Q 242.19 429.35 242.03 427.54
  A 0.34 0.33 25.0 0 1 242.64 427.32
  Q 242.94 427.74 242.89 428.23
  Q 242.83 428.67 243.20 428.92
  Z"
/>
<path fill="#000000" fill-opacity="0.447" d="
  M 253.27 445.24
  Q 255.41 447.66 257.75 449.75
  Q 258.25 450.19 257.99 451.59
  L 256.32 455.29
  L 256.35 453.80
  Q 256.35 453.26 255.84 453.11
  Q 255.41 452.97 254.97 452.92
  Q 254.43 452.86 254.17 452.38
  L 250.87 446.28
  Q 250.64 445.86 251.08 445.69
  Q 251.77 445.42 251.67 446.00
  A 0.57 0.56 -72.9 0 0 251.99 446.62
  L 253.55 447.31
  A 0.39 0.39 0.0 0 0 254.06 446.78
  L 253.27 445.24
  Z"
/>
<path fill="#833e3d" fill-opacity="0.992" d="
  M 145.47 526.79
  Q 150.53 522.31 152.13 521.28
  C 156.64 518.39 162.61 519.14 167.32 518.23
  Q 183.00 515.20 196.45 510.45
  Q 198.19 509.84 199.14 508.41
  L 204.82 502.92
  L 207.38 501.59
  L 211.60 500.26
  L 215.48 498.97
  L 217.45 498.03
  Q 219.23 497.67 220.71 496.44
  L 223.93 495.07
  L 230.42 492.49
  Q 230.92 492.32 231.10 492.07
  Q 233.06 491.50 234.63 489.96
  Q 235.58 489.70 236.14 488.89
  L 240.17 485.70
  Q 250.25 477.01 253.40 463.01
  L 256.32 455.29
  L 257.99 451.59
  Q 258.52 450.55 258.74 450.62
  A 0.79 0.71 21.0 0 1 259.24 451.60
  Q 255.37 460.71 252.62 469.25
  Q 249.99 477.40 242.78 484.25
  C 237.42 489.33 233.05 492.93 226.46 495.36
  C 220.79 497.44 216.06 500.45 210.30 501.98
  Q 206.83 502.91 204.96 504.24
  C 201.80 506.49 199.45 510.57 195.85 511.81
  Q 181.35 516.79 166.22 519.43
  C 162.40 520.10 155.40 519.36 152.59 522.20
  Q 149.59 525.22 145.47 526.79
  Z"
/>
<path fill="#833e3d" fill-opacity="0.992" d="
  M 411.31 465.24
  C 414.19 468.60 419.23 468.73 423.38 469.75
  Q 428.77 473.14 435.33 475.48
  Q 439.92 475.50 444.50 475.92
  C 448.49 476.28 451.30 477.98 454.76 479.68
  L 457.86 480.96
  L 459.96 482.04
  Q 465.74 485.35 472.75 485.25
  Q 474.02 485.91 475.19 485.88
  L 481.05 489.35
  L 488.04 490.30
  L 506.23 492.35
  Q 507.31 493.24 509.05 493.25
  L 521.87 496.68
  L 525.65 497.24
  L 533.02 499.97
  Q 538.91 504.69 542.00 505.95
  Q 559.33 513.05 575.99 521.90
  C 579.24 524.41 580.68 527.55 583.30 530.63
  Q 584.59 532.15 585.36 533.88
  Q 585.29 534.03 585.23 534.14
  A 0.71 0.71 0.0 0 1 584.14 534.28
  Q 580.36 530.68 577.94 525.82
  Q 577.53 525.00 575.49 523.88
  Q 559.42 515.08 542.51 508.07
  C 538.55 506.42 535.67 503.96 532.23 501.54
  C 528.36 498.81 520.07 497.99 516.88 497.17
  Q 511.65 495.82 506.49 494.20
  C 501.80 492.73 497.50 493.31 492.76 492.44
  Q 488.30 491.62 483.74 491.86
  C 479.25 492.10 476.49 487.05 471.57 486.96
  Q 466.02 486.87 463.45 485.63
  Q 455.03 481.60 446.64 477.58
  Q 444.72 476.66 439.91 477.25
  C 430.98 478.34 426.56 471.11 417.10 469.93
  C 412.34 469.34 410.56 468.12 408.06 464.39
  A 0.68 0.68 0.0 0 1 409.05 463.47
  L 411.31 465.24
  Z"
/>
<path fill="#000000" fill-opacity="0.235" d="
  M 472.75 485.25
  Q 465.74 485.35 459.96 482.04
  Q 461.79 481.43 462.16 482.45
  Q 462.93 482.99 463.94 482.86
  Q 464.57 482.78 464.04 482.43
  Q 461.56 480.74 458.64 480.22
  Q 458.10 480.12 458.15 479.57
  Q 458.23 478.69 457.26 478.88
  A 0.37 0.36 19.9 0 1 456.96 478.24
  Q 457.58 477.73 458.23 477.94
  Q 465.69 480.32 473.00 483.15
  Q 473.43 483.32 473.19 483.71
  Q 472.79 484.39 472.75 485.25
  Z"
/>
<path fill="#000000" fill-opacity="0.235" d="
  M 457.86 480.96
  L 454.76 479.68
  Q 458.17 479.42 457.86 480.96
  Z"
/>
<path fill="#000000" fill-opacity="0.235" d="
  M 240.17 485.70
  L 236.14 488.89
  Q 238.05 485.12 240.17 485.70
  Z"
/>
<path fill="#000000" fill-opacity="0.235" d="
  M 480.24 486.87
  Q 479.76 486.76 479.88 486.09
  A 0.47 0.47 0.0 0 1 480.48 485.72
  L 485.95 487.33
  Q 486.43 487.47 485.99 487.72
  Q 483.05 489.37 480.69 487.11
  Q 480.50 486.93 480.24 486.87
  Z"
/>
<path fill="#000000" fill-opacity="0.235" d="
  M 475.19 485.88
  Q 478.68 486.71 481.05 489.35
  L 475.19 485.88
  Z"
/>
<path fill="#000000" fill-opacity="0.235" d="
  M 488.04 490.30
  L 481.05 489.35
  Q 486.36 487.47 488.04 490.30
  Z"
/>
<path fill="#000000" fill-opacity="0.235" d="
  M 234.63 489.96
  Q 233.06 491.50 231.10 492.07
  Q 231.83 489.92 234.63 489.96
  Z"
/>
<path fill="#000000" fill-opacity="0.235" d="
  M 230.42 492.49
  L 223.93 495.07
  Q 223.94 493.16 225.95 493.73
  Q 226.38 493.85 226.67 493.52
  Q 228.05 491.96 230.42 492.49
  Z"
/>
<path fill="#000000" fill-opacity="0.235" d="
  M 509.05 493.25
  Q 507.31 493.24 506.23 492.35
  Q 508.40 491.61 509.05 493.25
  Z"
/>
<path fill="#000000" fill-opacity="0.235" d="
  M 220.71 496.44
  Q 219.23 497.67 217.45 498.03
  Q 218.72 496.07 220.71 496.44
  Z"
/>
<path fill="#000000" fill-opacity="0.235" d="
  M 525.65 497.24
  L 521.87 496.68
  Q 524.28 495.73 525.65 497.24
  Z"
/>
<path fill="#000000" fill-opacity="0.235" d="
  M 217.45 498.03
  L 215.48 498.97
  Q 215.13 498.32 215.75 498.00
  Q 216.45 497.64 217.45 498.03
  Z"
/>
<path fill="#000000" fill-opacity="0.235" d="
  M 595.47 564.95
  L 595.35 563.20
  Q 596.04 558.56 598.56 555.17
  Q 598.87 554.76 598.88 554.25
  Q 599.28 532.38 580.34 522.24
  A 0.37 0.37 0.0 0 0 579.84 522.74
  L 580.00 523.03
  A 0.66 0.66 0.0 0 1 578.91 523.77
  Q 577.60 522.17 575.99 521.90
  Q 559.33 513.05 542.00 505.95
  Q 538.91 504.69 533.02 499.97
  Q 534.43 499.57 534.85 500.24
  Q 535.09 500.63 535.54 500.63
  L 535.86 500.63
  Q 536.06 500.63 535.93 500.47
  L 534.39 498.70
  Q 533.94 498.18 534.63 498.17
  C 537.11 498.14 538.78 499.61 540.77 500.10
  Q 543.06 500.66 543.74 501.02
  Q 551.64 505.34 559.69 509.39
  Q 560.55 509.83 565.79 511.80
  Q 568.62 512.87 571.67 514.80
  Q 577.91 518.74 581.86 520.65
  Q 587.09 523.18 590.63 526.77
  Q 590.65 526.80 591.67 528.20
  C 592.17 528.90 592.93 529.13 593.50 529.82
  Q 595.73 532.53 597.67 537.49
  Q 601.66 547.70 600.79 557.13
  Q 600.74 557.60 600.30 557.77
  L 598.15 558.59
  Q 597.75 558.74 597.60 559.14
  L 595.47 564.95
  Z"
/>
<path fill="#000000" fill-opacity="0.235" d="
  M 211.60 500.26
  L 207.38 501.59
  Q 209.52 499.08 211.60 500.26
  Z"
/>
<path fill="#000000" fill-opacity="0.235" d="
  M 204.82 502.92
  L 199.14 508.41
  Q 200.86 504.19 204.82 502.92
  Z"
/>
<path fill="#000000" fill-opacity="0.447" d="
  M 575.99 521.90
  Q 577.60 522.17 578.91 523.77
  A 0.66 0.66 0.0 0 0 580.00 523.03
  L 579.84 522.74
  A 0.37 0.37 0.0 0 1 580.34 522.24
  Q 599.28 532.38 598.88 554.25
  Q 598.87 554.76 598.56 555.17
  Q 596.04 558.56 595.35 563.20
  Q 592.83 554.33 590.85 545.76
  Q 590.00 542.05 587.74 539.05
  Q 587.44 538.65 586.98 538.46
  C 585.22 537.72 585.78 535.61 585.36 533.88
  Q 584.59 532.15 583.30 530.63
  C 580.68 527.55 579.24 524.41 575.99 521.90
  Z"
/>
<path fill="#000000" fill-opacity="0.447" d="
  M 595.15 633.93
  Q 596.06 640.90 594.24 648.00
  L 595.15 633.93
  Z"
/>
<path fill="#000000" fill-opacity="0.447" d="
  M 148.57 646.81
  Q 151.51 646.59 153.83 647.89
  Q 154.27 648.14 154.34 648.63
  Q 154.37 648.82 154.38 649.04
  Q 154.39 649.38 154.72 649.44
  C 156.60 649.79 158.28 650.69 160.16 650.62
  Q 164.45 650.44 168.75 650.34
  Q 169.35 650.33 169.72 650.55
  Q 170.12 650.80 170.60 650.81
  C 184.24 651.17 198.15 651.87 211.49 651.87
  Q 377.48 651.89 543.46 651.88
  C 547.11 651.88 552.21 651.51 556.62 651.70
  Q 558.13 651.76 562.77 652.77
  Q 565.99 653.47 569.68 653.32
  Q 567.66 654.28 564.96 654.06
  Q 558.73 655.96 552.33 655.60
  Q 544.20 655.14 544.15 655.14
  Q 378.20 655.12 212.25 655.13
  Q 204.51 655.13 192.29 655.93
  Q 179.56 656.77 166.78 656.64
  Q 166.08 656.64 165.25 656.40
  C 163.40 655.88 161.32 656.19 161.03 653.71
  Q 160.97 653.19 160.51 652.95
  L 152.11 648.50
  L 148.57 646.81
  Z"
/>
<path fill="#000000" fill-opacity="0.235" d="
  M 152.11 648.50
  L 160.51 652.95
  Q 160.97 653.19 161.03 653.71
  C 161.32 656.19 163.40 655.88 165.25 656.40
  Q 166.08 656.64 166.78 656.64
  Q 179.56 656.77 192.29 655.93
  Q 204.51 655.13 212.25 655.13
  Q 378.20 655.12 544.15 655.14
  Q 544.20 655.14 552.33 655.60
  Q 558.73 655.96 564.96 654.06
  L 566.57 654.17
  Q 567.12 654.21 566.72 654.59
  L 562.08 659.02
  Q 561.68 659.39 561.14 659.45
  Q 556.29 659.95 551.50 659.67
  Q 546.50 659.38 541.50 659.37
  Q 377.59 659.11 213.67 659.12
  C 207.43 659.12 200.66 659.24 194.23 659.70
  Q 179.25 660.75 164.25 659.61
  Q 160.64 659.33 157.61 657.48
  A 0.59 0.58 -74.5 0 1 157.33 656.98
  L 157.27 653.13
  Q 157.27 652.58 156.84 652.25
  L 152.11 648.50
  Z"
/>
</svg>
