<?xml version="1.0" encoding="UTF-8" standalone="no"?>
<!DOCTYPE svg PUBLIC "-//W3C//DTD SVG 1.1//EN" "http://www.w3.org/Graphics/SVG/1.1/DTD/svg11.dtd">
<svg xmlns="http://www.w3.org/2000/svg" version="1.1" viewBox="0.00 0.00 1080.00 720.00">
<g stroke-width="2.00" fill="none" stroke-linecap="butt">
<path stroke="#a1c6cf" vector-effect="non-scaling-stroke" d="
  M 234.09 364.47
  Q 232.01 355.11 228.99 343.03
  C 226.99 335.02 221.41 327.89 212.82 327.18
  Q 206.46 326.65 203.48 327.41
  Q 189.72 330.93 189.73 344.98
  Q 189.73 375.73 189.75 406.46
  C 189.76 413.38 191.01 418.43 197.44 421.06
  C 199.92 422.08 203.08 421.77 205.86 421.78
  C 215.30 421.80 218.61 415.45 218.76 406.93
  Q 219.07 389.09 218.55 371.26
  Q 218.51 369.82 219.34 369.52
  A 0.79 0.79 0.0 0 1 220.39 370.23
  Q 220.73 377.34 221.97 384.11
  C 223.76 393.90 225.19 403.02 226.73 412.50
  Q 227.58 417.81 232.60 420.64
  C 235.31 422.17 238.57 421.80 241.67 421.81
  C 247.88 421.82 251.57 419.17 253.06 413.22
  Q 256.31 400.27 257.04 386.93
  Q 257.05 386.65 257.27 386.47
  C 257.50 386.30 257.66 386.02 257.70 385.71
  Q 258.70 378.35 259.83 371.01
  Q 259.96 370.17 260.36 369.61
  A 0.55 0.55 0.0 0 1 261.36 369.90
  C 262.07 382.12 261.50 394.40 261.40 406.61
  Q 261.36 411.88 262.66 414.60
  C 266.19 421.98 272.09 422.04 279.50 421.69
  C 287.78 421.31 290.82 414.35 290.85 407.01
  Q 290.96 378.83 290.96 350.63
  C 290.97 340.05 290.23 332.46 280.23 328.36
  C 276.55 326.85 270.15 326.78 266.73 327.17
  C 257.73 328.20 252.24 337.42 250.28 345.76
  Q 245.28 367.03 240.69 388.06
  A 0.64 0.64 0.0 0 1 239.44 388.05
  Q 238.31 382.10 236.88 376.22
  Q 234.95 368.32 234.09 364.47"
/>
<path stroke="#a1c6cf" vector-effect="non-scaling-stroke" d="
  M 447.29 352.14
  Q 448.53 352.17 447.44 352.76
  C 440.77 356.33 439.53 358.74 439.52 366.67
  Q 439.50 387.02 439.44 407.38
  C 439.42 413.68 440.24 418.22 445.96 420.90
  C 449.60 422.60 458.34 422.33 461.60 420.03
  C 465.84 417.05 466.63 413.26 466.60 407.89
  Q 466.39 375.35 466.65 365.00
  Q 466.89 355.48 458.13 352.90
  A 0.42 0.42 0.0 0 1 458.24 352.07
  C 466.85 351.92 468.61 341.52 466.55 334.99
  Q 464.21 327.53 456.74 327.13
  Q 448.98 326.72 446.99 327.48
  C 437.96 330.91 435.64 342.06 441.77 349.24
  Q 444.19 352.06 447.29 352.14"
/>
<path stroke="#a1c6cf" vector-effect="non-scaling-stroke" d="
  M 804.72 352.95
  C 797.21 355.02 796.23 359.92 796.25 367.38
  Q 796.29 387.05 796.28 406.72
  C 796.28 413.82 796.84 419.06 803.91 421.33
  C 806.11 422.04 808.98 421.78 811.43 421.78
  C 816.51 421.78 820.28 419.89 822.25 415.28
  Q 823.21 413.03 823.23 408.07
  Q 823.41 377.63 823.28 363.25
  C 823.23 357.39 819.88 355.24 815.24 352.78
  Q 814.54 352.41 815.32 352.28
  C 826.78 350.33 826.93 331.57 816.91 327.89
  C 814.36 326.95 807.41 326.73 805.01 327.26
  C 792.20 330.06 791.39 350.20 804.69 352.45
  Q 805.82 352.64 804.72 352.95"
/>
<path stroke="#a1c6cf" vector-effect="non-scaling-stroke" d="
  M 365.21 376.52
  C 363.41 366.64 356.21 358.19 346.95 354.63
  Q 343.14 353.17 336.32 352.77
  Q 328.16 352.29 325.46 352.73
  Q 310.09 355.22 302.57 367.46
  Q 299.32 372.73 298.15 379.63
  C 295.02 397.96 301.56 415.90 320.75 420.94
  C 325.08 422.08 329.89 421.73 334.57 421.78
  Q 340.96 421.85 344.88 420.70
  Q 363.20 415.37 365.59 394.23
  Q 366.68 384.55 365.21 376.52"
/>
<path stroke="#a1c6cf" vector-effect="non-scaling-stroke" d="
  M 402.89 392.05
  Q 396.30 370.82 392.13 359.63
  Q 390.89 356.30 387.89 354.43
  Q 385.62 353.00 381.74 352.79
  C 375.23 352.42 369.39 353.78 367.14 360.79
  C 365.45 366.04 366.79 368.45 368.81 374.68
  Q 373.81 390.13 379.40 405.35
  C 382.74 414.46 390.78 422.13 400.90 421.81
  C 404.97 421.69 409.14 422.28 412.71 420.64
  Q 418.92 417.78 421.93 411.22
  Q 425.47 403.48 427.55 395.23
  C 427.81 394.20 428.61 393.34 428.83 392.49
  Q 430.49 385.95 432.63 379.57
  C 435.42 371.22 437.32 360.57 428.85 354.81
  Q 426.21 353.01 421.97 352.73
  C 413.80 352.19 406.60 353.56 403.27 361.96
  C 398.64 373.64 409.58 379.08 413.32 388.18
  Q 414.78 391.74 414.96 394.75
  C 415.19 398.45 411.96 400.45 408.64 399.76
  Q 406.58 399.34 405.88 397.88
  C 404.94 395.92 403.51 394.06 402.89 392.05"
/>
<path stroke="#a1c6cf" vector-effect="non-scaling-stroke" d="
  M 535.31 364.88
  Q 535.23 364.65 535.07 364.43
  C 526.72 353.55 516.45 352.29 503.51 352.76
  C 485.23 353.44 473.69 367.23 472.87 385.24
  Q 471.53 414.52 498.51 421.15
  C 502.58 422.15 507.39 421.73 511.74 421.74
  Q 518.43 421.75 521.67 420.97
  C 530.34 418.89 538.75 414.11 538.13 403.76
  Q 537.26 389.56 522.97 390.33
  Q 517.15 390.65 511.55 392.11
  C 505.21 393.77 501.04 393.17 496.84 388.16
  A 1.58 1.58 0.0 0 1 498.06 385.57
  Q 512.48 385.68 527.60 385.67
  C 532.86 385.67 537.14 381.80 537.80 376.48
  Q 538.49 370.86 535.63 365.81
  A 1.08 0.02 72.1 0 1 535.31 364.88"
/>
<path stroke="#a1c6cf" vector-effect="non-scaling-stroke" d="
  M 605.38 368.56
  Q 605.30 368.06 605.04 366.05
  C 603.60 354.78 594.98 351.68 584.89 352.74
  C 578.39 353.42 572.93 356.43 571.43 362.87
  Q 571.14 364.11 570.78 362.88
  C 568.24 354.25 564.02 352.01 555.19 352.60
  Q 547.62 353.10 544.65 359.62
  Q 543.17 362.88 543.15 370.06
  Q 543.08 388.81 543.23 407.56
  Q 543.28 412.99 544.68 415.70
  C 547.75 421.65 553.93 422.10 560.14 421.75
  C 567.41 421.35 570.96 415.83 570.98 408.75
  Q 571.02 396.62 570.85 384.50
  C 570.82 381.97 571.46 377.14 575.01 377.13
  C 577.53 377.13 578.73 380.96 578.80 382.74
  Q 579.10 390.65 578.87 408.43
  C 578.77 416.55 583.67 421.98 591.76 421.86
  C 595.46 421.80 598.62 422.10 601.64 420.01
  C 605.72 417.19 606.67 413.72 606.61 408.56
  Q 606.54 402.28 606.52 389.25
  C 606.51 385.68 606.35 374.94 612.93 377.53
  A 1.29 1.29 0.0 0 1 613.60 378.14
  Q 615.12 381.20 615.18 383.25
  Q 615.33 388.45 615.23 406.30
  Q 615.19 412.37 616.40 415.01
  C 619.41 421.59 625.15 421.91 631.72 421.76
  C 638.41 421.61 643.10 416.96 643.31 410.27
  C 643.47 405.23 642.91 400.08 643.13 395.25
  Q 643.62 384.76 643.16 374.26
  C 642.84 366.85 641.06 358.40 634.39 354.65
  C 630.82 352.65 621.01 351.94 617.76 352.99
  Q 605.64 356.90 605.89 368.51
  Q 605.98 372.39 605.38 368.56"
/>
<path stroke="#a1c6cf" vector-effect="non-scaling-stroke" d="
  M 689.25 410.06
  C 690.62 415.39 691.68 419.65 697.58 421.39
  C 699.72 422.02 702.90 421.82 705.33 421.76
  C 712.55 421.58 716.66 416.82 716.74 409.50
  Q 716.94 391.72 716.53 380.50
  Q 716.38 376.31 714.32 370.48
  C 708.07 352.80 692.38 351.88 676.38 352.89
  C 667.12 353.48 651.32 358.50 653.37 370.93
  C 656.85 391.99 688.06 371.01 689.31 383.52
  A 0.85 0.84 -80.1 0 1 688.11 384.37
  C 682.13 381.49 673.96 382.32 667.50 382.61
  Q 662.38 382.85 657.33 385.36
  C 650.18 388.92 648.74 394.58 648.62 402.36
  Q 648.41 416.03 661.31 420.92
  C 665.54 422.53 676.79 422.15 680.54 421.06
  Q 688.10 418.87 689.11 410.07
  Q 689.16 409.68 689.25 410.06"
/>
<path stroke="#a1c6cf" vector-effect="non-scaling-stroke" d="
  M 750.36 368.17
  C 750.36 365.58 750.57 362.82 749.78 360.53
  C 748.25 356.06 744.95 353.07 740.03 352.79
  C 735.88 352.55 731.71 352.30 728.32 354.83
  Q 723.01 358.80 723.06 366.26
  Q 723.19 387.42 723.21 408.60
  Q 723.21 413.19 724.50 415.69
  Q 727.15 420.81 733.00 421.75
  C 735.96 422.22 742.00 422.09 745.07 420.33
  Q 750.92 416.99 750.71 410.01
  Q 750.34 398.02 750.70 386.03
  Q 750.77 383.44 751.15 382.01
  C 753.47 373.02 761.68 377.51 761.67 384.75
  Q 761.64 395.08 761.56 405.41
  C 761.51 412.93 762.42 418.38 769.57 421.15
  C 772.85 422.43 780.34 422.14 783.35 420.67
  Q 789.59 417.63 789.91 410.01
  Q 790.28 401.48 790.06 379.76
  C 789.98 370.75 787.09 357.45 778.13 353.91
  C 774.77 352.58 766.26 352.16 763.27 353.02
  Q 751.74 356.33 750.45 368.17
  Q 750.37 368.96 750.36 368.17"
/>
<path stroke="#a1c6cf" vector-effect="non-scaling-stroke" d="
  M 869.81 410.30
  Q 870.38 418.33 877.22 421.16
  C 880.41 422.47 888.30 422.09 891.21 420.54
  Q 897.11 417.40 897.07 410.50
  Q 897.02 398.74 897.00 386.97
  Q 897.00 382.45 896.56 379.05
  Q 895.90 373.86 895.01 371.24
  C 888.90 353.27 873.98 352.05 857.70 352.81
  C 848.66 353.23 831.63 357.96 833.76 370.64
  Q 835.32 379.93 844.65 380.99
  Q 846.94 381.25 853.85 380.16
  C 859.08 379.33 865.43 377.59 869.68 382.14
  A 1.29 1.29 0.0 0 1 868.36 384.25
  C 866.36 383.62 864.65 382.76 862.45 382.61
  Q 851.16 381.84 846.25 382.56
  C 837.93 383.80 830.40 388.10 829.33 397.25
  C 828.10 407.78 830.70 417.06 840.90 420.68
  C 845.38 422.28 854.44 422.13 858.72 421.58
  Q 868.26 420.34 869.50 410.30
  A 0.16 0.15 -44.4 0 1 869.81 410.30"
/>
<path stroke="#a1c6cf" vector-effect="non-scaling-stroke" d="
  M 318.32 388.65
  C 327.16 391.33 334.26 392.17 343.21 389.48
  C 351.16 387.09 348.01 379.85 341.50 379.27
  C 337.24 378.88 320.14 377.55 316.70 381.97
  C 315.18 383.93 315.46 387.78 318.32 388.65"
/>
<path stroke="#a1c6cf" vector-effect="non-scaling-stroke" d="
  M 497.32 380.28
  L 515.66 380.16
  A 0.02 0.02 0.0 0 0 515.68 380.14
  L 515.68 380.07
  A 8.11 5.19 -0.4 0 0 507.53 374.93
  L 505.37 374.95
  A 8.11 5.19 -0.4 0 0 497.30 380.19
  L 497.30 380.26
  A 0.02 0.02 0.0 0 0 497.32 380.28"
/>
<path stroke="#a1c6cf" vector-effect="non-scaling-stroke" d="
  M 687.0562 391.7738
  A 1.97 1.97 0.0 0 0 685.0760 389.8142
  L 675.1961 389.8659
  A 1.97 1.97 0.0 0 0 673.2364 391.8462
  L 673.2438 393.2462
  A 1.97 1.97 0.0 0 0 675.2240 395.2058
  L 685.1039 395.1541
  A 1.97 1.97 0.0 0 0 687.0636 393.1738
  L 687.0562 391.7738"
/>
<path stroke="#a1c6cf" vector-effect="non-scaling-stroke" d="
  M 867.4292 392.0178
  A 2.15 2.15 0.0 0 0 865.2754 389.8716
  L 855.5954 389.8885
  A 2.15 2.15 0.0 0 0 853.4492 392.0422
  L 853.4508 393.0022
  A 2.15 2.15 0.0 0 0 855.6046 395.1484
  L 865.2846 395.1315
  A 2.15 2.15 0.0 0 0 867.4308 392.9778
  L 867.4292 392.0178"
/>
</g>
<path fill="#428d9e" d="
  M 0.00 0.00
  L 1080.00 0.00
  L 1080.00 720.00
  L 0.00 720.00
  L 0.00 0.00
  Z
  M 234.09 364.47
  Q 232.01 355.11 228.99 343.03
  C 226.99 335.02 221.41 327.89 212.82 327.18
  Q 206.46 326.65 203.48 327.41
  Q 189.72 330.93 189.73 344.98
  Q 189.73 375.73 189.75 406.46
  C 189.76 413.38 191.01 418.43 197.44 421.06
  C 199.92 422.08 203.08 421.77 205.86 421.78
  C 215.30 421.80 218.61 415.45 218.76 406.93
  Q 219.07 389.09 218.55 371.26
  Q 218.51 369.82 219.34 369.52
  A 0.79 0.79 0.0 0 1 220.39 370.23
  Q 220.73 377.34 221.97 384.11
  C 223.76 393.90 225.19 403.02 226.73 412.50
  Q 227.58 417.81 232.60 420.64
  C 235.31 422.17 238.57 421.80 241.67 421.81
  C 247.88 421.82 251.57 419.17 253.06 413.22
  Q 256.31 400.27 257.04 386.93
  Q 257.05 386.65 257.27 386.47
  C 257.50 386.30 257.66 386.02 257.70 385.71
  Q 258.70 378.35 259.83 371.01
  Q 259.96 370.17 260.36 369.61
  A 0.55 0.55 0.0 0 1 261.36 369.90
  C 262.07 382.12 261.50 394.40 261.40 406.61
  Q 261.36 411.88 262.66 414.60
  C 266.19 421.98 272.09 422.04 279.50 421.69
  C 287.78 421.31 290.82 414.35 290.85 407.01
  Q 290.96 378.83 290.96 350.63
  C 290.97 340.05 290.23 332.46 280.23 328.36
  C 276.55 326.85 270.15 326.78 266.73 327.17
  C 257.73 328.20 252.24 337.42 250.28 345.76
  Q 245.28 367.03 240.69 388.06
  A 0.64 0.64 0.0 0 1 239.44 388.05
  Q 238.31 382.10 236.88 376.22
  Q 234.95 368.32 234.09 364.47
  Z
  M 447.29 352.14
  Q 448.53 352.17 447.44 352.76
  C 440.77 356.33 439.53 358.74 439.52 366.67
  Q 439.50 387.02 439.44 407.38
  C 439.42 413.68 440.24 418.22 445.96 420.90
  C 449.60 422.60 458.34 422.33 461.60 420.03
  C 465.84 417.05 466.63 413.26 466.60 407.89
  Q 466.39 375.35 466.65 365.00
  Q 466.89 355.48 458.13 352.90
  A 0.42 0.42 0.0 0 1 458.24 352.07
  C 466.85 351.92 468.61 341.52 466.55 334.99
  Q 464.21 327.53 456.74 327.13
  Q 448.98 326.72 446.99 327.48
  C 437.96 330.91 435.64 342.06 441.77 349.24
  Q 444.19 352.06 447.29 352.14
  Z
  M 804.72 352.95
  C 797.21 355.02 796.23 359.92 796.25 367.38
  Q 796.29 387.05 796.28 406.72
  C 796.28 413.82 796.84 419.06 803.91 421.33
  C 806.11 422.04 808.98 421.78 811.43 421.78
  C 816.51 421.78 820.28 419.89 822.25 415.28
  Q 823.21 413.03 823.23 408.07
  Q 823.41 377.63 823.28 363.25
  C 823.23 357.39 819.88 355.24 815.24 352.78
  Q 814.54 352.41 815.32 352.28
  C 826.78 350.33 826.93 331.57 816.91 327.89
  C 814.36 326.95 807.41 326.73 805.01 327.26
  C 792.20 330.06 791.39 350.20 804.69 352.45
  Q 805.82 352.64 804.72 352.95
  Z
  M 365.21 376.52
  C 363.41 366.64 356.21 358.19 346.95 354.63
  Q 343.14 353.17 336.32 352.77
  Q 328.16 352.29 325.46 352.73
  Q 310.09 355.22 302.57 367.46
  Q 299.32 372.73 298.15 379.63
  C 295.02 397.96 301.56 415.90 320.75 420.94
  C 325.08 422.08 329.89 421.73 334.57 421.78
  Q 340.96 421.85 344.88 420.70
  Q 363.20 415.37 365.59 394.23
  Q 366.68 384.55 365.21 376.52
  Z
  M 402.89 392.05
  Q 396.30 370.82 392.13 359.63
  Q 390.89 356.30 387.89 354.43
  Q 385.62 353.00 381.74 352.79
  C 375.23 352.42 369.39 353.78 367.14 360.79
  C 365.45 366.04 366.79 368.45 368.81 374.68
  Q 373.81 390.13 379.40 405.35
  C 382.74 414.46 390.78 422.13 400.90 421.81
  C 404.97 421.69 409.14 422.28 412.71 420.64
  Q 418.92 417.78 421.93 411.22
  Q 425.47 403.48 427.55 395.23
  C 427.81 394.20 428.61 393.34 428.83 392.49
  Q 430.49 385.95 432.63 379.57
  C 435.42 371.22 437.32 360.57 428.85 354.81
  Q 426.21 353.01 421.97 352.73
  C 413.80 352.19 406.60 353.56 403.27 361.96
  C 398.64 373.64 409.58 379.08 413.32 388.18
  Q 414.78 391.74 414.96 394.75
  C 415.19 398.45 411.96 400.45 408.64 399.76
  Q 406.58 399.34 405.88 397.88
  C 404.94 395.92 403.51 394.06 402.89 392.05
  Z
  M 535.31 364.88
  Q 535.23 364.65 535.07 364.43
  C 526.72 353.55 516.45 352.29 503.51 352.76
  C 485.23 353.44 473.69 367.23 472.87 385.24
  Q 471.53 414.52 498.51 421.15
  C 502.58 422.15 507.39 421.73 511.74 421.74
  Q 518.43 421.75 521.67 420.97
  C 530.34 418.89 538.75 414.11 538.13 403.76
  Q 537.26 389.56 522.97 390.33
  Q 517.15 390.65 511.55 392.11
  C 505.21 393.77 501.04 393.17 496.84 388.16
  A 1.58 1.58 0.0 0 1 498.06 385.57
  Q 512.48 385.68 527.60 385.67
  C 532.86 385.67 537.14 381.80 537.80 376.48
  Q 538.49 370.86 535.63 365.81
  A 1.08 0.02 72.1 0 1 535.31 364.88
  Z
  M 605.38 368.56
  Q 605.30 368.06 605.04 366.05
  C 603.60 354.78 594.98 351.68 584.89 352.74
  C 578.39 353.42 572.93 356.43 571.43 362.87
  Q 571.14 364.11 570.78 362.88
  C 568.24 354.25 564.02 352.01 555.19 352.60
  Q 547.62 353.10 544.65 359.62
  Q 543.17 362.88 543.15 370.06
  Q 543.08 388.81 543.23 407.56
  Q 543.28 412.99 544.68 415.70
  C 547.75 421.65 553.93 422.10 560.14 421.75
  C 567.41 421.35 570.96 415.83 570.98 408.75
  Q 571.02 396.62 570.85 384.50
  C 570.82 381.97 571.46 377.14 575.01 377.13
  C 577.53 377.13 578.73 380.96 578.80 382.74
  Q 579.10 390.65 578.87 408.43
  C 578.77 416.55 583.67 421.98 591.76 421.86
  C 595.46 421.80 598.62 422.10 601.64 420.01
  C 605.72 417.19 606.67 413.72 606.61 408.56
  Q 606.54 402.28 606.52 389.25
  C 606.51 385.68 606.35 374.94 612.93 377.53
  A 1.29 1.29 0.0 0 1 613.60 378.14
  Q 615.12 381.20 615.18 383.25
  Q 615.33 388.45 615.23 406.30
  Q 615.19 412.37 616.40 415.01
  C 619.41 421.59 625.15 421.91 631.72 421.76
  C 638.41 421.61 643.10 416.96 643.31 410.27
  C 643.47 405.23 642.91 400.08 643.13 395.25
  Q 643.62 384.76 643.16 374.26
  C 642.84 366.85 641.06 358.40 634.39 354.65
  C 630.82 352.65 621.01 351.94 617.76 352.99
  Q 605.64 356.90 605.89 368.51
  Q 605.98 372.39 605.38 368.56
  Z
  M 689.25 410.06
  C 690.62 415.39 691.68 419.65 697.58 421.39
  C 699.72 422.02 702.90 421.82 705.33 421.76
  C 712.55 421.58 716.66 416.82 716.74 409.50
  Q 716.94 391.72 716.53 380.50
  Q 716.38 376.31 714.32 370.48
  C 708.07 352.80 692.38 351.88 676.38 352.89
  C 667.12 353.48 651.32 358.50 653.37 370.93
  C 656.85 391.99 688.06 371.01 689.31 383.52
  A 0.85 0.84 -80.1 0 1 688.11 384.37
  C 682.13 381.49 673.96 382.32 667.50 382.61
  Q 662.38 382.85 657.33 385.36
  C 650.18 388.92 648.74 394.58 648.62 402.36
  Q 648.41 416.03 661.31 420.92
  C 665.54 422.53 676.79 422.15 680.54 421.06
  Q 688.10 418.87 689.11 410.07
  Q 689.16 409.68 689.25 410.06
  Z
  M 750.36 368.17
  C 750.36 365.58 750.57 362.82 749.78 360.53
  C 748.25 356.06 744.95 353.07 740.03 352.79
  C 735.88 352.55 731.71 352.30 728.32 354.83
  Q 723.01 358.80 723.06 366.26
  Q 723.19 387.42 723.21 408.60
  Q 723.21 413.19 724.50 415.69
  Q 727.15 420.81 733.00 421.75
  C 735.96 422.22 742.00 422.09 745.07 420.33
  Q 750.92 416.99 750.71 410.01
  Q 750.34 398.02 750.70 386.03
  Q 750.77 383.44 751.15 382.01
  C 753.47 373.02 761.68 377.51 761.67 384.75
  Q 761.64 395.08 761.56 405.41
  C 761.51 412.93 762.42 418.38 769.57 421.15
  C 772.85 422.43 780.34 422.14 783.35 420.67
  Q 789.59 417.63 789.91 410.01
  Q 790.28 401.48 790.06 379.76
  C 789.98 370.75 787.09 357.45 778.13 353.91
  C 774.77 352.58 766.26 352.16 763.27 353.02
  Q 751.74 356.33 750.45 368.17
  Q 750.37 368.96 750.36 368.17
  Z
  M 869.81 410.30
  Q 870.38 418.33 877.22 421.16
  C 880.41 422.47 888.30 422.09 891.21 420.54
  Q 897.11 417.40 897.07 410.50
  Q 897.02 398.74 897.00 386.97
  Q 897.00 382.45 896.56 379.05
  Q 895.90 373.86 895.01 371.24
  C 888.90 353.27 873.98 352.05 857.70 352.81
  C 848.66 353.23 831.63 357.96 833.76 370.64
  Q 835.32 379.93 844.65 380.99
  Q 846.94 381.25 853.85 380.16
  C 859.08 379.33 865.43 377.59 869.68 382.14
  A 1.29 1.29 0.0 0 1 868.36 384.25
  C 866.36 383.62 864.65 382.76 862.45 382.61
  Q 851.16 381.84 846.25 382.56
  C 837.93 383.80 830.40 388.10 829.33 397.25
  C 828.10 407.78 830.70 417.06 840.90 420.68
  C 845.38 422.28 854.44 422.13 858.72 421.58
  Q 868.26 420.34 869.50 410.30
  A 0.16 0.15 -44.4 0 1 869.81 410.30
  Z"
/>
<path fill="#ffffff" d="
  M 236.88 376.22
  Q 238.31 382.10 239.44 388.05
  A 0.64 0.64 0.0 0 0 240.69 388.06
  Q 245.28 367.03 250.28 345.76
  C 252.24 337.42 257.73 328.20 266.73 327.17
  C 270.15 326.78 276.55 326.85 280.23 328.36
  C 290.23 332.46 290.97 340.05 290.96 350.63
  Q 290.96 378.83 290.85 407.01
  C 290.82 414.35 287.78 421.31 279.50 421.69
  C 272.09 422.04 266.19 421.98 262.66 414.60
  Q 261.36 411.88 261.40 406.61
  C 261.50 394.40 262.07 382.12 261.36 369.90
  A 0.55 0.55 0.0 0 0 260.36 369.61
  Q 259.96 370.17 259.83 371.01
  Q 258.70 378.35 257.70 385.71
  C 257.66 386.02 257.50 386.30 257.27 386.47
  Q 257.05 386.65 257.04 386.93
  Q 256.31 400.27 253.06 413.22
  C 251.57 419.17 247.88 421.82 241.67 421.81
  C 238.57 421.80 235.31 422.17 232.60 420.64
  Q 227.58 417.81 226.73 412.50
  C 225.19 403.02 223.76 393.90 221.97 384.11
  Q 220.73 377.34 220.39 370.23
  A 0.79 0.79 0.0 0 0 219.34 369.52
  Q 218.51 369.82 218.55 371.26
  Q 219.07 389.09 218.76 406.93
  C 218.61 415.45 215.30 421.80 205.86 421.78
  C 203.08 421.77 199.92 422.08 197.44 421.06
  C 191.01 418.43 189.76 413.38 189.75 406.46
  Q 189.73 375.73 189.73 344.98
  Q 189.72 330.93 203.48 327.41
  Q 206.46 326.65 212.82 327.18
  C 221.41 327.89 226.99 335.02 228.99 343.03
  Q 232.01 355.11 234.09 364.47
  Q 234.95 368.32 236.88 376.22
  Z"
/>
<path fill="#ffffff" d="
  M 447.29 352.14
  Q 444.19 352.06 441.77 349.24
  C 435.64 342.06 437.96 330.91 446.99 327.48
  Q 448.98 326.72 456.74 327.13
  Q 464.21 327.53 466.55 334.99
  C 468.61 341.52 466.85 351.92 458.24 352.07
  A 0.42 0.42 0.0 0 0 458.13 352.90
  Q 466.89 355.48 466.65 365.00
  Q 466.39 375.35 466.60 407.89
  C 466.63 413.26 465.84 417.05 461.60 420.03
  C 458.34 422.33 449.60 422.60 445.96 420.90
  C 440.24 418.22 439.42 413.68 439.44 407.38
  Q 439.50 387.02 439.52 366.67
  C 439.53 358.74 440.77 356.33 447.44 352.76
  Q 448.53 352.17 447.29 352.14
  Z"
/>
<path fill="#ffffff" d="
  M 804.69 352.45
  C 791.39 350.20 792.20 330.06 805.01 327.26
  C 807.41 326.73 814.36 326.95 816.91 327.89
  C 826.93 331.57 826.78 350.33 815.32 352.28
  Q 814.54 352.41 815.24 352.78
  C 819.88 355.24 823.23 357.39 823.28 363.25
  Q 823.41 377.63 823.23 408.07
  Q 823.21 413.03 822.25 415.28
  C 820.28 419.89 816.51 421.78 811.43 421.78
  C 808.98 421.78 806.11 422.04 803.91 421.33
  C 796.84 419.06 796.28 413.82 796.28 406.72
  Q 796.29 387.05 796.25 367.38
  C 796.23 359.92 797.21 355.02 804.72 352.95
  Q 805.82 352.64 804.69 352.45
  Z"
/>
<path fill="#ffffff" d="
  M 346.95 354.63
  C 356.21 358.19 363.41 366.64 365.21 376.52
  Q 366.68 384.55 365.59 394.23
  Q 363.20 415.37 344.88 420.70
  Q 340.96 421.85 334.57 421.78
  C 329.89 421.73 325.08 422.08 320.75 420.94
  C 301.56 415.90 295.02 397.96 298.15 379.63
  Q 299.32 372.73 302.57 367.46
  Q 310.09 355.22 325.46 352.73
  Q 328.16 352.29 336.32 352.77
  Q 343.14 353.17 346.95 354.63
  Z
  M 318.32 388.65
  C 327.16 391.33 334.26 392.17 343.21 389.48
  C 351.16 387.09 348.01 379.85 341.50 379.27
  C 337.24 378.88 320.14 377.55 316.70 381.97
  C 315.18 383.93 315.46 387.78 318.32 388.65
  Z"
/>
<path fill="#ffffff" d="
  M 402.89 392.05
  C 403.51 394.06 404.94 395.92 405.88 397.88
  Q 406.58 399.34 408.64 399.76
  C 411.96 400.45 415.19 398.45 414.96 394.75
  Q 414.78 391.74 413.32 388.18
  C 409.58 379.08 398.64 373.64 403.27 361.96
  C 406.60 353.56 413.80 352.19 421.97 352.73
  Q 426.21 353.01 428.85 354.81
  C 437.32 360.57 435.42 371.22 432.63 379.57
  Q 430.49 385.95 428.83 392.49
  C 428.61 393.34 427.81 394.20 427.55 395.23
  Q 425.47 403.48 421.93 411.22
  Q 418.92 417.78 412.71 420.64
  C 409.14 422.28 404.97 421.69 400.90 421.81
  C 390.78 422.13 382.74 414.46 379.40 405.35
  Q 373.81 390.13 368.81 374.68
  C 366.79 368.45 365.45 366.04 367.14 360.79
  C 369.39 353.78 375.23 352.42 381.74 352.79
  Q 385.62 353.00 387.89 354.43
  Q 390.89 356.30 392.13 359.63
  Q 396.30 370.82 402.89 392.05
  Z"
/>
<path fill="#ffffff" d="
  M 535.63 365.81
  Q 538.49 370.86 537.80 376.48
  C 537.14 381.80 532.86 385.67 527.60 385.67
  Q 512.48 385.68 498.06 385.57
  A 1.58 1.58 0.0 0 0 496.84 388.16
  C 501.04 393.17 505.21 393.77 511.55 392.11
  Q 517.15 390.65 522.97 390.33
  Q 537.26 389.56 538.13 403.76
  C 538.75 414.11 530.34 418.89 521.67 420.97
  Q 518.43 421.75 511.74 421.74
  C 507.39 421.73 502.58 422.15 498.51 421.15
  Q 471.53 414.52 472.87 385.24
  C 473.69 367.23 485.23 353.44 503.51 352.76
  C 516.45 352.29 526.72 353.55 535.07 364.43
  Q 535.23 364.65 535.31 364.88
  A 1.08 0.02 72.1 0 0 535.63 365.81
  Z
  M 497.32 380.28
  L 515.66 380.16
  A 0.02 0.02 0.0 0 0 515.68 380.14
  L 515.68 380.07
  A 8.11 5.19 -0.4 0 0 507.53 374.93
  L 505.37 374.95
  A 8.11 5.19 -0.4 0 0 497.30 380.19
  L 497.30 380.26
  A 0.02 0.02 0.0 0 0 497.32 380.28
  Z"
/>
<path fill="#ffffff" d="
  M 605.38 368.56
  Q 605.98 372.39 605.89 368.51
  Q 605.64 356.90 617.76 352.99
  C 621.01 351.94 630.82 352.65 634.39 354.65
  C 641.06 358.40 642.84 366.85 643.16 374.26
  Q 643.62 384.76 643.13 395.25
  C 642.91 400.08 643.47 405.23 643.31 410.27
  C 643.10 416.96 638.41 421.61 631.72 421.76
  C 625.15 421.91 619.41 421.59 616.40 415.01
  Q 615.19 412.37 615.23 406.30
  Q 615.33 388.45 615.18 383.25
  Q 615.12 381.20 613.60 378.14
  A 1.29 1.29 0.0 0 0 612.93 377.53
  C 606.35 374.94 606.51 385.68 606.52 389.25
  Q 606.54 402.28 606.61 408.56
  C 606.67 413.72 605.72 417.19 601.64 420.01
  C 598.62 422.10 595.46 421.80 591.76 421.86
  C 583.67 421.98 578.77 416.55 578.87 408.43
  Q 579.10 390.65 578.80 382.74
  C 578.73 380.96 577.53 377.13 575.01 377.13
  C 571.46 377.14 570.82 381.97 570.85 384.50
  Q 571.02 396.62 570.98 408.75
  C 570.96 415.83 567.41 421.35 560.14 421.75
  C 553.93 422.10 547.75 421.65 544.68 415.70
  Q 543.28 412.99 543.23 407.56
  Q 543.08 388.81 543.15 370.06
  Q 543.17 362.88 544.65 359.62
  Q 547.62 353.10 555.19 352.60
  C 564.02 352.01 568.24 354.25 570.78 362.88
  Q 571.14 364.11 571.43 362.87
  C 572.93 356.43 578.39 353.42 584.89 352.74
  C 594.98 351.68 603.60 354.78 605.04 366.05
  Q 605.30 368.06 605.38 368.56
  Z"
/>
<path fill="#ffffff" d="
  M 689.11 410.07
  Q 688.10 418.87 680.54 421.06
  C 676.79 422.15 665.54 422.53 661.31 420.92
  Q 648.41 416.03 648.62 402.36
  C 648.74 394.58 650.18 388.92 657.33 385.36
  Q 662.38 382.85 667.50 382.61
  C 673.96 382.32 682.13 381.49 688.11 384.37
  A 0.85 0.84 -80.1 0 0 689.31 383.52
  C 688.06 371.01 656.85 391.99 653.37 370.93
  C 651.32 358.50 667.12 353.48 676.38 352.89
  C 692.38 351.88 708.07 352.80 714.32 370.48
  Q 716.38 376.31 716.53 380.50
  Q 716.94 391.72 716.74 409.50
  C 716.66 416.82 712.55 421.58 705.33 421.76
  C 702.90 421.82 699.72 422.02 697.58 421.39
  C 691.68 419.65 690.62 415.39 689.25 410.06
  Q 689.16 409.68 689.11 410.07
  Z
  M 687.0562 391.7738
  A 1.97 1.97 0.0 0 0 685.0760 389.8142
  L 675.1961 389.8659
  A 1.97 1.97 0.0 0 0 673.2364 391.8462
  L 673.2438 393.2462
  A 1.97 1.97 0.0 0 0 675.2240 395.2058
  L 685.1039 395.1541
  A 1.97 1.97 0.0 0 0 687.0636 393.1738
  L 687.0562 391.7738
  Z"
/>
<path fill="#ffffff" d="
  M 750.45 368.17
  Q 751.74 356.33 763.27 353.02
  C 766.26 352.16 774.77 352.58 778.13 353.91
  C 787.09 357.45 789.98 370.75 790.06 379.76
  Q 790.28 401.48 789.91 410.01
  Q 789.59 417.63 783.35 420.67
  C 780.34 422.14 772.85 422.43 769.57 421.15
  C 762.42 418.38 761.51 412.93 761.56 405.41
  Q 761.64 395.08 761.67 384.75
  C 761.68 377.51 753.47 373.02 751.15 382.01
  Q 750.77 383.44 750.70 386.03
  Q 750.34 398.02 750.71 410.01
  Q 750.92 416.99 745.07 420.33
  C 742.00 422.09 735.96 422.22 733.00 421.75
  Q 727.15 420.81 724.50 415.69
  Q 723.21 413.19 723.21 408.60
  Q 723.19 387.42 723.06 366.26
  Q 723.01 358.80 728.32 354.83
  C 731.71 352.30 735.88 352.55 740.03 352.79
  C 744.95 353.07 748.25 356.06 749.78 360.53
  C 750.57 362.82 750.36 365.58 750.36 368.17
  Q 750.37 368.96 750.45 368.17
  Z"
/>
<path fill="#ffffff" d="
  M 869.50 410.30
  Q 868.26 420.34 858.72 421.58
  C 854.44 422.13 845.38 422.28 840.90 420.68
  C 830.70 417.06 828.10 407.78 829.33 397.25
  C 830.40 388.10 837.93 383.80 846.25 382.56
  Q 851.16 381.84 862.45 382.61
  C 864.65 382.76 866.36 383.62 868.36 384.25
  A 1.29 1.29 0.0 0 0 869.68 382.14
  C 865.43 377.59 859.08 379.33 853.85 380.16
  Q 846.94 381.25 844.65 380.99
  Q 835.32 379.93 833.76 370.64
  C 831.63 357.96 848.66 353.23 857.70 352.81
  C 873.98 352.05 888.90 353.27 895.01 371.24
  Q 895.90 373.86 896.56 379.05
  Q 897.00 382.45 897.00 386.97
  Q 897.02 398.74 897.07 410.50
  Q 897.11 417.40 891.21 420.54
  C 888.30 422.09 880.41 422.47 877.22 421.16
  Q 870.38 418.33 869.81 410.30
  A 0.16 0.15 -44.4 0 0 869.50 410.30
  Z
  M 867.4292 392.0178
  A 2.15 2.15 0.0 0 0 865.2754 389.8716
  L 855.5954 389.8885
  A 2.15 2.15 0.0 0 0 853.4492 392.0422
  L 853.4508 393.0022
  A 2.15 2.15 0.0 0 0 855.6046 395.1484
  L 865.2846 395.1315
  A 2.15 2.15 0.0 0 0 867.4308 392.9778
  L 867.4292 392.0178
  Z"
/>
<path fill="#428d9e" d="
  M 497.32 380.28
  A 0.02 0.02 0.0 0 1 497.30 380.26
  L 497.30 380.19
  A 8.11 5.19 -0.4 0 1 505.37 374.95
  L 507.53 374.93
  A 8.11 5.19 -0.4 0 1 515.68 380.07
  L 515.68 380.14
  A 0.02 0.02 0.0 0 1 515.66 380.16
  L 497.32 380.28
  Z"
/>
<path fill="#428d9e" d="
  M 343.21 389.48
  C 334.26 392.17 327.16 391.33 318.32 388.65
  C 315.46 387.78 315.18 383.93 316.70 381.97
  C 320.14 377.55 337.24 378.88 341.50 379.27
  C 348.01 379.85 351.16 387.09 343.21 389.48
  Z"
/>
<rect fill="#428d9e" x="-6.91" y="-2.67" transform="translate(680.15,392.51) rotate(-0.3)" width="13.82" height="5.34" rx="1.97"/>
<rect fill="#428d9e" x="-6.99" y="-2.63" transform="translate(860.44,392.51) rotate(-0.1)" width="13.98" height="5.26" rx="2.15"/>
</svg>
