<?xml version="1.0" encoding="UTF-8" standalone="no"?>
<!DOCTYPE svg PUBLIC "-//W3C//DTD SVG 1.1//EN" "http://www.w3.org/Graphics/SVG/1.1/DTD/svg11.dtd">
<svg xmlns="http://www.w3.org/2000/svg" version="1.1" viewBox="0.00 0.00 1080.00 720.00">
<g stroke-width="2.00" fill="none" stroke-linecap="butt">
<path stroke="#12445c" vector-effect="non-scaling-stroke" d="
  M 373.23 346.27
  Q 367.32 342.77 365.11 341.83
  C 334.04 328.67 300.86 350.29 298.01 383.24
  C 295.80 408.78 309.63 432.49 335.31 437.79
  A 0.43 0.42 -50.1 0 1 335.38 438.60
  Q 327.33 441.76 321.65 448.43
  Q 320.60 449.66 321.44 451.05
  Q 323.23 453.99 325.25 456.90
  A 0.77 0.76 52.5 0 0 326.37 457.05
  C 334.08 450.61 345.27 451.53 353.76 454.99
  C 366.58 460.22 377.63 465.18 389.83 456.96
  C 391.87 455.59 393.70 453.19 395.65 451.44"
/>
<path stroke="#718c57" vector-effect="non-scaling-stroke" d="
  M 395.65 451.44
  C 415.48 486.66 450.40 514.28 488.37 526.70
  C 571.18 553.78 660.54 514.01 696.02 434.15"
/>
<path stroke="#12445c" vector-effect="non-scaling-stroke" d="
  M 696.02 434.15
  Q 697.49 432.01 699.90 431.03
  A 0.49 0.49 0.0 0 1 700.57 431.51
  L 700.28 436.24
  A 0.71 0.70 1.5 0 0 700.99 436.98
  L 720.29 437.02
  Q 720.84 437.02 720.84 436.46
  L 720.51 415.27
  A 0.17 0.17 0.0 0 1 720.85 415.23
  Q 721.80 419.04 723.98 422.32
  Q 737.14 442.11 761.28 438.39
  Q 775.75 436.16 783.96 424.12
  A 0.60 0.59 -59.8 0 0 783.74 423.25
  L 770.49 416.68
  A 1.75 1.75 0.0 0 0 768.35 417.13
  C 764.20 422.18 757.69 423.53 751.53 422.39
  Q 744.15 421.04 741.49 413.06
  Q 740.95 411.45 741.68 410.22
  Q 741.97 409.74 742.53 409.74
  L 784.03 409.76
  A 1.79 1.78 -1.4 0 0 785.82 407.89
  Q 784.65 382.03 763.32 376.43
  C 744.74 371.55 727.90 380.44 720.83 398.54
  Q 720.65 399.00 720.65 398.51
  L 720.74 336.27
  A 0.84 0.83 -89.7 0 0 719.92 335.43
  L 707.39 335.14"
/>
<path stroke="#718c57" vector-effect="non-scaling-stroke" d="
  M 707.39 335.14
  C 694.52 263.41 636.52 207.80 564.44 198.09
  C 551.07 196.29 539.59 195.74 526.53 197.00
  C 445.83 204.80 383.22 265.86 373.23 346.27"
/>
<path stroke="#81681e" vector-effect="non-scaling-stroke" d="
  M 707.39 335.14
  Q 707.05 335.74 705.71 335.70
  Q 703.51 335.64 701.14 335.53
  Q 700.61 335.51 700.61 336.05
  L 700.62 381.96
  A 0.58 0.57 19.6 0 1 699.68 382.40
  C 683.89 369.50 662.59 374.26 653.41 392.48
  A 0.97 0.97 0.0 0 1 651.71 392.54
  C 642.30 376.75 622.39 371.82 605.54 377.49
  C 590.93 382.40 580.61 396.12 583.32 411.94
  C 585.88 426.87 597.21 435.94 611.68 438.26
  C 627.63 440.81 643.21 435.80 651.93 421.53
  A 0.93 0.92 48.7 0 1 653.56 421.64
  C 661.03 438.20 680.30 443.54 696.02 434.15"
/>
<path stroke="#81681e" vector-effect="non-scaling-stroke" d="
  M 395.65 451.44
  Q 396.55 450.15 396.90 448.71
  Q 397.02 448.25 396.82 447.81
  L 391.01 435.00
  Q 390.81 434.57 390.34 434.63
  Q 389.20 434.80 387.76 436.23"
/>
<path stroke="#718c57" vector-effect="non-scaling-stroke" d="
  M 387.76 436.23
  L 382.11 422.68"
/>
<path stroke="#81681e" vector-effect="non-scaling-stroke" d="
  M 382.11 422.68
  Q 388.33 415.03 391.55 406.13
  A 0.46 0.46 0.0 0 1 392.44 406.29
  C 392.44 419.54 394.14 432.10 408.74 436.71
  Q 418.60 439.82 430.01 438.74
  C 449.27 436.92 457.98 429.44 457.90 409.23
  Q 457.83 393.45 457.88 377.48
  Q 457.88 376.92 457.32 376.92
  L 437.96 376.91
  Q 437.51 376.91 437.51 377.36
  Q 437.57 392.43 437.49 407.50
  C 437.46 413.74 436.14 420.29 429.24 421.98
  C 417.73 424.80 412.97 417.95 412.97 407.50
  Q 412.99 392.43 412.98 377.41
  Q 412.98 376.94 412.51 376.94
  L 394.01 376.92
  A 0.96 0.95 -6.9 0 1 393.08 376.20
  Q 388.53 357.97 373.23 346.27"
/>
<path stroke="#12445c" vector-effect="non-scaling-stroke" d="
  M 382.11 422.68
  Q 373.55 432.55 361.34 436.53
  A 0.65 0.65 0.0 0 0 361.38 437.77
  Q 368.78 439.72 375.98 440.08
  Q 382.69 440.42 387.76 436.23"
/>
<path stroke="#e7cf82" vector-effect="non-scaling-stroke" d="
  M 536.86 279.49
  A 0.27 0.27 0.0 0 1 537.39 279.56
  L 541.06 328.71
  A 1.39 1.39 0.0 0 0 542.45 330.00
  L 560.83 330.04
  A 0.81 0.80 87.7 0 0 561.64 329.16
  L 557.92 289.01
  A 0.04 0.04 0.0 0 1 557.99 288.98
  L 575.58 320.50
  A 1.94 1.92 44.3 0 1 575.61 322.35
  Q 566.75 339.25 557.89 356.22
  Q 557.63 356.72 557.93 357.26
  A 0.73 0.71 -13.9 0 0 558.54 357.62
  L 577.90 357.70
  Q 579.48 357.71 580.20 356.31
  L 621.75 276.40
  A 0.60 0.60 0.0 0 0 621.22 275.52
  L 600.95 275.50
  A 1.55 1.55 0.0 0 0 599.55 276.39
  L 587.61 302.27
  A 0.25 0.24 43.0 0 1 587.17 302.28
  L 573.34 276.80
  A 2.46 2.46 0.0 0 0 571.18 275.52
  L 557.27 275.53
  Q 556.75 275.53 556.70 275.01
  L 553.98 243.57
  A 0.92 0.91 87.6 0 0 553.07 242.73
  L 533.17 242.72
  A 1.29 1.29 0.0 0 0 531.97 243.54
  L 513.48 291.82
  A 0.17 0.17 0.0 0 1 513.16 291.82
  L 494.76 243.76
  A 1.62 1.62 0.0 0 0 493.25 242.72
  L 473.54 242.73
  A 0.81 0.80 -87.2 0 0 472.74 243.46
  L 465.11 328.23
  Q 464.95 330.00 466.73 330.00
  L 484.87 330.01
  A 0.67 0.67 0.0 0 0 485.54 329.39
  L 489.32 279.30
  A 0.20 0.20 0.0 0 1 489.71 279.25
  L 506.65 327.95
  A 2.30 2.30 0.0 0 0 508.82 329.49
  L 518.32 329.51
  A 1.57 1.57 0.0 0 0 519.80 328.46
  L 536.86 279.49"
/>
<path stroke="#81681e" vector-effect="non-scaling-stroke" d="
  M 482.88 351.41
  A 12.03 12.03 0.0 0 0 470.85 339.38
  A 12.03 12.03 0.0 0 0 458.82 351.41
  A 12.03 12.03 0.0 0 0 470.85 363.44
  A 12.03 12.03 0.0 0 0 482.88 351.41"
/>
<path stroke="#81681e" vector-effect="non-scaling-stroke" d="
  M 541.67 425.05
  C 543.70 426.92 545.82 429.40 547.59 430.89
  C 559.41 440.81 574.99 440.60 588.24 434.52
  A 1.16 1.15 65.3 0 0 588.80 432.99
  L 582.87 420.23
  A 0.60 0.59 64.1 0 0 582.07 419.95
  Q 569.82 425.89 562.09 417.87
  Q 557.97 413.60 557.65 407.73
  C 556.91 394.22 570.98 387.77 581.98 394.14
  A 0.52 0.51 27.9 0 0 582.71 393.92
  L 588.94 381.12
  A 0.94 0.94 0.0 0 0 588.52 379.87
  C 571.47 371.30 552.21 374.50 541.37 390.14
  Q 532.04 403.60 539.22 421.37
  A 0.48 0.48 0.0 0 1 538.77 422.03
  L 514.20 421.98
  Q 512.62 421.98 513.50 420.67
  L 542.47 377.41
  Q 542.80 376.92 542.21 376.92
  L 484.07 376.90
  A 0.54 0.54 0.0 0 0 483.53 377.43
  L 483.35 392.00
  Q 483.35 392.41 483.75 392.40
  L 507.27 392.33
  A 0.94 0.94 0.0 0 1 508.05 393.79
  L 482.22 432.16
  A 0.86 0.86 0.0 0 1 480.65 431.68
  L 480.65 377.41
  Q 480.65 376.92 480.16 376.92
  L 460.80 376.92
  A 0.40 0.39 -0.7 0 0 460.40 377.32
  L 460.52 436.51
  Q 460.52 437.00 461.01 437.00
  L 540.31 437.00
  Q 540.88 437.00 540.87 436.44
  L 540.71 425.48
  A 0.57 0.57 0.0 0 1 541.67 425.05"
/>
<path stroke="#12445c" vector-effect="non-scaling-stroke" d="
  M 742.07 398.59
  L 765.21 398.59
  A 0.14 0.14 0.0 0 0 765.35 398.45
  L 765.35 398.36
  A 10.99 10.17 0.0 0 0 754.36 388.19
  L 752.92 388.19
  A 10.99 10.17 -0.0 0 0 741.93 398.36
  L 741.93 398.45
  A 0.14 0.14 0.0 0 0 742.07 398.59"
/>
<path stroke="#81681e" vector-effect="non-scaling-stroke" d="
  M 633.88 407.08
  A 14.71 14.71 0.0 0 0 619.17 392.37
  A 14.71 14.71 0.0 0 0 604.46 407.08
  A 14.71 14.71 0.0 0 0 619.17 421.79
  A 14.71 14.71 0.0 0 0 633.88 407.08"
/>
<path stroke="#81681e" vector-effect="non-scaling-stroke" d="
  M 701.10 407.07
  A 14.72 14.72 0.0 0 0 686.38 392.35
  A 14.72 14.72 0.0 0 0 671.66 407.07
  A 14.72 14.72 0.0 0 0 686.38 421.79
  A 14.72 14.72 0.0 0 0 701.10 407.07"
/>
<path stroke="#12445c" vector-effect="non-scaling-stroke" d="
  M 327.85 409.76
  C 335.36 418.30 350.96 419.19 360.10 413.14
  C 376.58 402.24 374.68 364.56 352.21 360.63
  C 334.08 357.47 323.05 367.68 321.36 384.70
  C 320.56 392.73 322.28 403.43 327.85 409.76"
/>
</g>
<path fill="#016795" d="
  M 0.00 0.00
  L 1080.00 0.00
  L 1080.00 720.00
  L 0.00 720.00
  L 0.00 0.00
  Z
  M 373.23 346.27
  Q 367.32 342.77 365.11 341.83
  C 334.04 328.67 300.86 350.29 298.01 383.24
  C 295.80 408.78 309.63 432.49 335.31 437.79
  A 0.43 0.42 -50.1 0 1 335.38 438.60
  Q 327.33 441.76 321.65 448.43
  Q 320.60 449.66 321.44 451.05
  Q 323.23 453.99 325.25 456.90
  A 0.77 0.76 52.5 0 0 326.37 457.05
  C 334.08 450.61 345.27 451.53 353.76 454.99
  C 366.58 460.22 377.63 465.18 389.83 456.96
  C 391.87 455.59 393.70 453.19 395.65 451.44
  C 415.48 486.66 450.40 514.28 488.37 526.70
  C 571.18 553.78 660.54 514.01 696.02 434.15
  Q 697.49 432.01 699.90 431.03
  A 0.49 0.49 0.0 0 1 700.57 431.51
  L 700.28 436.24
  A 0.71 0.70 1.5 0 0 700.99 436.98
  L 720.29 437.02
  Q 720.84 437.02 720.84 436.46
  L 720.51 415.27
  A 0.17 0.17 0.0 0 1 720.85 415.23
  Q 721.80 419.04 723.98 422.32
  Q 737.14 442.11 761.28 438.39
  Q 775.75 436.16 783.96 424.12
  A 0.60 0.59 -59.8 0 0 783.74 423.25
  L 770.49 416.68
  A 1.75 1.75 0.0 0 0 768.35 417.13
  C 764.20 422.18 757.69 423.53 751.53 422.39
  Q 744.15 421.04 741.49 413.06
  Q 740.95 411.45 741.68 410.22
  Q 741.97 409.74 742.53 409.74
  L 784.03 409.76
  A 1.79 1.78 -1.4 0 0 785.82 407.89
  Q 784.65 382.03 763.32 376.43
  C 744.74 371.55 727.90 380.44 720.83 398.54
  Q 720.65 399.00 720.65 398.51
  L 720.74 336.27
  A 0.84 0.83 -89.7 0 0 719.92 335.43
  L 707.39 335.14
  C 694.52 263.41 636.52 207.80 564.44 198.09
  C 551.07 196.29 539.59 195.74 526.53 197.00
  C 445.83 204.80 383.22 265.86 373.23 346.27
  Z"
/>
<path fill="#e0b019" d="
  M 707.39 335.14
  Q 707.05 335.74 705.71 335.70
  Q 703.51 335.64 701.14 335.53
  Q 700.61 335.51 700.61 336.05
  L 700.62 381.96
  A 0.58 0.57 19.6 0 1 699.68 382.40
  C 683.89 369.50 662.59 374.26 653.41 392.48
  A 0.97 0.97 0.0 0 1 651.71 392.54
  C 642.30 376.75 622.39 371.82 605.54 377.49
  C 590.93 382.40 580.61 396.12 583.32 411.94
  C 585.88 426.87 597.21 435.94 611.68 438.26
  C 627.63 440.81 643.21 435.80 651.93 421.53
  A 0.93 0.92 48.7 0 1 653.56 421.64
  C 661.03 438.20 680.30 443.54 696.02 434.15
  C 660.54 514.01 571.18 553.78 488.37 526.70
  C 450.40 514.28 415.48 486.66 395.65 451.44
  Q 396.55 450.15 396.90 448.71
  Q 397.02 448.25 396.82 447.81
  L 391.01 435.00
  Q 390.81 434.57 390.34 434.63
  Q 389.20 434.80 387.76 436.23
  L 382.11 422.68
  Q 388.33 415.03 391.55 406.13
  A 0.46 0.46 0.0 0 1 392.44 406.29
  C 392.44 419.54 394.14 432.10 408.74 436.71
  Q 418.60 439.82 430.01 438.74
  C 449.27 436.92 457.98 429.44 457.90 409.23
  Q 457.83 393.45 457.88 377.48
  Q 457.88 376.92 457.32 376.92
  L 437.96 376.91
  Q 437.51 376.91 437.51 377.36
  Q 437.57 392.43 437.49 407.50
  C 437.46 413.74 436.14 420.29 429.24 421.98
  C 417.73 424.80 412.97 417.95 412.97 407.50
  Q 412.99 392.43 412.98 377.41
  Q 412.98 376.94 412.51 376.94
  L 394.01 376.92
  A 0.96 0.95 -6.9 0 1 393.08 376.20
  Q 388.53 357.97 373.23 346.27
  C 383.22 265.86 445.83 204.80 526.53 197.00
  C 539.59 195.74 551.07 196.29 564.44 198.09
  C 636.52 207.80 694.52 263.41 707.39 335.14
  Z
  M 536.86 279.49
  A 0.27 0.27 0.0 0 1 537.39 279.56
  L 541.06 328.71
  A 1.39 1.39 0.0 0 0 542.45 330.00
  L 560.83 330.04
  A 0.81 0.80 87.7 0 0 561.64 329.16
  L 557.92 289.01
  A 0.04 0.04 0.0 0 1 557.99 288.98
  L 575.58 320.50
  A 1.94 1.92 44.3 0 1 575.61 322.35
  Q 566.75 339.25 557.89 356.22
  Q 557.63 356.72 557.93 357.26
  A 0.73 0.71 -13.9 0 0 558.54 357.62
  L 577.90 357.70
  Q 579.48 357.71 580.20 356.31
  L 621.75 276.40
  A 0.60 0.60 0.0 0 0 621.22 275.52
  L 600.95 275.50
  A 1.55 1.55 0.0 0 0 599.55 276.39
  L 587.61 302.27
  A 0.25 0.24 43.0 0 1 587.17 302.28
  L 573.34 276.80
  A 2.46 2.46 0.0 0 0 571.18 275.52
  L 557.27 275.53
  Q 556.75 275.53 556.70 275.01
  L 553.98 243.57
  A 0.92 0.91 87.6 0 0 553.07 242.73
  L 533.17 242.72
  A 1.29 1.29 0.0 0 0 531.97 243.54
  L 513.48 291.82
  A 0.17 0.17 0.0 0 1 513.16 291.82
  L 494.76 243.76
  A 1.62 1.62 0.0 0 0 493.25 242.72
  L 473.54 242.73
  A 0.81 0.80 -87.2 0 0 472.74 243.46
  L 465.11 328.23
  Q 464.95 330.00 466.73 330.00
  L 484.87 330.01
  A 0.67 0.67 0.0 0 0 485.54 329.39
  L 489.32 279.30
  A 0.20 0.20 0.0 0 1 489.71 279.25
  L 506.65 327.95
  A 2.30 2.30 0.0 0 0 508.82 329.49
  L 518.32 329.51
  A 1.57 1.57 0.0 0 0 519.80 328.46
  L 536.86 279.49
  Z
  M 482.88 351.41
  A 12.03 12.03 0.0 0 0 470.85 339.38
  A 12.03 12.03 0.0 0 0 458.82 351.41
  A 12.03 12.03 0.0 0 0 470.85 363.44
  A 12.03 12.03 0.0 0 0 482.88 351.41
  Z
  M 541.67 425.05
  C 543.70 426.92 545.82 429.40 547.59 430.89
  C 559.41 440.81 574.99 440.60 588.24 434.52
  A 1.16 1.15 65.3 0 0 588.80 432.99
  L 582.87 420.23
  A 0.60 0.59 64.1 0 0 582.07 419.95
  Q 569.82 425.89 562.09 417.87
  Q 557.97 413.60 557.65 407.73
  C 556.91 394.22 570.98 387.77 581.98 394.14
  A 0.52 0.51 27.9 0 0 582.71 393.92
  L 588.94 381.12
  A 0.94 0.94 0.0 0 0 588.52 379.87
  C 571.47 371.30 552.21 374.50 541.37 390.14
  Q 532.04 403.60 539.22 421.37
  A 0.48 0.48 0.0 0 1 538.77 422.03
  L 514.20 421.98
  Q 512.62 421.98 513.50 420.67
  L 542.47 377.41
  Q 542.80 376.92 542.21 376.92
  L 484.07 376.90
  A 0.54 0.54 0.0 0 0 483.53 377.43
  L 483.35 392.00
  Q 483.35 392.41 483.75 392.40
  L 507.27 392.33
  A 0.94 0.94 0.0 0 1 508.05 393.79
  L 482.22 432.16
  A 0.86 0.86 0.0 0 1 480.65 431.68
  L 480.65 377.41
  Q 480.65 376.92 480.16 376.92
  L 460.80 376.92
  A 0.40 0.39 -0.7 0 0 460.40 377.32
  L 460.52 436.51
  Q 460.52 437.00 461.01 437.00
  L 540.31 437.00
  Q 540.88 437.00 540.87 436.44
  L 540.71 425.48
  A 0.57 0.57 0.0 0 1 541.67 425.05
  Z"
/>
<path fill="#ededeb" d="
  M 536.86 279.49
  L 519.80 328.46
  A 1.57 1.57 0.0 0 1 518.32 329.51
  L 508.82 329.49
  A 2.30 2.30 0.0 0 1 506.65 327.95
  L 489.71 279.25
  A 0.20 0.20 0.0 0 0 489.32 279.30
  L 485.54 329.39
  A 0.67 0.67 0.0 0 1 484.87 330.01
  L 466.73 330.00
  Q 464.95 330.00 465.11 328.23
  L 472.74 243.46
  A 0.81 0.80 -87.2 0 1 473.54 242.73
  L 493.25 242.72
  A 1.62 1.62 0.0 0 1 494.76 243.76
  L 513.16 291.82
  A 0.17 0.17 0.0 0 0 513.48 291.82
  L 531.97 243.54
  A 1.29 1.29 0.0 0 1 533.17 242.72
  L 553.07 242.73
  A 0.92 0.91 87.6 0 1 553.98 243.57
  L 556.70 275.01
  Q 556.75 275.53 557.27 275.53
  L 571.18 275.52
  A 2.46 2.46 0.0 0 1 573.34 276.80
  L 587.17 302.28
  A 0.25 0.24 43.0 0 0 587.61 302.27
  L 599.55 276.39
  A 1.55 1.55 0.0 0 1 600.95 275.50
  L 621.22 275.52
  A 0.60 0.60 0.0 0 1 621.75 276.40
  L 580.20 356.31
  Q 579.48 357.71 577.90 357.70
  L 558.54 357.62
  A 0.73 0.71 -13.9 0 1 557.93 357.26
  Q 557.63 356.72 557.89 356.22
  Q 566.75 339.25 575.61 322.35
  A 1.94 1.92 44.3 0 0 575.58 320.50
  L 557.99 288.98
  A 0.04 0.04 0.0 0 0 557.92 289.01
  L 561.64 329.16
  A 0.81 0.80 87.7 0 1 560.83 330.04
  L 542.45 330.00
  A 1.39 1.39 0.0 0 1 541.06 328.71
  L 537.39 279.56
  A 0.27 0.27 0.0 0 0 536.86 279.49
  Z"
/>
<path fill="#222023" d="
  M 707.39 335.14
  L 719.92 335.43
  A 0.84 0.83 -89.7 0 1 720.74 336.27
  L 720.65 398.51
  Q 720.65 399.00 720.83 398.54
  C 727.90 380.44 744.74 371.55 763.32 376.43
  Q 784.65 382.03 785.82 407.89
  A 1.79 1.78 -1.4 0 1 784.03 409.76
  L 742.53 409.74
  Q 741.97 409.74 741.68 410.22
  Q 740.95 411.45 741.49 413.06
  Q 744.15 421.04 751.53 422.39
  C 757.69 423.53 764.20 422.18 768.35 417.13
  A 1.75 1.75 0.0 0 1 770.49 416.68
  L 783.74 423.25
  A 0.60 0.59 -59.8 0 1 783.96 424.12
  Q 775.75 436.16 761.28 438.39
  Q 737.14 442.11 723.98 422.32
  Q 721.80 419.04 720.85 415.23
  A 0.17 0.17 0.0 0 0 720.51 415.27
  L 720.84 436.46
  Q 720.84 437.02 720.29 437.02
  L 700.99 436.98
  A 0.71 0.70 1.5 0 1 700.28 436.24
  L 700.57 431.51
  A 0.49 0.49 0.0 0 0 699.90 431.03
  Q 697.49 432.01 696.02 434.15
  C 680.30 443.54 661.03 438.20 653.56 421.64
  A 0.93 0.92 48.7 0 0 651.93 421.53
  C 643.21 435.80 627.63 440.81 611.68 438.26
  C 597.21 435.94 585.88 426.87 583.32 411.94
  C 580.61 396.12 590.93 382.40 605.54 377.49
  C 622.39 371.82 642.30 376.75 651.71 392.54
  A 0.97 0.97 0.0 0 0 653.41 392.48
  C 662.59 374.26 683.89 369.50 699.68 382.40
  A 0.58 0.57 19.6 0 0 700.62 381.96
  L 700.61 336.05
  Q 700.61 335.51 701.14 335.53
  Q 703.51 335.64 705.71 335.70
  Q 707.05 335.74 707.39 335.14
  Z
  M 742.07 398.59
  L 765.21 398.59
  A 0.14 0.14 0.0 0 0 765.35 398.45
  L 765.35 398.36
  A 10.99 10.17 0.0 0 0 754.36 388.19
  L 752.92 388.19
  A 10.99 10.17 -0.0 0 0 741.93 398.36
  L 741.93 398.45
  A 0.14 0.14 0.0 0 0 742.07 398.59
  Z
  M 633.88 407.08
  A 14.71 14.71 0.0 0 0 619.17 392.37
  A 14.71 14.71 0.0 0 0 604.46 407.08
  A 14.71 14.71 0.0 0 0 619.17 421.79
  A 14.71 14.71 0.0 0 0 633.88 407.08
  Z
  M 701.10 407.07
  A 14.72 14.72 0.0 0 0 686.38 392.35
  A 14.72 14.72 0.0 0 0 671.66 407.07
  A 14.72 14.72 0.0 0 0 686.38 421.79
  A 14.72 14.72 0.0 0 0 701.10 407.07
  Z"
/>
<path fill="#222023" d="
  M 373.23 346.27
  Q 388.53 357.97 393.08 376.20
  A 0.96 0.95 -6.9 0 0 394.01 376.92
  L 412.51 376.94
  Q 412.98 376.94 412.98 377.41
  Q 412.99 392.43 412.97 407.50
  C 412.97 417.95 417.73 424.80 429.24 421.98
  C 436.14 420.29 437.46 413.74 437.49 407.50
  Q 437.57 392.43 437.51 377.36
  Q 437.51 376.91 437.96 376.91
  L 457.32 376.92
  Q 457.88 376.92 457.88 377.48
  Q 457.83 393.45 457.90 409.23
  C 457.98 429.44 449.27 436.92 430.01 438.74
  Q 418.60 439.82 408.74 436.71
  C 394.14 432.10 392.44 419.54 392.44 406.29
  A 0.46 0.46 0.0 0 0 391.55 406.13
  Q 388.33 415.03 382.11 422.68
  Q 373.55 432.55 361.34 436.53
  A 0.65 0.65 0.0 0 0 361.38 437.77
  Q 368.78 439.72 375.98 440.08
  Q 382.69 440.42 387.76 436.23
  Q 389.20 434.80 390.34 434.63
  Q 390.81 434.57 391.01 435.00
  L 396.82 447.81
  Q 397.02 448.25 396.90 448.71
  Q 396.55 450.15 395.65 451.44
  C 393.70 453.19 391.87 455.59 389.83 456.96
  C 377.63 465.18 366.58 460.22 353.76 454.99
  C 345.27 451.53 334.08 450.61 326.37 457.05
  A 0.77 0.76 52.5 0 1 325.25 456.90
  Q 323.23 453.99 321.44 451.05
  Q 320.60 449.66 321.65 448.43
  Q 327.33 441.76 335.38 438.60
  A 0.43 0.42 -50.1 0 0 335.31 437.79
  C 309.63 432.49 295.80 408.78 298.01 383.24
  C 300.86 350.29 334.04 328.67 365.11 341.83
  Q 367.32 342.77 373.23 346.27
  Z
  M 327.85 409.76
  C 335.36 418.30 350.96 419.19 360.10 413.14
  C 376.58 402.24 374.68 364.56 352.21 360.63
  C 334.08 357.47 323.05 367.68 321.36 384.70
  C 320.56 392.73 322.28 403.43 327.85 409.76
  Z"
/>
<circle fill="#222023" cx="470.85" cy="351.41" r="12.03"/>
<path fill="#016795" d="
  M 360.10 413.14
  C 350.96 419.19 335.36 418.30 327.85 409.76
  C 322.28 403.43 320.56 392.73 321.36 384.70
  C 323.05 367.68 334.08 357.47 352.21 360.63
  C 374.68 364.56 376.58 402.24 360.10 413.14
  Z"
/>
<path fill="#222023" d="
  M 541.67 425.05
  A 0.57 0.57 0.0 0 0 540.71 425.48
  L 540.87 436.44
  Q 540.88 437.00 540.31 437.00
  L 461.01 437.00
  Q 460.52 437.00 460.52 436.51
  L 460.40 377.32
  A 0.40 0.39 -0.7 0 1 460.80 376.92
  L 480.16 376.92
  Q 480.65 376.92 480.65 377.41
  L 480.65 431.68
  A 0.86 0.86 0.0 0 0 482.22 432.16
  L 508.05 393.79
  A 0.94 0.94 0.0 0 0 507.27 392.33
  L 483.75 392.40
  Q 483.35 392.41 483.35 392.00
  L 483.53 377.43
  A 0.54 0.54 0.0 0 1 484.07 376.90
  L 542.21 376.92
  Q 542.80 376.92 542.47 377.41
  L 513.50 420.67
  Q 512.62 421.98 514.20 421.98
  L 538.77 422.03
  A 0.48 0.48 0.0 0 0 539.22 421.37
  Q 532.04 403.60 541.37 390.14
  C 552.21 374.50 571.47 371.30 588.52 379.87
  A 0.94 0.94 0.0 0 1 588.94 381.12
  L 582.71 393.92
  A 0.52 0.51 27.9 0 1 581.98 394.14
  C 570.98 387.77 556.91 394.22 557.65 407.73
  Q 557.97 413.60 562.09 417.87
  Q 569.82 425.89 582.07 419.95
  A 0.60 0.59 64.1 0 1 582.87 420.23
  L 588.80 432.99
  A 1.16 1.15 65.3 0 1 588.24 434.52
  C 574.99 440.60 559.41 440.81 547.59 430.89
  C 545.82 429.40 543.70 426.92 541.67 425.05
  Z"
/>
<path fill="#016795" d="
  M 742.07 398.59
  A 0.14 0.14 0.0 0 1 741.93 398.45
  L 741.93 398.36
  A 10.99 10.17 0.0 0 1 752.92 388.19
  L 754.36 388.19
  A 10.99 10.17 0.0 0 1 765.35 398.36
  L 765.35 398.45
  A 0.14 0.14 0.0 0 1 765.21 398.59
  L 742.07 398.59
  Z"
/>
<circle fill="#e0b019" cx="619.17" cy="407.08" r="14.71"/>
<circle fill="#e0b019" cx="686.38" cy="407.07" r="14.72"/>
<path fill="#016795" d="
  M 382.11 422.68
  L 387.76 436.23
  Q 382.69 440.42 375.98 440.08
  Q 368.78 439.72 361.38 437.77
  A 0.65 0.65 0.0 0 1 361.34 436.53
  Q 373.55 432.55 382.11 422.68
  Z"
/>
</svg>
