<svg width="50" height="50" viewBox="0 0 50 50" fill="none" xmlns="http://www.w3.org/2000/svg">
<rect width="50" height="50" rx="25" fill="#016795"/>
<path d="M37.9534 24.6987C37.9534 32.2644 31.9265 38.3969 24.4904 38.3969C17.0543 38.3969 11.0273 32.2644 11.0273 24.6987C11.0268 17.133 17.0543 11 24.4904 11C31.9265 11.0006 37.9534 17.133 37.9534 24.6987Z" fill="#E0B019"/>
<path d="M24.4965 21.7711L24.169 17.6051H24.1268L22.7089 21.7283H21.7706L20.355 17.6051H20.3129L19.9853 21.7711H18.4082L19.0283 14.7422H20.706L22.2409 18.7988L23.7735 14.7422H25.4512L26.0713 21.7711H24.4965Z" fill="#EDEDEB"/>
<path d="M29.1863 17.4004H30.8967L27.5179 23.987H25.8075L27.291 21.0884L25.2529 17.4004H26.9634L28.1637 19.6403L29.1863 17.4004Z" fill="#EDEDEB"/>
<path d="M7.25329 32.1638L6.82744 31.5099C6.84616 31.4843 6.87073 31.4516 6.90231 31.4124C6.93507 31.3743 7.00117 31.3018 7.1012 31.196C7.2024 31.0914 7.30009 30.9986 7.39369 30.9178C7.48845 30.8369 7.5996 30.7644 7.72595 30.7014C7.8523 30.6378 7.96929 30.6063 8.07693 30.6063V30.5659C7.15502 30.3869 6.41153 29.9256 5.84703 29.182C5.28195 28.4371 5 27.5519 5 26.5259C5 25.3721 5.37789 24.3989 6.13484 23.6059C6.89295 22.8135 7.81135 22.417 8.8912 22.417C9.9769 22.417 10.8947 22.8135 11.6452 23.6059C12.3969 24.3989 12.773 25.3721 12.773 26.5259C12.773 27.4693 12.5233 28.2998 12.0243 29.0179C11.5265 29.736 10.8707 30.2205 10.0565 30.4707V30.5088C10.0939 30.5088 10.2606 30.5385 10.5572 30.5992C10.8532 30.661 11.0907 30.6919 11.2685 30.6919C11.5072 30.6919 11.7236 30.6479 11.919 30.5611C12.1155 30.4755 12.2518 30.3911 12.3285 30.3067L12.4408 30.1711L13 31.3934C12.9871 31.4266 12.9661 31.4671 12.9368 31.5146C12.9088 31.5622 12.8438 31.6466 12.7426 31.7691C12.6426 31.8909 12.5309 31.9997 12.408 32.0948C12.2846 32.1911 12.1202 32.2779 11.9143 32.354C11.7096 32.4313 11.4908 32.4705 11.2568 32.4705C10.8731 32.4705 10.4033 32.3451 9.84821 32.0948C9.29249 31.8457 8.81282 31.7215 8.40919 31.7215C8.18749 31.7215 7.97982 31.7578 7.78678 31.8309C7.59492 31.9052 7.45803 31.9807 7.37731 32.0568L7.25329 32.1638ZM6.92103 26.5259C6.92103 26.8338 6.95496 27.1204 7.02399 27.3867C7.09418 27.653 7.20299 27.8955 7.35157 28.1143C7.50132 28.3319 7.70606 28.5031 7.96695 28.6279C8.22902 28.7534 8.53671 28.8158 8.8912 28.8158C9.55397 28.8158 10.0459 28.5982 10.3677 28.1619C10.6888 27.7261 10.8497 27.181 10.8497 26.5259C10.8497 25.8779 10.6859 25.334 10.3583 24.8947C10.0307 24.456 9.54169 24.236 8.8912 24.236C8.24657 24.236 7.75695 24.4572 7.42177 24.8995C7.08775 25.3417 6.92103 25.8839 6.92103 26.5259Z" fill="#222023"/>
<path d="M14.2496 25.5586V27.9079C14.2496 28.3948 14.3221 28.7413 14.4672 28.947C14.6134 29.1515 14.8603 29.2538 15.2066 29.2538C15.554 29.2538 15.8009 29.1515 15.946 28.947C16.091 28.7413 16.1636 28.3948 16.1636 27.9079V25.5586H17.8389V28.3216C17.8389 29.1414 17.6289 29.7329 17.2095 30.0955C16.7895 30.4587 16.122 30.64 15.2066 30.64C14.2905 30.64 13.6231 30.4587 13.2036 30.0955C12.7836 29.7329 12.5742 29.1414 12.5742 28.3216V25.5586H14.2496Z" fill="#222023"/>
<path d="M18.1489 22.8309C18.3455 22.6311 18.5795 22.5312 18.8509 22.5312C19.1223 22.5312 19.3551 22.6311 19.5505 22.8309C19.7471 23.0294 19.8453 23.266 19.8453 23.5418C19.8453 23.8177 19.7471 24.0549 19.5505 24.2528C19.3551 24.4514 19.1223 24.55 18.8509 24.55C18.5795 24.55 18.3455 24.4514 18.1489 24.2528C17.9535 24.0549 17.8564 23.8177 17.8564 23.5418C17.8564 23.266 17.9535 23.0294 18.1489 22.8309ZM17.9898 25.5796V30.516H19.6652V25.5796H17.9898Z" fill="#222023"/>
<path d="M24.6505 25.5586L22.2451 29.1967H24.461V30.495H19.4326L21.838 26.8593H19.8304V25.5586H24.6505Z" fill="#222023"/>
<path d="M26.9635 26.8329C26.6482 26.8329 26.3768 26.9518 26.1492 27.1895C25.9228 27.4273 25.8099 27.7127 25.8099 28.0456C25.8099 28.3868 25.9228 28.6757 26.1492 28.9135C26.3768 29.1501 26.6482 29.2678 26.9635 29.2678C27.1144 29.2678 27.2583 29.2488 27.394 29.2107C27.5297 29.1715 27.6292 29.1322 27.6935 29.0942L27.7778 29.0371L28.3464 30.2213C28.3025 30.2534 28.2411 30.2926 28.1615 30.3402C28.0831 30.3877 27.903 30.4537 27.621 30.5375C27.3402 30.6214 27.039 30.6636 26.7178 30.6636C26.0047 30.6636 25.3782 30.4085 24.8389 29.8979C24.299 29.3879 24.0293 28.7767 24.0293 28.0646C24.0293 27.3465 24.299 26.73 24.8389 26.2146C25.3782 25.698 26.0047 25.4395 26.7178 25.4395C27.039 25.4395 27.3355 25.4787 27.607 25.556C27.8784 25.6321 28.0708 25.7081 28.1849 25.7842L28.3464 25.9008L27.7778 27.0635C27.5701 26.9101 27.2987 26.8329 26.9635 26.8329Z" fill="#222023"/>
<path d="M28.5948 29.9336C28.0548 29.4455 27.7852 28.8201 27.7852 28.0575C27.7852 27.2936 28.0659 26.6664 28.6275 26.1766C29.1891 25.6856 29.8829 25.4395 30.71 25.4395C31.5243 25.4395 32.2104 25.6867 32.7691 26.1813C33.3271 26.6747 33.6068 27.3001 33.6068 28.0575C33.6068 28.8136 33.3336 29.4378 32.7878 29.9288C32.2414 30.4186 31.5488 30.6636 30.71 30.6636C29.8396 30.6636 29.1341 30.4204 28.5948 29.9336ZM29.891 27.2205C29.674 27.438 29.5658 27.7168 29.5658 28.0575C29.5658 28.3969 29.6693 28.6745 29.877 28.8897C30.0858 29.1037 30.3602 29.2107 30.7006 29.2107C31.0294 29.2107 31.2996 29.1025 31.5102 28.8849C31.722 28.6662 31.8285 28.3898 31.8285 28.0551C31.8285 27.7162 31.7191 27.438 31.5009 27.2205C31.2838 27.0017 31.0171 26.8923 30.7006 26.8923C30.3789 26.8923 30.1092 27.0017 29.891 27.2205Z" fill="#222023"/>
<path d="M33.8362 29.9001C33.3822 29.396 33.1553 28.779 33.1553 28.0478C33.1553 27.3172 33.3822 26.6989 33.8362 26.1931C34.2913 25.686 34.8692 25.4321 35.57 25.4321C36.2123 25.4321 36.7429 25.6378 37.1611 26.048V22.2363H38.8365V30.5112H37.1799V29.9524H37.1611C36.7429 30.422 36.2123 30.6563 35.57 30.6563C34.8692 30.6563 34.2913 30.4042 33.8362 29.9001ZM35.2612 27.2131C35.0441 27.4307 34.9359 27.7095 34.9359 28.0501C34.9359 28.3896 35.0395 28.6672 35.2471 28.8824C35.456 29.0964 35.7303 29.2034 36.0708 29.2034C36.3995 29.2034 36.6698 29.0952 36.8804 28.8776C37.0921 28.6589 37.1986 28.3825 37.1986 28.0478C37.1986 27.7089 37.0892 27.4307 36.871 27.2131C36.654 26.9944 36.3872 26.885 36.0708 26.885C35.749 26.885 35.4794 26.9944 35.2612 27.2131Z" fill="#222023"/>
<path d="M43.9908 28.2857H40.4693C40.4693 28.6329 40.5793 28.8897 40.7992 29.0561C41.0203 29.2226 41.2607 29.3058 41.5199 29.3058C41.7913 29.3058 42.0054 29.2696 42.1633 29.1964C42.3207 29.1221 42.5003 28.9765 42.7015 28.7589L43.9136 29.3748C43.4093 30.2344 42.5705 30.6636 41.3959 30.6636C40.6641 30.6636 40.0364 30.4085 39.5123 29.8979C38.9881 29.3879 38.7261 28.7732 38.7261 28.0551C38.7261 27.337 38.9881 26.7223 39.5123 26.2099C40.0364 25.6963 40.6641 25.4395 41.3959 25.4395C42.1663 25.4395 42.7928 25.6653 43.2748 26.1171C43.758 26.5689 44.0001 27.2151 44.0001 28.0551C44.0001 28.171 43.9966 28.2477 43.9908 28.2857ZM40.5161 27.3441H42.3622C42.323 27.0873 42.223 26.8899 42.0627 26.752C41.9019 26.6141 41.6954 26.5451 41.4427 26.5451C41.1648 26.5451 40.9443 26.6189 40.7805 26.7663C40.6167 26.9137 40.5284 27.1063 40.5161 27.3441Z" fill="#222023"/>
</svg>
