<svg width="800" height="800" viewBox="0 0 800 800" fill="none" xmlns="http://www.w3.org/2000/svg">
<rect width="800" height="800" rx="400" fill="#428D9E"/>
<path d="M87.0833 411.188C88.0353 415.103 88.8874 419.04 89.6397 423.001C89.6699 423.144 89.7478 423.272 89.8606 423.364C89.9734 423.456 90.1142 423.507 90.2598 423.508C90.4054 423.509 90.5471 423.461 90.6613 423.37C90.7755 423.28 90.8555 423.153 90.8879 423.011C93.9436 409.011 97.1358 394.931 100.464 380.771C102.422 372.443 107.904 363.236 116.891 362.207C120.306 361.818 126.697 361.888 130.372 363.396C140.358 367.49 141.097 375.069 141.087 385.634C141.087 404.408 141.05 423.174 140.977 441.935C140.947 449.264 137.911 456.214 129.643 456.594C122.244 456.943 116.352 456.883 112.827 449.514C111.961 447.703 111.542 445.043 111.569 441.535C111.669 429.342 112.238 417.08 111.529 404.877C111.523 404.762 111.482 404.653 111.411 404.562C111.341 404.472 111.243 404.407 111.133 404.375C111.023 404.343 110.906 404.346 110.797 404.384C110.689 404.423 110.596 404.493 110.53 404.587C110.264 404.96 110.087 405.426 110.001 405.985C109.249 410.872 108.54 415.765 107.874 420.665C107.834 420.974 107.674 421.254 107.444 421.424C107.298 421.543 107.221 421.697 107.215 421.883C106.729 430.764 105.404 439.515 103.24 448.136C101.753 454.077 98.0678 456.724 91.8666 456.714C88.7709 456.704 85.5156 457.073 82.8094 455.545C79.4675 453.661 77.5135 450.952 76.9477 447.417C75.4099 437.95 73.9819 428.843 72.1944 419.067C71.3689 414.56 70.843 409.94 70.6167 405.207C70.6111 405.084 70.5769 404.964 70.5168 404.857C70.4567 404.749 70.3723 404.658 70.2705 404.589C70.1686 404.52 70.0521 404.476 69.9301 404.46C69.8082 404.444 69.6842 404.457 69.5681 404.498C69.0156 404.697 68.7526 405.276 68.7793 406.235C69.1254 418.105 69.1953 429.978 68.989 441.855C68.8392 450.363 65.5338 456.704 56.1072 456.684C53.3311 456.674 50.1756 456.983 47.6991 455.965C41.2782 453.338 40.03 448.296 40.02 441.385C40.0067 420.928 40 400.463 40 379.992C39.9934 370.639 44.5702 364.79 53.7306 362.447C55.7144 361.941 58.8234 361.865 63.0574 362.217C71.6352 362.926 77.2073 370.046 79.2045 378.045C81.215 386.087 82.9126 393.224 84.2973 399.455C84.8698 402.018 85.7985 405.929 87.0833 411.188Z" fill="white"/>
<path d="M297.196 387.143C295.132 387.089 293.295 386.124 291.684 384.247C285.562 377.077 287.879 365.943 296.896 362.517C298.221 362.011 301.466 361.895 306.632 362.168C311.605 362.434 314.871 365.05 316.429 370.017C318.486 376.538 316.728 386.923 308.13 387.073C308.025 387.067 307.922 387.102 307.841 387.169C307.76 387.236 307.707 387.332 307.693 387.436C307.679 387.541 307.705 387.647 307.766 387.733C307.827 387.819 307.917 387.879 308.02 387.901C313.852 389.619 316.688 393.647 316.528 399.984C316.355 406.875 316.339 421.151 316.478 442.814C316.508 448.176 315.72 451.961 311.486 454.936C308.23 457.233 299.503 457.503 295.868 455.805C290.156 453.129 289.337 448.595 289.357 442.304C289.397 428.75 289.423 415.199 289.437 401.652C289.447 393.733 290.685 391.327 297.346 387.762C298.071 387.369 298.021 387.162 297.196 387.143Z" fill="white"/>
<path d="M654.09 387.452C640.809 385.205 641.618 365.094 654.41 362.297C656.807 361.768 663.747 361.988 666.293 362.927C676.299 366.601 676.149 385.335 664.705 387.282C664.186 387.369 664.16 387.535 664.626 387.781C669.259 390.238 672.604 392.385 672.654 398.237C672.741 407.81 672.724 422.729 672.604 442.993C672.591 446.295 672.265 448.695 671.626 450.193C669.658 454.796 665.894 456.684 660.821 456.684C658.374 456.684 655.508 456.943 653.312 456.234C646.252 453.968 645.692 448.735 645.692 441.645C645.699 428.55 645.689 415.456 645.662 402.361C645.642 394.911 646.621 390.018 654.12 387.951C654.853 387.745 654.843 387.578 654.09 387.452Z" fill="white"/>
<path d="M196.998 389.629C206.245 393.184 213.435 401.622 215.232 411.488C216.211 416.834 216.337 422.729 215.612 429.173C214.021 443.246 207.127 452.057 194.931 455.605C192.321 456.371 188.89 456.731 184.636 456.684C179.962 456.634 175.159 456.984 170.835 455.845C151.672 450.812 145.142 432.898 148.267 414.594C149.046 410 150.517 405.949 152.681 402.441C157.687 394.292 165.306 389.389 175.538 387.732C177.336 387.439 180.951 387.452 186.383 387.772C190.923 388.038 194.462 388.657 196.998 389.629ZM168.409 423.601C177.236 426.277 184.326 427.116 193.263 424.43C201.202 422.043 198.057 414.813 191.556 414.234C187.302 413.845 170.226 412.517 166.791 416.93C165.273 418.887 165.553 422.732 168.409 423.601Z" fill="white"/>
<path d="M252.859 426.996C253.478 429.003 254.906 430.861 255.844 432.818C256.31 433.79 257.229 434.416 258.6 434.695C261.916 435.384 265.141 433.387 264.911 429.692C264.792 427.689 264.246 425.502 263.274 423.132C259.539 414.045 248.615 408.612 253.238 396.949C256.563 388.561 263.753 387.193 271.912 387.732C274.734 387.918 277.024 388.611 278.782 389.809C287.24 395.561 285.343 406.196 282.557 414.534C281.132 418.781 279.867 423.082 278.762 427.436C278.542 428.284 277.743 429.143 277.484 430.172C276.099 435.664 274.228 440.986 271.872 446.139C269.868 450.506 266.799 453.642 262.665 455.546C259.1 457.183 254.936 456.594 250.871 456.714C240.766 457.034 232.737 449.375 229.402 440.277C225.68 430.145 222.155 419.936 218.827 409.651C216.81 403.43 215.472 401.023 217.159 395.78C219.406 388.78 225.238 387.422 231.738 387.792C234.321 387.932 236.369 388.477 237.88 389.429C239.877 390.674 241.288 392.405 242.114 394.622C244.89 402.072 248.471 412.863 252.859 426.996Z" fill="white"/>
<path d="M385.411 400.793C387.315 404.155 388.037 407.706 387.578 411.448C386.919 416.76 382.645 420.625 377.392 420.625C367.326 420.631 357.494 420.598 347.894 420.525C347.594 420.524 347.3 420.609 347.046 420.769C346.792 420.929 346.59 421.159 346.462 421.43C346.334 421.702 346.286 422.004 346.324 422.302C346.362 422.6 346.484 422.881 346.676 423.111C350.87 428.114 355.034 428.713 361.365 427.056C365.093 426.084 368.894 425.491 372.769 425.278C382.282 424.766 387.328 429.236 387.907 438.689C388.526 449.025 380.128 453.798 371.471 455.875C369.314 456.394 366.008 456.65 361.555 456.644C357.211 456.634 352.408 457.053 348.343 456.055C330.382 451.641 321.848 439.688 322.74 420.195C323.558 402.211 335.082 388.44 353.336 387.761C366.258 387.292 376.513 388.55 384.852 399.415C384.958 399.561 385.038 399.711 385.091 399.864C385.171 400.109 385.247 400.337 385.305 400.507C385.364 400.678 385.401 400.779 385.411 400.793ZM347.155 415.242L365.469 415.123C365.474 415.123 365.479 415.121 365.483 415.117C365.487 415.113 365.489 415.108 365.489 415.103V415.033C365.486 414.351 365.272 413.678 364.861 413.051C364.45 412.424 363.85 411.856 363.094 411.379C362.338 410.903 361.442 410.527 360.456 410.273C359.471 410.019 358.415 409.892 357.351 409.9L355.194 409.92C353.048 409.936 350.995 410.495 349.484 411.476C347.973 412.457 347.128 413.78 347.135 415.153V415.222C347.135 415.228 347.137 415.233 347.141 415.237C347.145 415.24 347.15 415.242 347.155 415.242Z" fill="white"/>
<path d="M455.062 403.539C455.462 406.089 455.631 406.072 455.571 403.489C455.405 395.76 459.356 390.594 467.425 387.991C470.67 386.943 480.466 387.652 484.031 389.649C490.692 393.394 492.469 401.832 492.789 409.231C493.095 416.221 493.085 423.208 492.759 430.191C492.539 435.015 493.098 440.157 492.939 445.19C492.729 451.871 488.045 456.514 481.365 456.664C474.804 456.814 469.072 456.494 466.067 449.924C465.261 448.166 464.872 445.267 464.898 441.226C464.965 429.343 464.948 421.67 464.848 418.208C464.808 416.844 464.282 415.143 463.271 413.106C463.128 412.828 462.891 412.612 462.601 412.497C456.031 409.91 456.191 420.635 456.201 424.2C456.214 432.874 456.244 439.302 456.29 443.483C456.35 448.635 455.402 452.1 451.327 454.916C448.312 457.003 445.156 456.704 441.461 456.764C433.383 456.884 428.49 451.461 428.59 443.353C428.743 431.516 428.719 422.965 428.52 417.699C428.45 415.922 427.252 412.097 424.735 412.097C421.19 412.107 420.551 416.93 420.581 419.457C420.694 427.525 420.737 435.597 420.711 443.672C420.691 450.742 417.146 456.255 409.886 456.654C403.685 457.003 397.514 456.554 394.448 450.613C393.516 448.808 393.033 446.099 393 442.484C392.9 430.002 392.874 417.519 392.92 405.037C392.934 400.257 393.433 396.782 394.418 394.612C396.395 390.271 399.904 387.935 404.943 387.602C413.761 387.013 417.975 389.249 420.511 397.867C420.751 398.686 420.967 398.683 421.16 397.857C422.658 391.426 428.11 388.421 434.601 387.742C444.677 386.683 453.285 389.779 454.723 401.033C454.896 402.371 455.009 403.206 455.062 403.539Z" fill="white"/>
<path d="M538.674 444.991C538.001 450.849 535.149 454.507 530.116 455.965C526.371 457.054 515.137 457.433 510.913 455.825C502.325 452.57 498.101 446.392 498.241 437.292C498.361 429.523 499.799 423.871 506.939 420.316C510.301 418.645 513.686 417.729 517.094 417.57C523.545 417.28 531.704 416.451 537.675 419.327C537.809 419.392 537.958 419.419 538.106 419.406C538.254 419.393 538.396 419.341 538.518 419.255C538.64 419.169 538.737 419.051 538.799 418.915C538.862 418.778 538.887 418.628 538.874 418.478C537.625 405.986 506.46 426.936 502.984 405.906C500.937 393.494 516.715 388.481 525.962 387.892C541.939 386.883 557.607 387.802 563.848 405.457C565.22 409.338 565.955 412.673 566.055 415.463C566.328 422.932 566.398 432.585 566.265 444.422C566.185 451.731 562.081 456.485 554.871 456.664C552.444 456.724 549.269 456.924 547.132 456.295C541.24 454.557 540.182 450.303 538.814 444.981C538.754 444.728 538.707 444.731 538.674 444.991ZM536.623 426.72C536.62 426.199 536.41 425.7 536.04 425.333C535.669 424.966 535.167 424.761 534.646 424.764L524.78 424.815C524.521 424.817 524.266 424.869 524.028 424.969C523.789 425.069 523.573 425.215 523.392 425.399C523.21 425.582 523.066 425.8 522.969 426.039C522.871 426.278 522.821 426.534 522.823 426.793L522.83 428.191C522.833 428.712 523.043 429.212 523.414 429.579C523.784 429.946 524.286 430.15 524.808 430.148L534.673 430.096C534.932 430.095 535.187 430.042 535.425 429.942C535.664 429.842 535.88 429.696 536.061 429.513C536.243 429.329 536.387 429.111 536.485 428.872C536.582 428.633 536.632 428.377 536.63 428.118L536.623 426.72Z" fill="white"/>
<path d="M599.927 403.15C600.786 395.268 605.053 390.225 612.729 388.021C615.715 387.162 624.213 387.582 627.568 388.91C636.515 392.445 639.401 405.726 639.481 414.723C639.627 429.183 639.577 439.252 639.331 444.931C639.118 450.003 636.934 453.552 632.78 455.575C629.775 457.043 622.295 457.333 619.02 456.055C611.88 453.289 610.971 447.846 611.021 440.337C611.074 433.46 611.111 426.583 611.131 419.706C611.141 412.476 602.943 407.993 600.626 416.97C600.373 417.922 600.223 419.26 600.177 420.984C599.937 428.966 599.94 436.949 600.187 444.931C600.326 449.577 598.449 453.012 594.555 455.236C591.489 456.993 585.457 457.123 582.502 456.654C578.607 456.028 575.778 454.011 574.014 450.603C573.155 448.938 572.725 446.578 572.725 443.523C572.712 429.423 572.662 415.329 572.576 401.242C572.542 396.276 574.293 392.471 577.828 389.829C581.213 387.302 585.378 387.552 589.522 387.791C594.435 388.071 597.73 391.057 599.258 395.521C600.047 397.807 599.837 400.563 599.837 403.15C599.844 403.676 599.874 403.676 599.927 403.15Z" fill="white"/>
<path d="M718.809 445.22C717.983 451.904 714.395 455.659 708.044 456.484C703.77 457.034 694.723 457.184 690.249 455.586C680.063 451.971 677.467 442.704 678.695 432.189C679.764 423.052 687.283 418.758 695.591 417.52C698.86 417.04 704.253 417.057 711.769 417.57C713.965 417.719 715.673 418.578 717.67 419.207C717.941 419.289 718.231 419.279 718.495 419.18C718.759 419.08 718.984 418.897 719.134 418.657C719.284 418.418 719.35 418.135 719.324 417.854C719.298 417.573 719.18 417.308 718.988 417.1C714.744 412.557 708.403 414.294 703.181 415.123C698.581 415.849 695.518 416.125 693.994 415.952C687.783 415.246 684.158 411.801 683.119 405.617C680.992 392.955 697.998 388.231 707.025 387.812C723.282 387.053 738.181 388.271 744.283 406.216C744.875 407.96 745.391 410.56 745.83 414.015C746.123 416.278 746.27 418.914 746.27 421.923C746.283 429.759 746.306 437.591 746.34 445.42C746.366 450.014 744.416 453.356 740.488 455.446C737.582 456.994 729.703 457.373 726.518 456.065C721.964 454.181 719.498 450.566 719.118 445.22C719.121 445.179 719.107 445.14 719.08 445.111C719.053 445.082 719.014 445.066 718.973 445.066C718.932 445.066 718.892 445.082 718.861 445.111C718.83 445.14 718.811 445.179 718.809 445.22ZM716.741 426.964C716.74 426.682 716.684 426.403 716.576 426.143C716.468 425.883 716.309 425.646 716.109 425.447C715.91 425.248 715.673 425.09 715.412 424.983C715.151 424.876 714.872 424.82 714.59 424.821L704.924 424.838C704.354 424.839 703.809 425.066 703.407 425.469C703.005 425.873 702.78 426.419 702.781 426.988L702.782 427.947C702.783 428.229 702.839 428.508 702.947 428.768C703.055 429.029 703.214 429.265 703.414 429.464C703.613 429.663 703.85 429.821 704.111 429.928C704.372 430.036 704.651 430.091 704.933 430.09L714.599 430.073C715.169 430.072 715.714 429.845 716.116 429.442C716.518 429.039 716.743 428.492 716.742 427.923L716.741 426.964Z" fill="white"/>
</svg>
