<svg width="50" height="50" viewBox="0 0 50 50" fill="none" xmlns="http://www.w3.org/2000/svg">
<rect width="50" height="50" rx="25" fill="white"/>
<path d="M23.261 10.0854C20.7817 10.4399 18.7262 11.2042 16.702 12.5516C13.5087 14.6712 11.1393 17.9963 10.1978 21.7075C9.986 22.5269 9.81339 23.6694 9.89185 23.7167C9.986 23.7798 10.0252 23.6694 10.1194 23.0785C10.4175 21.148 11.1629 19.1939 12.2691 17.3896C14.4659 13.8281 18.2711 11.2121 22.3901 10.432C23.6297 10.1957 26.0541 10.1405 27.3408 10.3139C31.4363 10.8812 35.0532 13.0401 37.5873 16.4283C38.8662 18.1381 39.9489 20.628 40.3177 22.716C40.4824 23.6458 40.5295 23.7876 40.6315 23.7167C40.6942 23.6773 40.5059 22.4718 40.3333 21.7863C39.8155 19.7849 38.8505 17.7678 37.6736 16.1919C37.1009 15.4276 35.7436 14.0172 34.9904 13.4105C32.9113 11.7322 30.4555 10.6212 27.7331 10.1563C26.7367 9.98292 24.2496 9.94353 23.261 10.0854Z" fill="#79321B" stroke="#79321B" stroke-width="0.3"/>
<path d="M26.9472 11.774C26.3117 12.3232 25.9508 12.7626 25.684 13.3275L25.3859 13.9551L24.8995 13.9316C24.515 13.9159 24.3738 13.9473 24.1933 14.0807C23.754 14.4102 23.6049 14.9123 23.7304 15.642C23.7854 15.9479 23.7775 15.9636 23.4951 16.1127C23.1499 16.301 22.7576 16.8031 22.7576 17.0699C22.7576 17.1876 22.6399 17.368 22.4359 17.5563C22.1378 17.8466 22.1221 17.8858 22.1378 18.286C22.1535 18.5684 22.1221 18.7646 22.0358 18.8979C21.9652 19.0078 21.8867 19.2039 21.8553 19.3373C21.7612 19.8002 22.2868 21.9578 22.687 22.7502C23.0008 23.3779 23.6755 23.5583 25.4957 23.5034C26.9315 23.4642 27.261 23.3936 27.6612 23.0483C27.9672 22.7737 28.2967 21.8793 28.5791 20.5456C28.7831 19.5491 28.7753 19.3687 28.5399 18.9529C28.3987 18.6861 28.3751 18.5763 28.43 18.3723C28.4693 18.2389 28.4771 17.9957 28.4536 17.8388C28.3908 17.5328 28.0142 17.0542 27.771 16.9757C27.6925 16.9444 27.6219 16.8737 27.6219 16.8188C27.6219 16.5207 27.363 16.0813 27.1041 15.9479C26.9237 15.8459 26.8531 15.7596 26.8844 15.6812C27.1041 15.132 26.9158 14.3631 26.4922 14.1042C26.3588 14.0179 26.1077 13.9551 25.9194 13.9551C25.5114 13.9551 25.5036 13.9002 25.8174 13.2804C26.0528 12.8175 26.4529 12.3311 26.8609 12.0094C26.9864 11.9152 27.0727 11.8132 27.057 11.774C27.0414 11.7269 26.9943 11.7348 26.9472 11.774ZM25.1741 14.0807C25.2761 14.112 25.3467 14.1905 25.3467 14.2846C25.3467 14.4102 25.3074 14.4337 25.1505 14.4102C25.0407 14.3866 24.9544 14.3945 24.9544 14.4259C24.9544 14.5828 25.535 14.6377 25.739 14.5043C25.8331 14.4416 25.8096 14.4259 25.6448 14.4259C25.3388 14.4259 25.4408 14.1434 25.7703 14.0807C26.3823 13.963 26.8374 14.4023 26.8374 15.1163C26.8374 15.6577 26.7197 15.893 26.3745 16.0029C26.2175 16.0578 25.9273 16.199 25.7311 16.3245C25.3153 16.5756 25.1819 16.5913 24.7112 16.4265C24.1149 16.2147 23.7775 15.7596 23.7775 15.1712C23.7775 14.3474 24.3816 13.8688 25.1741 14.0807ZM27.3238 16.3167C27.4179 16.4344 27.4729 16.6541 27.4729 16.913C27.4886 17.4151 27.2767 17.7289 26.704 18.0977C25.8331 18.6547 23.4323 19.149 22.7968 18.9058C22.6791 18.8587 22.7497 18.8273 23.0557 18.7881C23.8403 18.6861 25.3153 18.0584 26.0606 17.5171C26.5863 17.1327 26.8374 16.7325 26.8374 16.2775C26.8374 15.9009 26.8374 15.9009 27.01 16.0107C27.1041 16.0735 27.2453 16.2147 27.3238 16.3167ZM24.1698 16.2696L24.3503 16.4579L23.9658 16.6305C22.8988 17.0934 22.8047 17.1013 23.0008 16.7247C23.1263 16.4815 23.6677 16.0735 23.856 16.0735C23.9266 16.0735 24.0678 16.1598 24.1698 16.2696ZM26.704 16.3716C26.6726 17.0699 25.5899 17.878 23.9423 18.4272C23.2126 18.6704 22.5457 18.7332 22.381 18.5684C22.3261 18.5135 22.2868 18.3409 22.2868 18.1683C22.2868 17.6819 22.585 17.4465 23.2675 17.3837C23.9972 17.3209 24.7269 17.0856 25.3074 16.7325C26.4765 16.0029 26.7275 15.9401 26.704 16.3716ZM25.1113 16.709C25.1113 16.8816 23.0479 17.4151 22.9223 17.2817C22.8988 17.2503 22.9145 17.2111 22.9537 17.1954C23.0008 17.1797 23.3695 17.015 23.7775 16.8345C24.4444 16.5364 24.5543 16.505 24.821 16.5756C24.9779 16.6227 25.1113 16.6776 25.1113 16.709ZM28.1554 17.4857C28.3987 17.8466 28.3908 18.3409 28.1319 18.6469C27.9201 18.9058 27.3552 19.1725 26.8766 19.251C26.5235 19.3059 26.5157 19.3295 27.1747 18.843C27.6376 18.5135 27.8808 18.0428 27.8416 17.5642C27.8181 17.117 27.8887 17.0934 28.1554 17.4857ZM27.7789 17.6269C27.7789 18.1448 27.2689 18.7332 26.4294 19.1725C25.99 19.4079 25.786 19.4628 25.2525 19.5021C24.4993 19.557 23.3695 19.4236 22.938 19.2275L22.6399 19.1019L23.5422 19.047C25.4487 18.945 27.0884 18.2938 27.5199 17.4622C27.6141 17.2817 27.6533 17.2503 27.7082 17.3366C27.7475 17.3994 27.7789 17.5249 27.7789 17.6269ZM28.5164 19.149C28.7125 19.6276 28.6419 20.0277 28.3281 20.1925C27.9985 20.3651 26.8452 20.5456 25.739 20.6005C24.1855 20.6711 22.3182 20.4122 22.075 20.0905C21.9338 19.9179 21.9495 19.3295 22.0985 19.0392L22.2241 18.8038L22.4516 19.0392C22.8203 19.4158 23.2832 19.5413 24.5229 19.5805C26.0371 19.6354 27.4807 19.353 28.0299 18.8979C28.2731 18.694 28.3437 18.7332 28.5164 19.149ZM22.6713 20.4985C22.8282 20.5691 22.891 20.6946 22.9929 21.1732C23.0636 21.4949 23.2048 22.0676 23.3068 22.4442C23.4088 22.8208 23.4715 23.1503 23.448 23.1739C23.3617 23.2602 22.9851 23.0248 22.8439 22.7894C22.6399 22.4599 22.1299 20.8437 22.1299 20.5456C22.1299 20.3259 22.1535 20.3023 22.3104 20.3494C22.4045 20.3808 22.5693 20.4436 22.6713 20.4985ZM28.485 20.3808C28.485 20.5377 28.0927 21.9499 27.9358 22.3658C27.771 22.8051 27.4101 23.2131 27.1826 23.2131C27.0414 23.2131 27.0414 23.1582 27.1983 22.7345C27.3003 22.4364 27.5749 21.385 27.7318 20.6946C27.7632 20.5534 27.8495 20.4671 28.0299 20.4122C28.3673 20.3023 28.485 20.2945 28.485 20.3808ZM23.8324 20.6711C24.0286 20.7103 24.0286 20.7182 24.1698 22.0676C24.2169 22.5384 24.2797 23.0248 24.3032 23.1503C24.3424 23.3543 24.3267 23.37 24.1149 23.37C23.9894 23.37 23.8246 23.3229 23.754 23.268C23.6206 23.166 22.9537 20.7417 23.0322 20.624C23.0714 20.5612 23.3931 20.5769 23.8324 20.6711ZM27.5749 20.8358C27.5121 21.2046 26.9394 23.2131 26.8844 23.268C26.8687 23.2916 26.704 23.3229 26.5235 23.3465C26.2254 23.3857 26.194 23.3779 26.2332 23.2445C26.296 23.0405 26.5157 21.4478 26.5392 21.0163L26.5628 20.6632L26.9158 20.6162C27.6533 20.5142 27.6376 20.5142 27.5749 20.8358ZM25.1898 22.0755V23.4485H24.8367C24.5386 23.4485 24.4836 23.4249 24.4444 23.268C24.3738 22.962 24.1698 21.2517 24.1698 20.9692V20.7025H24.6798H25.1898V22.0755ZM26.398 21.2674C26.3509 21.8872 26.1391 23.2916 26.0763 23.3857C26.0606 23.4249 25.888 23.4485 25.6919 23.4485H25.3467V22.0755V20.7025H25.8959H26.4451L26.398 21.2674Z" fill="#79321B" stroke="#79321B" stroke-width="0.3"/>
<path d="M14.6549 26.4951C14.1136 26.7462 12.411 27.8368 11.6186 28.4409C11.1322 28.8096 11.1008 28.8175 10.2848 28.9195C9.31981 29.0372 9.02168 29.2098 9.93178 29.1235C10.2535 29.0999 10.583 29.0529 10.6693 29.0372C10.7713 29.0136 10.6928 29.1078 10.4731 29.2961C9.77487 29.8845 9.49242 30.1748 9.54734 30.2297C9.57872 30.2611 9.75918 30.1434 9.93963 29.9786C10.1279 29.806 10.4731 29.5158 10.7164 29.3353L11.1636 28.9979L12.2306 29.0215L13.2976 29.045L13.0152 29.4373C12.6778 29.908 12.4346 30.3709 12.4346 30.5357C12.4346 30.7318 12.568 30.6691 12.6229 30.4337C12.6464 30.316 12.8661 29.9473 13.1093 29.6021L13.5487 28.9822L14.5215 29.0372C15.1414 29.0764 15.4944 29.0685 15.4944 29.0215C15.4944 28.9744 15.1492 28.9195 14.7334 28.8881C14.3097 28.8646 13.9017 28.8332 13.8233 28.8253C13.7134 28.8096 13.7919 28.6763 14.1842 28.182C15.1649 26.9345 15.4944 26.4873 15.4944 26.3696C15.4944 26.197 15.1884 26.2362 14.6549 26.4951ZM15.1257 26.707C15.0001 26.8717 14.5686 27.4209 14.1685 27.9231L13.4467 28.8489H12.411C11.8461 28.8489 11.4146 28.8175 11.4617 28.7861C11.9717 28.3389 13.9331 27.0365 14.5922 26.6991C15.2983 26.3382 15.4081 26.3382 15.1257 26.707Z" fill="#79321B" stroke="#79321B" stroke-width="0.3"/>
<path d="M19.285 26.4558C18.4377 26.7304 17.4099 27.4052 17.096 27.8759C16.8607 28.2447 17.0411 28.1584 17.5197 27.6876C18.3514 26.8795 19.6067 26.3695 20.6109 26.4402C21.1287 26.4794 21.2935 26.6206 21.3014 27.0364C21.3014 27.5621 20.6972 28.3231 19.9911 28.684C19.3007 29.0449 18.1866 29.2097 18.1081 28.9665C18.0924 28.9273 18.4141 28.535 18.8221 28.1113C19.2301 27.6798 19.5518 27.311 19.5361 27.2953C19.4654 27.2247 19.0889 27.5464 18.524 28.1741C18.0297 28.7154 17.8885 28.8253 17.7394 28.8017C17.5119 28.7546 17.4177 28.8802 17.5432 29.0763C17.6139 29.194 17.5746 29.296 17.2765 29.7197C16.845 30.3473 16.6724 30.6847 16.6724 30.8965C16.6724 31.0378 16.8214 31.1319 16.8371 30.9907C16.8685 30.6925 16.9705 30.465 17.3471 29.9001C17.6295 29.4921 17.8414 29.2489 17.9277 29.2489C18.014 29.2489 18.1552 29.398 18.2807 29.6177C18.5475 30.0884 18.8535 30.4179 19.0889 30.5121C19.3164 30.5984 19.8656 30.4729 20.3991 30.2061C21.1052 29.8531 21.9839 29.1705 21.725 29.1705C21.7015 29.1705 21.4583 29.3274 21.1915 29.5235C20.556 29.9707 19.7557 30.3473 19.3948 30.363C19.2065 30.3709 19.0418 30.316 18.9398 30.2218C18.7593 30.0649 18.32 29.4215 18.32 29.3117C18.32 29.2803 18.4377 29.2489 18.5789 29.2489C19.2772 29.2489 20.2579 28.8017 20.8463 28.2211C21.5053 27.5699 21.6544 26.8403 21.2151 26.4715C21.0032 26.2911 20.9091 26.2675 20.4148 26.2675C20.046 26.2754 19.6537 26.3382 19.285 26.4558Z" fill="#79321B" stroke="#79321B" stroke-width="0.3"/>
<path d="M29.7814 26.3833C29.1616 26.5088 28.7771 26.6422 28.1652 26.9561C27.6159 27.2307 26.7529 27.8662 26.6352 28.078C26.5332 28.282 26.6352 28.2663 26.8706 28.0388C27.2943 27.6465 28.2593 27.0424 28.832 26.8227C30.2913 26.2656 31.782 26.3519 31.6251 26.9874C31.5467 27.2934 31.0916 27.7249 30.5816 27.9838C30.205 28.1721 30.0717 28.2035 29.7186 28.1721C29.2165 28.1172 28.581 28.3291 28.6202 28.533C28.6594 28.7213 29.0439 28.7292 29.6166 28.5487C30.1815 28.3761 30.3777 28.4154 30.4561 28.7292C30.566 29.1764 30.5424 29.1842 29.3106 29.2078C28.683 29.2156 28.0788 29.2549 27.9612 29.2862C27.8278 29.3176 27.7415 29.3098 27.7415 29.2705C27.7415 29.1686 29.5852 27.2856 29.9383 27.0267C30.0874 26.9168 30.1815 26.7991 30.1501 26.7678C30.0246 26.6422 28.832 27.7328 27.9219 28.7998C27.5924 29.1842 27.2237 29.5295 27.0903 29.5922C26.5019 29.8354 26.1723 30.314 26.4156 30.5573C26.4783 30.62 26.4626 30.6985 26.3685 30.8397C26.29 30.9731 26.2743 31.0515 26.3214 31.0908C26.3685 31.1143 26.4469 31.0515 26.494 30.9495C26.5725 30.7691 26.6117 30.7612 27.2943 30.7691C27.6944 30.7691 28.2122 30.722 28.4476 30.6671C29.1537 30.4945 29.9854 30.063 30.26 29.7256C30.4796 29.4432 30.5189 29.4275 30.7464 29.4902C31.0524 29.5765 31.0367 29.5765 31.0367 29.4902C31.0367 29.451 30.9347 29.3804 30.817 29.3412C30.6209 29.2784 30.5973 29.2313 30.6287 29.0273C30.6444 28.9018 30.5973 28.6821 30.5267 28.5409C30.4561 28.4075 30.409 28.282 30.4247 28.2741C30.4404 28.2663 30.613 28.1643 30.8092 28.0466C31.2642 27.7877 31.7114 27.2934 31.782 26.9717C31.9154 26.3755 31.0602 26.1244 29.7814 26.3833ZM29.6245 28.384C29.6245 28.4232 29.5774 28.4624 29.5303 28.4624C29.4754 28.4624 29.2871 28.486 29.1145 28.5095C28.9027 28.5487 28.8242 28.533 28.8791 28.4781C29.0282 28.3291 29.6245 28.2506 29.6245 28.384ZM30.1737 29.4039C30.2678 29.4588 30.26 29.5059 30.0952 29.6785C29.6166 30.1963 28.4868 30.5965 27.4983 30.6122C27.1687 30.62 26.8706 30.5965 26.8392 30.5651C26.7843 30.5102 27.2472 29.8198 27.459 29.6471C27.7415 29.4118 29.8834 29.2156 30.1737 29.4039ZM27.0354 29.8511C27.0354 29.9374 26.6352 30.4239 26.5568 30.4239C26.4077 30.4239 26.494 30.1493 26.7058 29.9767C26.9177 29.7962 27.0354 29.757 27.0354 29.8511Z" fill="#79321B" stroke="#79321B" stroke-width="0.3"/>
<path d="M34.7966 26.3718C34.7339 26.4503 34.5534 26.4895 34.2474 26.4895C33.7845 26.4895 33.5413 26.5444 33.5413 26.6386C33.5413 26.6699 33.7532 26.6778 34.0121 26.6621C34.5142 26.6229 34.5848 26.6856 34.3181 26.9289C34.0827 27.1407 32.6391 28.9844 32.0742 29.7847C31.627 30.4359 31.6034 30.4516 31.2033 30.5301C30.9758 30.5693 30.7953 30.6399 30.811 30.687C30.8267 30.7262 30.8502 30.7576 30.8738 30.7497C30.8973 30.7419 31.0464 30.7184 31.2111 30.687C31.4622 30.6399 31.5014 30.6477 31.5014 30.7733C31.5093 30.9145 31.5093 30.9145 31.6113 30.7811C31.6897 30.6791 31.831 30.6477 32.1997 30.6477C32.4665 30.6477 32.6783 30.6164 32.6783 30.5693C32.6783 30.4987 32.4429 30.4594 32.0349 30.4673C31.9565 30.4673 31.8937 30.4438 31.8937 30.4124C31.8937 30.3104 32.8666 28.9531 33.5884 28.0508L34.3102 27.1485L35.44 26.9759C37.1033 26.7249 37.5662 26.6856 37.5348 26.7876C37.5191 26.8426 36.9228 27.5722 36.2089 28.4117C34.9849 29.8632 34.3259 30.7733 34.3259 31.0243C34.3259 31.2048 34.5064 31.0793 34.5691 30.8517C34.6476 30.5693 35.236 29.8004 36.4992 28.3254C37.0641 27.6742 37.5976 27.023 37.6917 26.8896L37.8643 26.6464H38.6803H39.4963L39.308 26.9289C39.0569 27.2898 39.0647 27.3839 39.3236 27.5801C39.4335 27.6742 39.5119 27.7527 39.4963 27.7684C39.4806 27.7762 39.2609 27.886 39.0177 28.0194C37.574 28.7569 36.7973 29.9809 37.4485 30.4908C37.7467 30.734 38.5077 30.6791 39.1118 30.3731C39.5904 30.1378 40.4299 29.5572 40.5947 29.361C40.8143 29.0943 40.5947 29.1492 40.2338 29.4473C39.3786 30.1456 38.6411 30.4908 38.0134 30.4908C37.5584 30.4908 37.3857 30.3496 37.3857 29.9887C37.3857 29.2983 38.6175 28.2313 39.8885 27.8154C40.5947 27.5879 40.6731 27.4859 40.0925 27.5487C39.6924 27.5957 39.5904 27.5801 39.4256 27.4467C39.2452 27.2976 39.2452 27.2898 39.3707 27.0858C39.4413 26.9759 39.6218 26.8269 39.7552 26.7563C39.9984 26.6307 40.0141 26.6307 40.1396 26.7955C40.3201 27.0152 40.3985 27.0073 40.3357 26.7641C40.2965 26.615 40.3201 26.568 40.4064 26.568C40.4691 26.568 40.5711 26.6543 40.6182 26.7641C40.728 27.0073 40.8693 27.023 40.7908 26.7798C40.6888 26.4267 40.6574 26.4189 39.3315 26.4581C38.3822 26.4817 38.0448 26.466 38.0056 26.3953C37.9585 26.3247 37.9114 26.3326 37.7937 26.4346C37.7153 26.5052 37.527 26.568 37.3779 26.568C37.2288 26.568 36.7424 26.6229 36.303 26.6856C35.5812 26.7876 35.4792 26.7876 35.3694 26.6856C35.3066 26.6229 35.1811 26.568 35.0948 26.568C34.9849 26.568 34.9536 26.5287 34.9771 26.4503C35.0399 26.2934 34.9143 26.2306 34.7966 26.3718ZM35.1889 26.7955C35.1889 26.8582 34.6319 26.9681 34.5691 26.9132C34.5613 26.9053 34.5691 26.8582 34.6005 26.8112C34.6633 26.7092 35.1889 26.6935 35.1889 26.7955Z" fill="#79321B" stroke="#79321B" stroke-width="0.3"/>
<path d="M8.2015 26.4212C7.45616 26.4996 6.16945 26.7507 5.8164 26.8841C5.38488 27.0488 5.68302 27.0567 6.37344 26.8998C8.24073 26.4604 10.2414 26.429 10.4925 26.8291C10.5238 26.8762 10.5709 26.8919 10.6023 26.8605C10.7435 26.7193 10.3355 26.4839 9.84126 26.4133C9.26853 26.327 9.1273 26.327 8.2015 26.4212Z" fill="#79321B" stroke="#79321B" stroke-width="0.3"/>
<path d="M43.1086 26.5202C42.1985 26.7948 41.3668 27.344 41.1079 27.8383C40.9588 28.1364 40.9667 28.5601 41.1393 28.7719C41.2177 28.8661 41.5237 29.1093 41.8219 29.3055C42.1279 29.5094 42.3789 29.7291 42.3946 29.7919C42.4103 29.8782 42.2377 29.9723 41.767 30.1293C41.0216 30.3646 40.7627 30.5215 40.7627 30.7255C40.7627 30.8824 40.9667 30.9688 41.3511 30.9688C41.8533 30.9688 42.7241 30.396 42.7241 30.0665C42.7241 29.9723 43.0537 29.839 44.2541 29.4388C44.8739 29.2348 45.1485 29.0858 44.9209 29.0858C44.8582 29.0858 44.3168 29.2505 43.7284 29.4545L42.6535 29.8233L42.4888 29.6193C42.4025 29.5016 42.12 29.2819 41.8611 29.125C41.0216 28.615 40.9275 28.2227 41.508 27.6029C42.2534 26.8027 44.0736 26.2456 44.5757 26.6614C44.8346 26.8733 44.6385 27.4303 44.1599 27.8226C43.8461 28.0815 43.8539 28.2463 44.1756 28.0344C44.7797 27.6343 45.0465 26.787 44.6385 26.5281C44.3247 26.3162 43.7755 26.3162 43.1086 26.5202ZM42.4495 30.2548C42.3868 30.4588 41.7748 30.7491 41.3041 30.7961C40.8882 30.8354 40.7941 30.7255 41.0922 30.5686C41.3354 30.4352 42.4417 30.0351 42.4731 30.0665C42.4888 30.0822 42.4809 30.1685 42.4495 30.2548Z" fill="#79321B" stroke="#79321B" stroke-width="0.3"/>
<path d="M7.14296 27.7688C6.28777 28.671 6.27208 28.6789 5.78564 28.7809C5.51104 28.8358 5.29921 28.9143 5.3149 28.9613C5.33059 29.0006 5.36197 29.0319 5.39336 29.0241C5.42474 29.0084 5.5895 28.977 5.76995 28.9535L6.09947 28.8986L5.6758 29.4478C5.18152 30.099 4.93046 30.5383 5.01676 30.6246C5.05599 30.656 5.10306 30.6403 5.11876 30.5854C5.20506 30.3579 5.92687 29.3379 6.18578 29.0947C6.45253 28.8358 6.48391 28.828 7.2528 28.7887C7.76277 28.7573 8.02953 28.7181 7.97461 28.6632C7.93538 28.624 7.6137 28.6004 7.26849 28.6161C6.91543 28.6318 6.63298 28.6318 6.63298 28.6004C6.63298 28.5769 6.95466 28.216 7.34695 27.8002C7.73923 27.3843 8.04522 26.9999 8.02953 26.9528C8.01384 26.8979 7.6137 27.2745 7.14296 27.7688Z" fill="#79321B" stroke="#79321B" stroke-width="0.3"/>
<path d="M8.0835 30.0241C8.05996 30.0633 8.09134 30.1025 8.15411 30.1025C8.22472 30.1025 8.27964 30.0633 8.27964 30.0241C8.27964 29.977 8.24826 29.9456 8.20903 29.9456C8.16196 29.9456 8.10704 29.977 8.0835 30.0241Z" fill="#79321B" stroke="#79321B" stroke-width="0.3"/>
<path d="M14.9893 30.0241C14.9657 30.0633 14.9971 30.1025 15.0599 30.1025C15.1305 30.1025 15.1854 30.0633 15.1854 30.0241C15.1854 29.977 15.154 29.9456 15.1148 29.9456C15.0677 29.9456 15.0128 29.977 14.9893 30.0241Z" fill="#79321B" stroke="#79321B" stroke-width="0.3"/>
<path d="M11.2202 32.1555C11.2202 32.3359 11.8322 33.4265 12.4049 34.2738C13.9976 36.6275 15.9512 38.3065 18.556 39.5854C20.7999 40.6838 23.1301 41.1624 25.7741 41.0761C28.2063 40.9976 30.1128 40.519 32.286 39.4363C34.6241 38.2595 36.813 36.2823 38.3037 33.9992C38.8608 33.144 39.3551 32.179 39.2688 32.0927C39.206 32.0299 39.2138 32.0142 38.6725 32.9793C36.813 36.2666 34.0356 38.6596 30.56 39.962C28.8575 40.5975 27.2648 40.8721 25.2641 40.8721C22.9418 40.8721 21.2 40.5269 19.2856 39.6952C15.9355 38.2359 13.3072 35.8116 11.6439 32.6419C11.3771 32.1241 11.2202 31.9515 11.2202 32.1555Z" fill="#79321B" stroke="#79321B" stroke-width="0.3"/>
<path d="M26.2565 33.7035C26.1624 33.8134 26.131 33.9625 26.1389 34.1978C26.1467 34.3861 26.1153 34.6215 26.0682 34.7156C25.9506 34.9353 25.9506 35.2335 26.0682 35.3512C26.1938 35.4767 26.4684 35.4688 26.5861 35.3512C26.6645 35.2727 26.7194 35.2727 26.845 35.3512C27.049 35.4845 27.151 35.3982 26.9548 35.257C26.8293 35.1707 26.8293 35.1236 26.8999 34.8961C27.0097 34.5823 27.0097 34.5823 26.9234 34.5823C26.8842 34.5823 26.8293 34.6686 26.8057 34.7784C26.743 35.0295 26.6645 35.0295 26.4998 34.7549C26.3742 34.5352 26.3742 34.5195 26.5704 34.2606C26.8057 33.9389 26.7979 33.6094 26.5547 33.578C26.4684 33.5623 26.335 33.6251 26.2565 33.7035ZM26.6018 33.8605C26.6018 33.9311 26.5311 34.0801 26.4448 34.19C26.3036 34.3704 26.2879 34.3783 26.2801 34.2292C26.2644 33.9938 26.2958 33.8448 26.3821 33.7428C26.4841 33.6172 26.6018 33.6879 26.6018 33.8605ZM26.4684 34.9667C26.5861 35.1707 26.5861 35.2021 26.4762 35.2413C26.2252 35.3355 26.131 35.2884 26.131 35.0687C26.131 34.6764 26.2722 34.6372 26.4684 34.9667Z" fill="#79321B" stroke="#79321B" stroke-width="0.3"/>
<path d="M17.1073 33.6789C17.0445 33.6946 16.8483 33.7338 16.6757 33.7573C16.3854 33.8044 16.3776 33.8201 16.511 33.9221C16.6365 34.0084 16.6522 34.0947 16.613 34.4791C16.5894 34.7302 16.5973 35.0597 16.6287 35.2088L16.6914 35.4834L16.7542 35.0754L16.8091 34.6753L17.1779 34.6204C17.7741 34.5419 17.8604 34.4007 17.2877 34.4556L16.7934 34.5027V34.1967V33.8907L17.3191 33.8358C17.6643 33.7966 17.7977 33.7573 17.7271 33.7103C17.6172 33.6475 17.3505 33.6318 17.1073 33.6789Z" fill="#79321B" stroke="#79321B" stroke-width="0.3"/>
<path d="M19.2678 33.7339C19.2521 33.7888 19.2207 34.0085 19.205 34.2125C19.1815 34.4792 19.0952 34.6754 18.9383 34.8794C18.4911 35.4364 18.2949 35.2481 18.2792 34.2439C18.2714 33.6868 18.2714 33.679 18.1929 34.032C18.1066 34.44 18.1615 35.099 18.2949 35.256C18.4597 35.4521 18.7343 35.3815 18.9853 35.0755L19.2286 34.7774V35.0677C19.2286 35.2246 19.2678 35.3815 19.307 35.405C19.3541 35.4364 19.3855 35.1304 19.3855 34.5498C19.3855 33.7182 19.3541 33.4828 19.2678 33.7339Z" fill="#79321B" stroke="#79321B" stroke-width="0.3"/>
<path d="M20.0882 33.7167C19.8999 33.7717 19.8921 33.7874 19.8921 34.5092C19.8921 35.231 19.8999 35.2545 20.1039 35.3643C20.3001 35.4742 20.3315 35.4742 20.5276 35.3251C20.8571 35.0819 21.0376 34.7995 21.0846 34.4542C21.116 34.2032 21.0925 34.109 20.9434 33.9364C20.7394 33.7089 20.4021 33.6226 20.0882 33.7167ZM20.6845 33.9443C20.7316 33.9757 20.81 34.0698 20.8493 34.1561C21.0297 34.5092 20.5982 35.2153 20.2059 35.2153C20.0098 35.2153 20.0098 35.2074 20.0098 34.5484V33.8815H20.3079C20.4648 33.8815 20.6374 33.9129 20.6845 33.9443Z" fill="#79321B" stroke="#79321B" stroke-width="0.3"/>
<path d="M21.98 33.7517C21.878 33.7988 21.7211 33.94 21.6348 34.0577C21.4308 34.3323 21.368 35.0384 21.5171 35.2502C21.6583 35.4307 22.0036 35.4385 22.1997 35.2659C22.3723 35.109 22.4429 35.109 22.4429 35.2581C22.4429 35.3208 22.4821 35.3758 22.5214 35.3758C22.5684 35.3758 22.5998 35.1639 22.5998 34.8893C22.5998 34.3872 22.5449 34.348 22.4037 34.7716C22.3017 35.0855 21.9565 35.2973 21.7603 35.1718C21.6583 35.1012 21.6191 34.9835 21.6348 34.7167C21.6505 34.2774 21.8937 33.8929 22.2154 33.8302C22.3409 33.8066 22.4429 33.7595 22.4429 33.7203C22.4429 33.6183 22.1997 33.634 21.98 33.7517Z" fill="#79321B" stroke="#79321B" stroke-width="0.3"/>
<path d="M23.3148 33.7447C23.1265 33.7839 23.0088 33.8467 23.0402 33.8859C23.1344 33.9644 24.2563 33.8074 24.2014 33.7211C24.1465 33.6348 23.762 33.6427 23.3148 33.7447Z" fill="#79321B" stroke="#79321B" stroke-width="0.3"/>
<path d="M29.1824 33.767C28.9549 33.8925 28.8765 34.1436 28.8765 34.7791C28.8765 35.4852 29.0098 35.4303 29.0569 34.7007C29.104 33.9475 29.206 33.7749 29.5826 33.8219C29.7395 33.8376 29.7787 33.8847 29.7787 34.0808C29.7787 34.277 29.7317 34.3398 29.4492 34.4731C29.0648 34.6536 29.0255 34.7477 29.3315 34.7477C29.4884 34.7477 29.5826 34.8105 29.6767 34.9674C29.8258 35.2185 30.1318 35.5088 30.1318 35.4068C30.1318 35.3597 30.0219 35.1793 29.8886 34.991L29.6375 34.6614L29.818 34.4731C30.0141 34.2691 30.0455 33.9475 29.8964 33.767C29.7709 33.6179 29.4492 33.6179 29.1824 33.767Z" fill="#79321B" stroke="#79321B" stroke-width="0.3"/>
<path d="M30.4807 34.2891C30.4494 34.705 30.4572 35.0502 30.5043 35.1914C30.5749 35.3875 30.5906 35.3483 30.5984 34.9011C30.6063 34.6187 30.6298 34.297 30.6455 34.1871C30.6612 34.0695 30.6455 33.8968 30.6063 33.7949C30.5514 33.6458 30.5278 33.7556 30.4807 34.2891Z" fill="#79321B" stroke="#79321B" stroke-width="0.3"/>
<path d="M31.4182 33.8974C31.1828 34.1171 31.1279 34.2269 31.0965 34.5486C31.0651 34.886 31.0808 34.9723 31.2534 35.1684C31.5045 35.4666 31.9203 35.4823 32.2106 35.2077C32.446 34.988 32.4146 34.9017 32.1557 35.0821C31.9203 35.2469 31.5202 35.239 31.3633 35.0664C31.2142 34.9017 31.1906 34.5172 31.3162 34.2426C31.4182 34.0151 31.7712 33.7954 32.0537 33.7954C32.1714 33.7954 32.242 33.764 32.2106 33.717C32.1086 33.5444 31.7006 33.6385 31.4182 33.8974Z" fill="#79321B" stroke="#79321B" stroke-width="0.3"/>
<path d="M32.784 33.8768C32.6898 34.2769 32.7055 35.3596 32.7996 35.2184C32.8389 35.1557 32.8781 34.9909 32.8781 34.8654C32.8781 34.6928 32.9173 34.6221 33.0193 34.6143C33.0899 34.6143 33.3018 34.5829 33.4901 34.5515L33.8196 34.4888V34.8732C33.8196 35.085 33.8588 35.3126 33.8981 35.3753C33.953 35.4538 33.9687 35.187 33.9687 34.5515C33.9608 33.61 33.9608 33.6022 33.7804 34.2455C33.7647 34.2926 33.6156 34.3632 33.4508 34.3868C33.2861 34.4182 33.0899 34.4574 33.0193 34.4809C32.9095 34.5123 32.886 34.4495 32.8624 34.0651C32.8389 33.6571 32.831 33.6336 32.784 33.8768Z" fill="#79321B" stroke="#79321B" stroke-width="0.3"/>
<path d="M23.08 34.2812C22.9545 34.65 22.9702 35.3483 23.1036 35.3953C23.2291 35.4424 24.0686 35.2698 24.1549 35.1757C24.2098 35.1129 23.4645 35.1914 23.2683 35.262C23.1742 35.3012 23.1506 35.2384 23.1506 34.9952C23.1506 34.6971 23.1663 34.6814 23.4488 34.6343C23.8724 34.5558 24.0137 34.5088 24.0137 34.4382C24.0137 34.3989 23.8646 34.3989 23.6841 34.4382C23.182 34.5323 23.1742 34.5323 23.2134 34.2734C23.2605 33.9674 23.1899 33.9753 23.08 34.2812Z" fill="#79321B" stroke="#79321B" stroke-width="0.3"/>
</svg>
