<svg width="50" height="50" viewBox="0 0 50 50" fill="none" xmlns="http://www.w3.org/2000/svg">
<rect width="50" height="50" rx="25" fill="#27272A"/>
<g clip-path="url(#clip0_213_70)">
<path d="M11.193 21.3849C8.23224 21.4495 5.97576 23.777 6.0002 26.7006C6.02176 29.3815 8.41621 32.0236 11.6399 31.7923C14.1882 31.6098 16.5036 29.4117 16.4777 26.5584C16.4518 23.7051 14.0172 21.326 11.193 21.3849ZM11.2231 29.564C9.62637 29.564 8.32135 28.1991 8.3271 26.5469C8.31972 26.1599 8.38974 25.7753 8.53305 25.4158C8.67637 25.0562 8.8901 24.7289 9.16168 24.4529C9.43327 24.1771 9.75726 23.9581 10.1146 23.8092C10.472 23.6601 10.8555 23.5839 11.2427 23.5851C11.63 23.5862 12.013 23.6646 12.3695 23.8158C12.726 23.967 13.0487 24.1878 13.3186 24.4653C13.5885 24.7428 13.8003 25.0714 13.9415 25.4318C14.0827 25.7922 14.1504 26.1772 14.1408 26.5642C14.1494 28.1919 12.8142 29.5668 11.2188 29.564H11.2231Z" fill="white"/>
<path d="M39.1489 31.562H41.4255V21.6143H39.1489V31.562Z" fill="white"/>
<path d="M41.7207 16.0908V19.2372H43.753C43.8277 19.2372 43.8967 19.2372 44.0002 19.2271V16.0908H41.7207Z" fill="white"/>
<path d="M22.6591 29.5652C21.0623 29.5652 19.7573 28.2004 19.7631 26.5482C19.7715 25.7797 20.0791 25.0448 20.6206 24.4992C21.162 23.9536 21.8948 23.6404 22.6634 23.6259C23.1104 23.629 23.5505 23.7354 23.9494 23.9368C24.3483 24.1382 24.6952 24.4291 24.963 24.7867L27.1462 23.9247C26.2077 22.3788 24.5074 21.3387 22.6246 21.3832C19.6639 21.4479 17.4074 23.7753 17.4318 26.699C17.4534 29.3799 19.8478 32.0219 23.0716 31.7907C23.9395 31.7178 24.7762 31.4331 25.5082 30.9614C26.2402 30.4896 26.8452 29.8454 27.2698 29.0853L25.1341 28.1357C24.8788 28.5661 24.517 28.9236 24.0836 29.174C23.6502 29.4243 23.1597 29.5591 22.6591 29.5652Z" fill="white"/>
<path d="M33.6607 21.3506C33.0492 21.3364 32.4451 21.4857 31.9108 21.783C31.3764 22.0802 30.9311 22.5147 30.6209 23.0416V16.0908H28.3213V31.5526H30.6209C30.6209 31.396 30.6209 25.9121 30.6209 25.9121C30.6209 24.2829 31.2604 23.0904 32.8155 23.0904C34.8191 23.0904 34.8277 25.1923 34.8277 26.3948C34.8277 28.0944 34.8277 29.4679 34.8277 31.1676V31.5684H37.1532C37.1532 31.5008 37.1646 31.4491 37.1646 31.396C37.1646 29.4636 37.1891 27.5327 37.156 25.6003C37.1344 24.2613 36.8758 21.3506 33.6607 21.3506Z" fill="white"/>
</g>
<defs>
<clipPath id="clip0_213_70">
<rect width="38" height="15.8333" fill="white" transform="translate(6 16)"/>
</clipPath>
</defs>
</svg>
