<svg width="50" height="50" viewBox="0 0 50 50" fill="none" xmlns="http://www.w3.org/2000/svg">
<rect width="50" height="50" rx="25" fill="white"/>
<g clip-path="url(#clip0_214_198)">
<path d="M9 24.9997C8.99854 28.2442 9.9835 31.4125 11.8242 34.0843C13.665 36.7561 16.2745 38.8052 19.3067 39.9597C19.0826 38.3799 19.0961 36.7755 19.3467 35.1997L21.2133 27.2797C21.2133 27.2797 20.7333 26.333 20.7333 24.9197C20.7333 22.7064 22.0133 21.053 23.6133 21.053C24.9733 21.053 25.6267 22.0797 25.6267 23.293C25.6267 24.6664 24.76 26.7064 24.3067 28.5997C23.9333 30.1864 25.1067 31.4797 26.6667 31.4797C29.4933 31.4797 31.68 28.493 31.68 24.1864C31.68 20.373 28.9333 17.7064 25.0133 17.7064C24.0826 17.6667 23.1535 17.8162 22.2821 18.1456C21.4107 18.4751 20.6151 18.9778 19.9434 19.6233C19.2717 20.2688 18.7379 21.0438 18.3741 21.9014C18.0102 22.759 17.824 23.6815 17.8267 24.613C17.8267 25.9864 18.36 27.453 19.0267 28.253C19.1333 28.4042 19.1689 28.5553 19.1333 28.7064L18.68 30.5197C18.6267 30.7953 18.4489 30.8664 18.1467 30.733C16.16 29.7997 14.92 26.893 14.92 24.5597C14.92 19.533 18.5733 14.9197 25.4533 14.9197C30.9733 14.9197 35.2667 18.853 35.2667 24.1197C35.2667 29.613 31.8 34.0264 27 34.0264C25.3867 34.0264 23.8667 33.1864 23.3467 32.1997L22.36 35.9864C21.8584 37.5045 21.1638 38.9519 20.2933 40.293C23.5125 41.2838 26.9622 41.2335 30.151 40.1491C33.3399 39.0648 36.1052 37.0018 38.0531 34.254C40.0009 31.5061 41.0319 28.2137 40.9993 24.8457C40.9666 21.4777 39.8718 18.2059 37.871 15.4964C35.8702 12.7869 33.0654 10.7779 29.8561 9.75569C26.6468 8.73344 23.1967 8.75005 19.9974 9.80314C16.7981 10.8562 14.0127 12.8921 12.0381 15.6207C10.0635 18.3494 9.00027 21.6315 9 24.9997Z" fill="#E60023"/>
</g>
<defs>
<clipPath id="clip0_214_198">
<rect width="32" height="32" fill="white" transform="translate(9 9)"/>
</clipPath>
</defs>
</svg>
