<svg width="50" height="50" viewBox="0 0 50 50" fill="none" xmlns="http://www.w3.org/2000/svg">
<rect width="50" height="50" rx="25" fill="white"/>
<path d="M5.717 32V21.324H9.712C10.494 21.324 11.1428 21.4543 11.6585 21.715C12.1742 21.97 12.5595 22.31 12.8145 22.735C13.0695 23.1543 13.197 23.6133 13.197 24.112C13.197 24.724 13.027 25.2567 12.687 25.71C12.3527 26.1577 11.8483 26.4637 11.174 26.628C11.6103 26.696 11.9928 26.8518 12.3215 27.0955C12.6558 27.3335 12.9165 27.6282 13.1035 27.9795C13.2905 28.3252 13.384 28.6963 13.384 29.093C13.384 29.4557 13.3217 29.8098 13.197 30.1555C13.078 30.5012 12.8768 30.8128 12.5935 31.0905C12.3102 31.3682 11.9333 31.5892 11.463 31.7535C10.9927 31.9178 10.409 32 9.712 32H5.717ZM7.043 30.844H9.695C10.5053 30.844 11.0862 30.674 11.4375 30.334C11.7945 29.994 11.973 29.5577 11.973 29.025C11.973 28.4867 11.7803 28.056 11.395 27.733C11.0097 27.4043 10.443 27.24 9.695 27.24H7.043V30.844ZM7.043 22.463V26.101H9.661C10.324 26.101 10.851 25.9395 11.242 25.6165C11.6387 25.2878 11.837 24.826 11.837 24.231C11.837 23.6757 11.6443 23.2422 11.259 22.9305C10.8793 22.6188 10.3523 22.463 9.678 22.463H7.043ZM19.9816 32.204C19.0409 32.204 18.2306 31.9688 17.5506 31.4985C16.8706 31.0225 16.3464 30.3652 15.9781 29.5265C15.6098 28.6822 15.4256 27.7047 15.4256 26.594C15.4256 25.4097 15.6239 24.4123 16.0206 23.602C16.4229 22.7917 16.9669 22.1797 17.6526 21.766C18.3439 21.3467 19.1203 21.137 19.9816 21.137C21.1206 21.137 22.0358 21.4232 22.7271 21.9955C23.4241 22.5622 23.9029 23.3017 24.1636 24.214L22.7356 24.503C22.5146 23.84 22.1604 23.313 21.6731 22.922C21.1914 22.5253 20.6276 22.327 19.9816 22.327C19.4206 22.327 18.9021 22.4885 18.4261 22.8115C17.9558 23.1288 17.5761 23.6048 17.2871 24.2395C16.9981 24.8742 16.8536 25.659 16.8536 26.594C16.8536 27.444 16.9669 28.2005 17.1936 28.8635C17.4259 29.5265 17.7716 30.0478 18.2306 30.4275C18.6953 30.8072 19.2789 30.997 19.9816 30.997C20.8259 30.997 21.4946 30.7703 21.9876 30.317C22.4863 29.8637 22.7356 29.2687 22.7356 28.532H24.1806C24.1806 29.297 24.0049 29.9543 23.6536 30.504C23.3023 31.048 22.8093 31.4673 22.1746 31.762C21.5456 32.0567 20.8146 32.204 19.9816 32.204ZM25.4264 32L29.0984 21.324H30.7134L34.3004 32H32.9064L32.0054 29.263H27.7554L26.8204 32H25.4264ZM28.0954 28.226H31.6654L29.8804 22.939L28.0954 28.226ZM35.3921 27.631V26.475H40.0161V27.631H35.3921ZM43.4783 21.29H44.5493V32H43.2233V22.854C42.9513 23.041 42.6651 23.1855 42.3648 23.2875C42.0701 23.3838 41.7726 23.4377 41.4723 23.449V22.157C41.8293 22.106 42.1749 22.0125 42.5093 21.8765C42.8493 21.7405 43.1723 21.545 43.4783 21.29Z" fill="black"/>
</svg>
