<svg width="50" height="50" viewBox="0 0 50 50" fill="none" xmlns="http://www.w3.org/2000/svg">
<rect width="50" height="50" rx="25" fill="white"/>
<rect width="50" height="50" rx="25" fill="white"/>
<path d="M3.717 32V21.324H7.712C8.494 21.324 9.14283 21.4543 9.6585 21.715C10.1742 21.97 10.5595 22.31 10.8145 22.735C11.0695 23.1543 11.197 23.6133 11.197 24.112C11.197 24.724 11.027 25.2567 10.687 25.71C10.3527 26.1577 9.84833 26.4637 9.174 26.628C9.61033 26.696 9.99283 26.8518 10.3215 27.0955C10.6558 27.3335 10.9165 27.6282 11.1035 27.9795C11.2905 28.3252 11.384 28.6963 11.384 29.093C11.384 29.4557 11.3217 29.8098 11.197 30.1555C11.078 30.5012 10.8768 30.8128 10.5935 31.0905C10.3102 31.3682 9.93333 31.5892 9.463 31.7535C8.99267 31.9178 8.409 32 7.712 32H3.717ZM5.043 30.844H7.695C8.50533 30.844 9.08617 30.674 9.4375 30.334C9.7945 29.994 9.973 29.5577 9.973 29.025C9.973 28.4867 9.78033 28.056 9.395 27.733C9.00967 27.4043 8.443 27.24 7.695 27.24H5.043V30.844ZM5.043 22.463V26.101H7.661C8.324 26.101 8.851 25.9395 9.242 25.6165C9.63867 25.2878 9.837 24.826 9.837 24.231C9.837 23.6757 9.64433 23.2422 9.259 22.9305C8.87933 22.6188 8.35233 22.463 7.678 22.463H5.043ZM17.9816 32.204C17.0409 32.204 16.2306 31.9688 15.5506 31.4985C14.8706 31.0225 14.3464 30.3652 13.9781 29.5265C13.6098 28.6822 13.4256 27.7047 13.4256 26.594C13.4256 25.4097 13.6239 24.4123 14.0206 23.602C14.4229 22.7917 14.9669 22.1797 15.6526 21.766C16.3439 21.3467 17.1203 21.137 17.9816 21.137C19.1206 21.137 20.0358 21.4232 20.7271 21.9955C21.4241 22.5622 21.9029 23.3017 22.1636 24.214L20.7356 24.503C20.5146 23.84 20.1604 23.313 19.6731 22.922C19.1914 22.5253 18.6276 22.327 17.9816 22.327C17.4206 22.327 16.9021 22.4885 16.4261 22.8115C15.9558 23.1288 15.5761 23.6048 15.2871 24.2395C14.9981 24.8742 14.8536 25.659 14.8536 26.594C14.8536 27.444 14.9669 28.2005 15.1936 28.8635C15.4259 29.5265 15.7716 30.0478 16.2306 30.4275C16.6953 30.8072 17.2789 30.997 17.9816 30.997C18.8259 30.997 19.4946 30.7703 19.9876 30.317C20.4863 29.8637 20.7356 29.2687 20.7356 28.532H22.1806C22.1806 29.297 22.0049 29.9543 21.6536 30.504C21.3023 31.048 20.8093 31.4673 20.1746 31.762C19.5456 32.0567 18.8146 32.204 17.9816 32.204ZM24.7014 32V21.324H31.1954V22.463H26.0274V26.016H30.8384V27.155H26.0274V32H24.7014ZM32.5454 27.631V26.475H37.1694V27.631H32.5454ZM38.8976 32V30.419C38.8976 29.8013 38.9967 29.2857 39.1951 28.872C39.3991 28.4583 39.6824 28.1155 40.0451 27.8435C40.4134 27.5715 40.8469 27.3363 41.3456 27.138L43.4536 26.305C43.9976 26.084 44.4056 25.8007 44.6776 25.455C44.9496 25.1093 45.0856 24.6787 45.0856 24.163C45.0856 23.619 44.8957 23.1742 44.5161 22.8285C44.1421 22.4828 43.6179 22.31 42.9436 22.31C42.2749 22.31 41.7252 22.4545 41.2946 22.7435C40.8696 23.0268 40.6259 23.4547 40.5636 24.027H39.0846C39.1242 23.4093 39.3056 22.8852 39.6286 22.4545C39.9572 22.0238 40.4021 21.698 40.9631 21.477C41.5241 21.2503 42.1786 21.137 42.9266 21.137C43.6122 21.137 44.2271 21.2702 44.7711 21.5365C45.3151 21.8028 45.7429 22.1712 46.0546 22.6415C46.3719 23.1062 46.5306 23.6417 46.5306 24.248C46.5306 24.7977 46.4286 25.2765 46.2246 25.6845C46.0206 26.0925 45.7287 26.4438 45.3491 26.7385C44.9751 27.0332 44.5302 27.2853 44.0146 27.495L41.8556 28.362C41.3116 28.5717 40.9036 28.8238 40.6316 29.1185C40.3596 29.4132 40.2236 29.7957 40.2236 30.266V30.776H46.4286V32H38.8976Z" fill="black"/>
</svg>
