<svg width="50" height="50" viewBox="0 0 50 50" fill="none" xmlns="http://www.w3.org/2000/svg">
<rect width="50" height="50" rx="25" fill="white"/>
<rect width="50" height="50" rx="25" fill="white"/>
<path d="M3.717 32V21.324H7.712C8.494 21.324 9.14283 21.4543 9.6585 21.715C10.1742 21.97 10.5595 22.31 10.8145 22.735C11.0695 23.1543 11.197 23.6133 11.197 24.112C11.197 24.724 11.027 25.2567 10.687 25.71C10.3527 26.1577 9.84833 26.4637 9.174 26.628C9.61033 26.696 9.99283 26.8518 10.3215 27.0955C10.6558 27.3335 10.9165 27.6282 11.1035 27.9795C11.2905 28.3252 11.384 28.6963 11.384 29.093C11.384 29.4557 11.3217 29.8098 11.197 30.1555C11.078 30.5012 10.8768 30.8128 10.5935 31.0905C10.3102 31.3682 9.93333 31.5892 9.463 31.7535C8.99267 31.9178 8.409 32 7.712 32H3.717ZM5.043 30.844H7.695C8.50533 30.844 9.08617 30.674 9.4375 30.334C9.7945 29.994 9.973 29.5577 9.973 29.025C9.973 28.4867 9.78033 28.056 9.395 27.733C9.00967 27.4043 8.443 27.24 7.695 27.24H5.043V30.844ZM5.043 22.463V26.101H7.661C8.324 26.101 8.851 25.9395 9.242 25.6165C9.63867 25.2878 9.837 24.826 9.837 24.231C9.837 23.6757 9.64433 23.2422 9.259 22.9305C8.87933 22.6188 8.35233 22.463 7.678 22.463H5.043ZM17.9816 32.204C17.0409 32.204 16.2306 31.9688 15.5506 31.4985C14.8706 31.0225 14.3464 30.3652 13.9781 29.5265C13.6098 28.6822 13.4256 27.7047 13.4256 26.594C13.4256 25.4097 13.6239 24.4123 14.0206 23.602C14.4229 22.7917 14.9669 22.1797 15.6526 21.766C16.3439 21.3467 17.1203 21.137 17.9816 21.137C19.1206 21.137 20.0358 21.4232 20.7271 21.9955C21.4241 22.5622 21.9029 23.3017 22.1636 24.214L20.7356 24.503C20.5146 23.84 20.1604 23.313 19.6731 22.922C19.1914 22.5253 18.6276 22.327 17.9816 22.327C17.4206 22.327 16.9021 22.4885 16.4261 22.8115C15.9558 23.1288 15.5761 23.6048 15.2871 24.2395C14.9981 24.8742 14.8536 25.659 14.8536 26.594C14.8536 27.444 14.9669 28.2005 15.1936 28.8635C15.4259 29.5265 15.7716 30.0478 16.2306 30.4275C16.6953 30.8072 17.2789 30.997 17.9816 30.997C18.8259 30.997 19.4946 30.7703 19.9876 30.317C20.4863 29.8637 20.7356 29.2687 20.7356 28.532H22.1806C22.1806 29.297 22.0049 29.9543 21.6536 30.504C21.3023 31.048 20.8093 31.4673 20.1746 31.762C19.5456 32.0567 18.8146 32.204 17.9816 32.204ZM24.7014 32V21.324H31.1954V22.463H26.0274V26.016H30.8384V27.155H26.0274V32H24.7014ZM32.5454 27.631V26.475H37.1694V27.631H32.5454ZM40.6316 21.29H41.7026V32H40.3766V22.854C40.1046 23.041 39.8184 23.1855 39.5181 23.2875C39.2234 23.3838 38.9259 23.4377 38.6256 23.449V22.157C38.9826 22.106 39.3282 22.0125 39.6626 21.8765C40.0026 21.7405 40.3256 21.545 40.6316 21.29Z" fill="black"/>
</svg>
