<svg width="650" height="650" viewBox="0 0 650 650" fill="none" xmlns="http://www.w3.org/2000/svg">
<rect width="650" height="650" rx="325" fill="#6C5EFF"/>
<path d="M24.9216 325.314C25.1749 324.907 25.3082 324.171 25.3216 323.104C25.3882 317.051 25.5649 311.014 25.8516 304.994C26.5516 290.234 46.7416 287.024 51.4916 300.704C54.2816 308.744 50.5116 318.564 53.7216 326.474C57.0116 334.584 56.8516 342.684 49.8316 348.274C34.4016 360.564 14.4316 342.244 24.9216 325.314ZM45.9816 329.414C44.9349 327.741 44.4116 326.637 44.4116 326.104C44.3782 319.771 44.3582 313.437 44.3515 307.104C44.3415 297.374 33.3716 297.854 33.4516 306.864C33.4982 312.697 33.4949 318.541 33.4416 324.394C33.4116 328.684 30.0416 331.594 30.1616 335.914C30.4216 345.054 43.6016 347.344 47.1716 338.564C48.3649 335.631 47.9682 332.581 45.9816 329.414Z" fill="#FEFEFF"/>
<path d="M176.761 314.563C176.758 314.633 176.775 314.703 176.81 314.765C176.844 314.826 176.896 314.876 176.958 314.907C177.02 314.939 177.089 314.952 177.157 314.944C177.225 314.936 177.289 314.908 177.341 314.863C184.491 308.783 196.881 310.613 197.501 321.613C197.781 326.606 197.835 333.93 197.661 343.583C197.648 343.99 197.438 344.196 197.031 344.203L191.861 344.223C191.361 344.223 191.115 343.973 191.121 343.473C191.168 340.353 191.151 333.82 191.071 323.873C191.001 315.313 181.721 315.133 177.501 320.303C177.25 320.606 177.115 320.989 177.121 321.383L177.181 343.543C177.181 343.731 177.106 343.912 176.971 344.045C176.836 344.178 176.652 344.253 176.461 344.253L170.831 344.183C170.431 344.176 170.231 343.973 170.231 343.573L170.281 299.553C170.281 299.368 170.35 299.189 170.474 299.054C170.599 298.918 170.769 298.836 170.951 298.823C172.901 298.683 177.191 297.763 177.221 301.093C177.261 305.653 177.108 310.143 176.761 314.563Z" fill="#FEFEFF"/>
<path d="M536.432 314.207C536.429 314.272 536.446 314.336 536.479 314.392C536.513 314.448 536.562 314.492 536.621 314.52C536.68 314.548 536.745 314.557 536.81 314.548C536.874 314.539 536.934 314.511 536.982 314.467C543.622 308.787 556.322 309.927 556.972 320.467C557.192 323.974 557.282 331.53 557.242 343.137C557.242 343.584 557.022 343.81 556.582 343.817L551.922 343.907C551.771 343.91 551.621 343.882 551.48 343.825C551.34 343.768 551.213 343.683 551.107 343.576C551 343.468 550.916 343.34 550.861 343.2C550.805 343.059 550.778 342.908 550.782 342.757C550.969 336.304 551.002 329.874 550.882 323.467C550.692 313.437 536.762 315.747 536.682 321.457C536.582 328.69 536.559 335.864 536.612 342.977C536.614 343.11 536.588 343.241 536.537 343.363C536.486 343.486 536.41 343.596 536.314 343.688C536.219 343.78 536.105 343.851 535.981 343.897C535.857 343.944 535.725 343.964 535.592 343.957L530.492 343.747C530.072 343.727 529.862 343.464 529.862 342.957L529.922 299.047C529.922 298.856 529.998 298.673 530.133 298.538C530.268 298.403 530.451 298.327 530.642 298.327L535.382 298.337C536.229 298.337 536.646 298.76 536.632 299.607L536.432 314.207Z" fill="#FEFEFF"/>
<path d="M392.751 326.584C393.291 319.214 395.271 311.474 396.331 303.064C396.591 300.97 397.971 300.157 400.471 300.624C402.541 301.014 402.491 302.194 402.911 304.194C404.618 312.394 406.025 320.614 407.131 328.854C407.131 328.886 407.144 328.916 407.166 328.939C407.189 328.961 407.219 328.974 407.251 328.974C407.283 328.974 407.314 328.961 407.336 328.939C407.359 328.916 407.371 328.886 407.371 328.854L410.031 301.334C410.046 301.174 410.119 301.025 410.235 300.916C410.351 300.807 410.503 300.746 410.661 300.744L415.601 300.684C416.148 300.677 416.388 300.944 416.321 301.484L411.331 343.304C411.278 343.724 411.048 343.987 410.641 344.094C408.681 344.6 406.741 344.527 404.821 343.874C404.475 343.754 404.275 343.514 404.221 343.154C403.055 335.66 401.858 328.194 400.631 320.754C400.391 319.334 400.651 317.294 400.341 315.624C400.195 314.87 400.011 314.86 399.791 315.594C399.098 317.9 398.578 320.237 398.231 322.604C397.191 329.617 396.058 336.62 394.831 343.614C394.751 344.074 394.481 344.297 394.021 344.284L388.621 344.154C388.181 344.147 387.935 343.924 387.881 343.484C386.181 329.454 384.131 315.434 383.291 301.334C383.286 301.233 383.301 301.133 383.336 301.039C383.372 300.945 383.427 300.859 383.498 300.787C383.568 300.716 383.653 300.66 383.747 300.623C383.84 300.586 383.941 300.569 384.041 300.574L388.231 300.804C388.678 300.824 388.928 301.054 388.981 301.494L391.891 326.594C392.238 329.627 392.525 329.624 392.751 326.584Z" fill="#FEFEFF"/>
<path d="M85.081 321.644C86.321 322.734 87.9311 323.614 88.9011 324.734C90.4877 326.567 91.2944 328.377 91.321 330.164C91.551 346.964 75.1211 344.414 63.6611 344.324C62.8811 344.317 62.4944 343.924 62.5011 343.144L62.541 301.354C62.541 301.213 62.5958 301.078 62.6934 300.979C62.7909 300.88 62.9231 300.824 63.0611 300.824C68.9311 300.774 75.7311 300.264 81.4311 301.844C88.4211 303.784 91.9011 309.584 89.3711 316.774C88.6511 318.824 87.001 319.894 85.171 320.854C84.7577 321.074 84.7277 321.337 85.081 321.644ZM68.7111 306.984L68.7711 318.744C68.7711 318.82 68.7861 318.895 68.8152 318.966C68.8444 319.036 68.8871 319.1 68.9409 319.154C68.9948 319.208 69.0587 319.25 69.1291 319.28C69.1995 319.309 69.2749 319.324 69.351 319.324L75.2411 319.294C76.3595 319.288 77.4661 319.121 78.4978 318.8C79.5294 318.48 80.4658 318.014 81.2534 317.428C82.041 316.842 82.6643 316.147 83.0877 315.385C83.5111 314.622 83.7264 313.806 83.7211 312.984V312.584C83.7104 310.925 82.805 309.339 81.2038 308.175C79.6025 307.01 77.4363 306.362 75.1811 306.374L69.291 306.404C69.1372 306.404 68.9897 306.465 68.8809 306.574C68.7722 306.682 68.7111 306.83 68.7111 306.984ZM68.731 324.854L68.7711 338.614C68.771 338.68 68.7843 338.746 68.8101 338.807C68.8358 338.869 68.8735 338.924 68.921 338.971C68.9685 339.017 69.0248 339.054 69.0866 339.079C69.1485 339.103 69.2146 339.115 69.2811 339.114L75.9611 339.084C78.2991 339.074 80.5383 338.34 82.1865 337.043C83.8348 335.745 84.7572 333.99 84.7511 332.164V331.184C84.748 330.279 84.5167 329.383 84.0702 328.548C83.6237 327.713 82.9709 326.956 82.149 326.319C81.3271 325.682 80.3523 325.177 79.2802 324.835C78.2081 324.493 77.0599 324.319 75.9011 324.324L69.2211 324.354C69.0902 324.356 68.9656 324.41 68.874 324.504C68.7823 324.597 68.731 324.723 68.731 324.854Z" fill="#FEFEFF"/>
<path d="M501.352 311.127C501.406 309.953 501.476 308.123 501.562 305.637C501.602 304.497 502.106 303.89 503.072 303.817C508.352 303.427 507.812 306.487 507.732 310.407C507.719 311.033 508.026 311.353 508.652 311.367L518.912 311.657C519.14 311.665 519.356 311.755 519.522 311.909C519.688 312.064 519.791 312.273 519.812 312.497L520.022 314.577C520.149 315.803 519.596 316.417 518.362 316.417H508.462C508.089 316.417 507.899 316.603 507.892 316.977C507.839 322.23 507.879 327.457 508.012 332.657C508.212 340.707 513.122 339.697 519.012 338.147C519.19 338.099 519.377 338.106 519.55 338.167C519.723 338.227 519.874 338.339 519.982 338.487C520.882 339.72 521.196 341.117 520.922 342.677C520.869 342.977 520.696 343.167 520.402 343.247C512.852 345.447 502.042 345.767 501.612 335.447C501.359 329.307 501.302 323.153 501.442 316.987C501.449 316.62 501.269 316.42 500.902 316.387C498.912 316.247 495.192 316.997 493.632 316.117C492.212 315.307 492.482 313.077 493.392 312.047C493.666 311.74 494.009 311.587 494.422 311.587L500.792 311.657C500.936 311.657 501.074 311.602 501.178 311.503C501.282 311.405 501.345 311.27 501.352 311.127Z" fill="#FEFEFF"/>
<path d="M104.731 330.234C104.607 330.232 104.483 330.259 104.371 330.314C104.259 330.368 104.161 330.448 104.085 330.547C104.009 330.647 103.958 330.762 103.934 330.885C103.911 331.007 103.917 331.134 103.951 331.253C105.665 337.44 109.468 340.177 115.361 339.463C117.781 339.163 119.711 337.463 121.681 336.063C121.92 335.896 122.213 335.825 122.501 335.864C124.495 336.11 125.571 337.234 125.731 339.234C125.744 339.383 125.723 339.533 125.669 339.672C125.615 339.81 125.53 339.934 125.421 340.033C119.495 345.367 112.931 346.493 105.731 343.413C94.5114 338.623 94.8814 319.983 104.551 313.663C107.645 311.643 111.285 310.993 115.471 311.713C124.271 313.223 126.671 320.904 126.511 328.864C126.504 329.247 126.345 329.612 126.07 329.88C125.795 330.148 125.425 330.296 125.041 330.293L104.731 330.234ZM104.721 324.834L119.761 324.674C119.806 324.674 119.85 324.656 119.882 324.624C119.913 324.592 119.931 324.549 119.931 324.503V324.424C119.921 323.408 119.712 322.405 119.318 321.472C118.923 320.538 118.35 319.691 117.631 318.981C116.912 318.271 116.062 317.71 115.129 317.331C114.195 316.953 113.197 316.763 112.191 316.774H112.131C111.125 316.784 110.131 316.994 109.206 317.392C108.28 317.79 107.442 318.369 106.738 319.094C106.034 319.819 105.479 320.677 105.104 321.619C104.728 322.561 104.541 323.568 104.551 324.584V324.663C104.551 324.709 104.569 324.752 104.601 324.784C104.633 324.816 104.676 324.834 104.721 324.834Z" fill="#FEFEFF"/>
<path d="M145.061 324.273C151.221 325.813 160.161 326.883 161.651 333.143C164.311 344.323 149.841 346.333 142.741 344.163C138.428 342.85 135.605 340.02 134.271 335.673C134.207 335.463 134.193 335.241 134.231 335.024C134.268 334.807 134.356 334.602 134.488 334.426C134.619 334.25 134.79 334.107 134.987 334.009C135.184 333.912 135.401 333.861 135.621 333.863L139.571 333.883C140.011 333.883 140.341 334.08 140.561 334.473C143.508 339.807 147.745 341.177 153.271 338.583C157.111 336.783 155.571 332.993 152.181 331.943C146.811 330.293 136.911 329.393 135.711 322.303C133.951 311.883 148.841 309.643 155.501 312.733C158.235 314.007 160.268 316.32 161.601 319.673C162.048 320.787 161.721 321.59 160.621 322.083C158.141 323.173 156.161 322.163 154.561 319.973C151.815 316.227 148.258 315.55 143.891 317.943C140.601 319.743 141.961 323.493 145.061 324.273Z" fill="#FEFEFF"/>
<path d="M226.151 323.543C226.331 321.323 225.841 319.103 223.751 317.873C219.158 315.167 215.405 316.193 212.491 320.953C212.298 321.273 212.031 321.503 211.691 321.643C210.485 322.15 209.225 322.263 207.911 321.983C207.663 321.932 207.429 321.829 207.222 321.682C207.015 321.535 206.841 321.347 206.71 321.13C206.578 320.912 206.493 320.67 206.459 320.418C206.425 320.165 206.443 319.909 206.511 319.663C207.671 315.577 210.391 312.997 214.671 311.923C220.161 310.543 229.591 311.583 231.711 317.583C233.271 322.013 232.551 330.553 232.501 335.393C232.481 337.933 233.421 340.533 233.571 343.243C233.598 343.617 233.435 343.86 233.081 343.973C230.508 344.84 228.255 344.417 226.321 342.703C226.055 342.463 225.761 342.43 225.441 342.603C221.121 344.963 216.715 345.49 212.221 344.183C205.491 342.223 203.681 333.273 208.121 328.383C212.501 323.563 219.801 324.753 225.491 324.213C225.898 324.173 226.118 323.95 226.151 323.543ZM225.171 329.193C221.281 329.043 209.841 328.933 212.421 335.933C213.881 339.863 218.341 340.133 221.791 338.613C225.625 336.913 226.988 333.96 225.881 329.753C225.781 329.393 225.545 329.207 225.171 329.193Z" fill="#FEFEFF"/>
<path d="M252.961 315.364C252.959 315.424 252.975 315.482 253.007 315.533C253.039 315.583 253.086 315.623 253.142 315.646C253.198 315.67 253.26 315.676 253.32 315.665C253.381 315.654 253.437 315.626 253.481 315.584C257.841 311.384 263.048 310.29 269.101 312.304C269.455 312.424 269.611 312.67 269.571 313.044L269.081 317.424C269.061 317.633 268.96 317.827 268.799 317.963C268.639 318.099 268.432 318.168 268.221 318.154C260.151 317.634 253.351 316.894 253.261 327.364C253.215 332.717 253.218 338.064 253.271 343.404C253.273 343.51 253.253 343.615 253.213 343.713C253.174 343.811 253.115 343.901 253.041 343.976C252.966 344.051 252.878 344.111 252.78 344.152C252.682 344.193 252.577 344.214 252.471 344.214H247.391C246.925 344.214 246.691 343.977 246.691 343.504L246.771 312.604C246.778 312.117 247.021 311.884 247.501 311.904L252.161 312.074C252.393 312.082 252.612 312.181 252.771 312.349C252.931 312.518 253.017 312.742 253.011 312.974L252.961 315.364Z" fill="#FEFEFF"/>
<path d="M297.111 342.734C293.511 344.634 289.798 345.251 285.971 344.584C274.341 342.544 275.031 327.354 285.761 325.114C289.168 324.407 292.701 324.164 296.361 324.384C297.368 324.444 297.891 323.971 297.931 322.964C298.041 320.484 297.251 318.574 294.901 317.464C290.455 315.357 286.935 316.524 284.341 320.964C284.188 321.224 283.975 321.421 283.701 321.554C282.061 322.334 280.425 322.324 278.791 321.524C278.655 321.46 278.541 321.356 278.463 321.226C278.385 321.097 278.346 320.946 278.351 320.794C278.631 311.924 290.301 310.284 296.791 312.094C304.251 314.174 304.241 319.264 304.111 326.594C304.018 332.214 304.435 337.804 305.361 343.364C305.415 343.724 305.268 343.954 304.921 344.054C302.395 344.787 300.121 344.377 298.101 342.824C297.788 342.584 297.458 342.554 297.111 342.734ZM293.301 338.684C297.341 337.064 298.811 334.111 297.711 329.824C297.631 329.511 297.428 329.344 297.101 329.324C293.701 329.064 288.961 328.944 286.121 330.704C283.711 332.184 283.211 335.274 284.981 337.384C287.071 339.864 290.411 339.844 293.301 338.684Z" fill="#FEFEFF"/>
<path d="M428.031 330.254C427.869 330.253 427.71 330.291 427.566 330.364C427.423 330.437 427.298 330.544 427.204 330.675C427.11 330.807 427.049 330.959 427.026 331.118C427.003 331.278 427.018 331.441 427.071 331.594C428.991 337.2 432.538 339.857 437.711 339.564C440.471 339.414 442.941 337.594 445.151 335.994C445.285 335.894 445.44 335.827 445.605 335.797C445.77 335.768 445.94 335.777 446.101 335.824C447.781 336.304 449.791 338.794 448.011 340.424C443.891 344.19 438.891 345.58 433.011 344.594C420.201 342.454 417.461 327.614 423.301 318.294C429.171 308.914 444.471 308.624 448.331 319.934C449.298 322.767 449.761 325.667 449.721 328.634C449.716 329.071 449.537 329.488 449.225 329.795C448.912 330.102 448.49 330.274 448.051 330.274L428.031 330.254ZM427.881 324.864L442.941 324.704C442.986 324.704 443.029 324.686 443.061 324.654C443.093 324.622 443.111 324.579 443.111 324.534V324.464C443.09 322.4 442.26 320.43 440.805 318.986C439.349 317.542 437.388 316.743 435.351 316.764H435.311C434.302 316.774 433.306 316.986 432.378 317.386C431.45 317.787 430.609 318.369 429.903 319.098C429.198 319.828 428.641 320.692 428.265 321.64C427.888 322.588 427.7 323.602 427.711 324.624V324.694C427.711 324.739 427.729 324.782 427.761 324.814C427.793 324.846 427.836 324.864 427.881 324.864Z" fill="#FEFEFF"/>
<path d="M477.412 323.304C478.022 320.694 476.532 318.404 474.112 317.314C469.778 315.381 466.378 316.601 463.912 320.974C463.756 321.26 463.513 321.485 463.222 321.614C461.528 322.387 459.875 322.331 458.262 321.444C458.094 321.35 457.959 321.207 457.875 321.034C457.791 320.861 457.762 320.665 457.792 320.474C459.802 307.824 484.392 307.924 483.692 322.344C483.338 329.471 483.745 336.487 484.912 343.394C484.965 343.721 484.838 343.931 484.532 344.024C481.905 344.844 479.585 344.404 477.572 342.704C477.305 342.477 477.018 342.447 476.711 342.614C468.991 346.884 455.092 345.254 457.252 333.084C458.752 324.614 469.052 323.784 475.882 324.414C476.226 324.444 476.57 324.349 476.851 324.145C477.132 323.941 477.331 323.643 477.412 323.304ZM476.782 329.304C473.692 328.964 463.442 328.824 463.472 333.864C463.485 337.884 465.668 339.684 470.022 339.264C475.855 338.711 478.315 335.584 477.401 329.884C477.341 329.537 477.135 329.344 476.782 329.304Z" fill="#FEFEFF"/>
<path d="M571.222 330.497C571.902 336.497 577.782 340.607 583.652 338.857C586.292 338.077 590.422 333.207 592.482 337.187C595.842 343.647 569.262 351.237 565.162 332.857C559.542 307.627 594.932 301.597 593.772 328.457C593.757 328.833 593.597 329.189 593.327 329.45C593.056 329.711 592.696 329.857 592.322 329.857L571.772 329.887C571.365 329.887 571.182 330.09 571.222 330.497ZM571.982 324.437L587.032 324.297C587.077 324.297 587.12 324.279 587.152 324.247C587.184 324.215 587.202 324.172 587.202 324.127V324.077C587.183 322.015 586.358 320.045 584.906 318.6C583.455 317.154 581.497 316.351 579.462 316.367H579.422C578.413 316.374 577.414 316.584 576.485 316.982C575.556 317.381 574.713 317.962 574.005 318.691C573.297 319.42 572.739 320.283 572.36 321.231C571.982 322.18 571.793 323.194 571.802 324.217V324.267C571.802 324.29 571.807 324.313 571.816 324.334C571.825 324.355 571.838 324.375 571.855 324.39C571.872 324.406 571.892 324.419 571.914 324.427C571.936 324.435 571.959 324.438 571.982 324.437Z" fill="#FEFEFF"/>
<path d="M612.563 314.977C612.565 315.029 612.582 315.078 612.611 315.12C612.64 315.162 612.68 315.195 612.728 315.215C612.775 315.235 612.827 315.241 612.877 315.233C612.928 315.224 612.975 315.202 613.013 315.167C617.233 311.167 622.276 310.034 628.143 311.767C628.456 311.861 628.653 312.067 628.733 312.387C629.113 313.861 629.053 315.337 628.553 316.817C628.333 317.477 627.876 317.771 627.183 317.697C621.843 317.157 614.753 316.777 613.053 323.147C612.88 323.814 612.78 326.531 612.753 331.297C612.733 335.184 612.733 339.074 612.753 342.968C612.753 343.078 612.731 343.187 612.689 343.289C612.647 343.391 612.585 343.483 612.507 343.561C612.429 343.639 612.336 343.701 612.234 343.744C612.132 343.786 612.023 343.808 611.913 343.808L607.063 343.797C606.496 343.797 606.213 343.514 606.213 342.947L606.303 312.718C606.303 311.831 606.746 311.407 607.633 311.447L611.603 311.647C611.822 311.659 612.029 311.752 612.184 311.907C612.339 312.062 612.431 312.269 612.443 312.487L612.563 314.977Z" fill="#FEFEFF"/>
<path d="M337.231 320.114C337.271 315.824 330.691 315.424 330.671 320.114C330.631 327.941 330.638 335.804 330.691 343.704C330.691 344.131 330.481 344.334 330.061 344.314L324.801 344.104C324.321 344.084 324.085 343.837 324.091 343.364C324.105 335.524 324.105 327.701 324.091 319.894C324.085 318.721 323.828 317.937 323.321 317.544C321.731 316.314 318.121 316.544 318.081 319.354C317.961 327.507 317.918 335.657 317.951 343.804C317.951 343.89 317.934 343.975 317.9 344.055C317.866 344.134 317.816 344.205 317.753 344.264C317.69 344.323 317.616 344.369 317.535 344.398C317.453 344.427 317.367 344.439 317.281 344.434L312.211 344.114C311.731 344.081 311.491 343.824 311.491 343.344L311.521 313.504C311.523 313.245 311.581 312.99 311.692 312.756C311.802 312.523 311.962 312.316 312.16 312.151C312.359 311.986 312.59 311.867 312.839 311.802C313.088 311.737 313.348 311.727 313.601 311.774L318.441 312.664C318.649 312.703 318.866 312.675 319.061 312.584C322.515 310.897 325.731 311.131 328.711 313.284C328.857 313.388 329.029 313.448 329.207 313.455C329.385 313.462 329.56 313.416 329.711 313.324C331.658 312.111 333.741 311.497 335.961 311.484C342.611 311.464 342.991 316.624 343.171 321.724C343.438 328.964 343.328 336.244 342.841 343.564C342.828 343.767 342.736 343.958 342.585 344.094C342.434 344.23 342.235 344.302 342.031 344.294L338.091 344.124C337.907 344.116 337.733 344.039 337.605 343.909C337.477 343.779 337.404 343.605 337.401 343.424C337.228 335.631 337.171 327.861 337.231 320.114Z" fill="#FEFEFF"/>
<path d="M37.1713 328.053C36.5447 322.38 36.5447 318.313 37.1713 315.853C37.4513 314.76 38.0847 314.263 39.0713 314.363C40.6913 314.533 40.8913 316.003 40.9213 317.353C41.0213 322.653 41.0547 326.323 41.0213 328.363C41.0181 328.523 41.0495 328.682 41.1134 328.829C41.1772 328.975 41.272 329.106 41.3913 329.213C45.3713 332.733 46.7313 339.243 40.7813 340.723C37.2313 341.603 33.5213 339.893 33.1513 335.963C32.8713 332.983 34.8713 331.043 36.8513 329.003C37.1047 328.736 37.2113 328.42 37.1713 328.053Z" fill="#FEFEFF"/>
<path d="M373.399 322.825L352.82 322.682C352.118 322.677 351.546 323.241 351.541 323.943L351.523 326.543C351.518 327.244 352.083 327.817 352.784 327.822L373.363 327.965C374.065 327.97 374.637 327.406 374.642 326.704L374.66 324.104C374.665 323.403 374.101 322.83 373.399 322.825Z" fill="#FEFEFF"/>
</svg>
